<?xml version="1.0" encoding="UTF-8" standalone="no"?>
<!-- Created with Inkscape (http://www.inkscape.org/) -->

<svg
   xmlns:dc="http://purl.org/dc/elements/1.1/"
   xmlns:cc="http://creativecommons.org/ns#"
   xmlns:rdf="http://www.w3.org/1999/02/22-rdf-syntax-ns#"
   xmlns:svg="http://www.w3.org/2000/svg"
   xmlns="http://www.w3.org/2000/svg"
   xmlns:xlink="http://www.w3.org/1999/xlink"
   xmlns:sodipodi="http://sodipodi.sourceforge.net/DTD/sodipodi-0.dtd"
   xmlns:inkscape="http://www.inkscape.org/namespaces/inkscape"
   width="520.14282mm"
   height="392.02286mm"
   viewBox="0 0 520.14282 392.02286"
   version="1.1"
   id="svg8"
   inkscape:version="0.92.1 r15371"
   sodipodi:docname="Venezuela_Division_Politica_Territorial_Unicolor.svg">
  <defs
     id="defs2">
    <inkscape:perspective
       id="perspective83"
       inkscape:persp3d-origin="1060.2853 : 543.13433 : 1"
       inkscape:vp_z="2120.5706 : 814.70149 : 1"
       inkscape:vp_y="0 : 999.99994 : 0"
       inkscape:vp_x="0 : 814.70149 : 1"
       sodipodi:type="inkscape:persp3d" />
    <pattern
       patternTransform="translate(-298.861, 654.135)"
       id="pattern2827"
       xlink:href="#pattern21993"
       inkscape:collect="always" />
    <pattern
       patternTransform="matrix(0.323324, 0, 0, 0.394675, 2160.9, 1022.24)"
       id="pattern14252"
       xlink:href="#pattern13278"
       inkscape:collect="always" />
    <linearGradient
       id="linearGradient3468">
      <stop
         id="stop3470"
         offset="0"
         style="stop-color: rgb(243, 240, 235); stop-opacity: 1;" />
      <stop
         style="stop-color: rgb(243, 240, 231); stop-opacity: 1;"
         offset="0.5"
         id="stop4443" />
      <stop
         id="stop4445"
         offset="0.75"
         style="stop-color: rgb(232, 216, 104); stop-opacity: 1;" />
      <stop
         id="stop3472"
         offset="1"
         style="stop-color: rgb(210, 166, 60); stop-opacity: 1;" />
    </linearGradient>
    <linearGradient
       id="linearGradient3412">
      <stop
         id="stop3414"
         offset="0"
         style="stop-color: rgb(236, 229, 213); stop-opacity: 1;" />
      <stop
         id="stop3416"
         offset="1"
         style="stop-color: rgb(237, 231, 217); stop-opacity: 0;" />
    </linearGradient>
    <linearGradient
       id="linearGradient3384">
      <stop
         id="stop3386"
         offset="0"
         style="stop-color: rgb(255, 255, 255); stop-opacity: 1;" />
      <stop
         id="stop3388"
         offset="1"
         style="stop-color: rgb(209, 153, 46); stop-opacity: 0;" />
    </linearGradient>
    <pattern
       id="pattern10356"
       patternTransform="translate(1904.45, 522.23)"
       height="56.15433"
       width="64.6396"
       patternUnits="userSpaceOnUse">
      <path
         style="fill: none; fill-rule: evenodd; stroke: rgb(0, 0, 0); stroke-width: 1px; stroke-linecap: butt; stroke-linejoin: miter; stroke-opacity: 1;"
         d="M 0.5,55.65433 L 64.1396,0.5 L 64.1396,0.5"
         id="path10354" />
    </pattern>
    <pattern
       id="pattern13278"
       patternTransform="translate(2160.9, 886.471)"
       height="224.28354"
       width="280.05217"
       patternUnits="userSpaceOnUse">
      <rect
         style="opacity: 1; fill: rgb(183, 11, 15); fill-opacity: 1; fill-rule: evenodd; stroke: rgb(219, 228, 16); stroke-width: 1.45229; stroke-linejoin: miter; stroke-miterlimit: 4; stroke-dasharray: none; stroke-opacity: 1;"
         id="rect11332"
         width="347.50024"
         height="9.5032015"
         x="-133.36407"
         y="170.03984"
         transform="matrix(0.784776, -0.619779, 0.619779, 0.784776, 0, 0)" />
    </pattern>
    <pattern
       id="pattern21993"
       patternTransform="translate(1989.42, 611.434)"
       height="69.401688"
       width="90.020491"
       patternUnits="userSpaceOnUse">
      <rect
         style="opacity: 1; fill: rgb(236, 30, 30); fill-opacity: 1; fill-rule: evenodd; stroke: rgb(0, 0, 0); stroke-width: 1.056; stroke-linejoin: miter; stroke-miterlimit: 4; stroke-dasharray: none; stroke-opacity: 1;"
         id="rect21022"
         width="105"
         height="7.5"
         x="-36.86367"
         y="50.890423"
         transform="matrix(0.804894, -0.593419, 0.593419, 0.804894, 0, 0)" />
    </pattern>
    <pattern
       patternUnits="userSpaceOnUse"
       width="90.020491"
       height="69.401688"
       patternTransform="translate(1989.42, 611.434)"
       id="pattern2575">
      <rect
         transform="matrix(0.804894, -0.593419, 0.593419, 0.804894, 0, 0)"
         y="50.890423"
         x="-36.86367"
         height="7.5"
         width="105"
         id="rect2577"
         style="opacity: 1; fill: rgb(236, 30, 30); fill-opacity: 1; fill-rule: evenodd; stroke: rgb(0, 0, 0); stroke-width: 1.056; stroke-linejoin: miter; stroke-miterlimit: 4; stroke-dasharray: none; stroke-opacity: 1;" />
    </pattern>
    <pattern
       patternUnits="userSpaceOnUse"
       width="280.05217"
       height="224.28354"
       patternTransform="translate(2160.9, 886.471)"
       id="pattern2571">
      <rect
         transform="matrix(0.784776, -0.619779, 0.619779, 0.784776, 0, 0)"
         y="170.03984"
         x="-133.36407"
         height="9.5032015"
         width="347.50024"
         id="rect2573"
         style="opacity: 1; fill: rgb(183, 11, 15); fill-opacity: 1; fill-rule: evenodd; stroke: rgb(219, 228, 16); stroke-width: 1.45229; stroke-linejoin: miter; stroke-miterlimit: 4; stroke-dasharray: none; stroke-opacity: 1;" />
    </pattern>
    <pattern
       patternUnits="userSpaceOnUse"
       width="64.6396"
       height="56.15433"
       patternTransform="translate(1904.45, 522.23)"
       id="pattern2567">
      <path
         id="path2569"
         d="M 0.5,55.65433 L 64.1396,0.5 L 64.1396,0.5"
         style="fill: none; fill-rule: evenodd; stroke: rgb(0, 0, 0); stroke-width: 1px; stroke-linecap: butt; stroke-linejoin: miter; stroke-opacity: 1;" />
    </pattern>
    <pattern
       inkscape:collect="always"
       xlink:href="#pattern13278"
       id="pattern2543"
       patternTransform="matrix(0.323324, 0, 0, 0.394675, 2160.9, 1022.24)" />
  </defs>
  <sodipodi:namedview
     id="base"
     pagecolor="#ffffff"
     bordercolor="#666666"
     borderopacity="1.0"
     inkscape:pageopacity="0.0"
     inkscape:pageshadow="2"
     inkscape:zoom="0.57592289"
     inkscape:cx="1100.6163"
     inkscape:cy="968.82725"
     inkscape:document-units="mm"
     inkscape:current-layer="layer1"
     showgrid="false"
     inkscape:window-width="1920"
     inkscape:window-height="1027"
     inkscape:window-x="-8"
     inkscape:window-y="-8"
     inkscape:window-maximized="1"
     fit-margin-top="0"
     fit-margin-left="0"
     fit-margin-right="0"
     fit-margin-bottom="0" />
  <metadata
     id="metadata5">
    <rdf:RDF>
      <cc:Work
         rdf:about="">
        <dc:format>image/svg+xml</dc:format>
        <dc:type
           rdf:resource="http://purl.org/dc/dcmitype/StillImage" />
        <dc:title></dc:title>
      </cc:Work>
    </rdf:RDF>
  </metadata>
  <g
     inkscape:label="Capa 1"
     inkscape:groupmode="layer"
     id="layer1"
     transform="translate(303.91664,47.178102)">
    <path
       inkscape:connector-curvature="0"
       id="path6271"
       style="fill:#fffecc;fill-opacity:1;fill-rule:evenodd;stroke:#000000;stroke-width:0.52916664;stroke-linecap:round;stroke-linejoin:round;stroke-miterlimit:4;stroke-dasharray:none;stroke-opacity:1"
       d="m -35.727334,22.975701 -10.738538,-3.208623 -6.333198,-3.858157 -2.984606,-2.256658 -2.839032,-2.329452 0.436774,-1.6742969 0.727948,-0.8007482 -0.363961,-0.8007508 -3.858159,-1.0919302 -2.183863,-0.8735456 -2.124252,0.6051788 -0.143883,0.5843217 0.01169,1.1926914 -0.537879,0.7015823 -7.436774,-0.3975655 -9.348372,0.6304386 v 0 0 l 0.617689,0.6176884 0.720637,0.926534 -1.647171,1.132432 -2.882551,1.956017 -3.294345,0.411792 -2.161913,-0.411792 -0.617689,-1.544225 -1.870702,0.801646 1.029483,2.88255 1.029484,2.367809 1.544222,1.338329 -0.823585,2.161913 -0.102949,1.338329 1.132432,1.235379 1.956017,0.514739 1.544222,0.514741 1.441278,1.647175 1.956012,0.514738 2.573708,-0.617688 1.956012,0.720638 3.397303,0.514741 1.956011,-0.205896 1.441291,0.205896 2.985479,-1.853067 1.64719,-0.617691 h 1.441265 l 0.823595,1.029483 0.720619,0.720638 2.573708,0.514741 1.64719,0.411793 1.956001,-0.308846 1.853062,-0.102947 1.647164,0.823585 h 2.676684 l 1.956011,-0.514739 2.26486,-0.205899 1.544241,0.617691 1.338315,0.617688 0.411798,0.10295 0.152108,-1.057902 2.081372,0.163703 2.455545,-1.145919 1.566862,-2.198293 1.449943,-0.701582 0.958824,-0.77174 z"
       sodipodi:nodetypes="ccccccccccccccccccccccccccccccccccccccccccccccccccccccccc" />
    <path
       inkscape:connector-curvature="0"
       style="fill:#fffecc;fill-opacity:1;fill-rule:evenodd;stroke:#000000;stroke-width:0.52916664;stroke-linecap:round;stroke-linejoin:round;stroke-miterlimit:4;stroke-dasharray:none;stroke-opacity:1"
       d="m -150.88393,6.6123437 -1.24016,1.6588211 -1.31031,0.8735456 -2.11107,0.4367716 -1.74709,0.655159 -0.50957,1.310317 -0.0728,1.819886 1.16472,1.892681 0.14559,2.183863 0.80075,1.455907 -0.43677,1.237522 -1.38311,0.145592 h -1.16473 l -0.65516,1.019136 -0.58236,0.94634 -1.01914,0.94634 -1.01913,0.291182 -0.87355,0.727954 0.65516,1.310317 1.45591,0.94634 0.43677,1.674294 -0.50957,1.892681 0.65516,0.946341 1.45591,1.164727 h 1.16473 v -1.965475 l 0.87354,-1.091933 1.38312,-0.800748 h 1.60149 l 0.0728,2.03827 -0.87354,4.149339 -1.38312,1.601499 -1.38311,0.727953 -0.58236,1.091933 -1.6743,0.218385 -1.74709,0.363979 -1.31032,0.363977 -1.23752,-0.873546 -0.29118,-1.09193 0.14559,-1.747092 -0.14559,-1.747088 -0.87354,-0.509569 -0.87355,2.03827 -1.45591,1.31032 -0.43677,1.965476 -0.94634,1.164725 0.72795,1.455909 -0.43677,0.363977 -1.5287,-1.237522 -1.23753,0.218387 0.0728,0.582364 1.01914,1.019135 0.29118,0.800748 -0.72795,0.291182 -1.01914,-1.019135 -1.38311,-1.019136 -1.01914,0.582364 0.43677,0.946341 0.94634,0.582361 -0.43677,0.509569 -1.38311,-0.655159 -1.45591,-0.582364 -0.65516,1.310318 v 1.601499 l -0.36398,2.475044 -0.50957,0.946341 -1.31031,0.291182 -1.6743,-0.655159 -1.09193,-0.291182 -0.80075,0.363977 -1.5287,-0.14559 -0.80075,-0.94634 0.65516,-1.164728 0.72795,-1.164727 0.50957,-1.455907 -0.36398,-1.164728 -1.16472,0.07279 -0.58237,0.873546 -1.38311,-0.07279 -1.09193,0.07279 -0.80075,0.727953 -1.23752,1.237523 -0.50957,2.183863 -0.72795,-0.436772 -0.94634,-1.601499 -1.31032,-1.892681 -0.50957,-2.111068 0.94634,-1.674294 0.72796,-0.873546 1.31031,0.291182 1.31032,-0.291182 -1.01914,-1.237522 -1.89268,-0.946341 -0.94634,-0.727953 -1.74709,-0.07279 -1.01913,-1.383112 -1.01914,-0.291182 -0.87354,1.237523 -1.01914,-0.800751 -0.87355,-0.800748 -0.94634,0.363976 -0.87354,-1.674296 -0.94634,-0.655159 -1.09193,0.946341 -3.05741,-0.582361 -0.72795,-1.091933 v -1.747089 l -0.58237,-0.291182 -0.80075,-0.0728 -0.72795,-1.528704 -1.01914,-0.655158 -1.09193,0.655158 -0.43677,1.455907 v 1.310317 l -1.46347,0.51748 -1.27472,-0.274161 -1.54348,-0.748356 -4.02241,-3.367595 0.0935,-1.262848 1.54349,-1.496711 2.66601,-1.122532 1.35639,-1.169305 1.1693,-1.169302 -0.0935,-1.449938 0.70158,-0.841899 -0.23386,-0.608039 -1.73057,-0.654809 -0.18709,-2.011204 -1.24501,-2.18046 4.49426,0.194061 5.0762,-2.082779 4.95785,-0.187089 2.15152,-1.2160753 1.87089,0.04677 3.50791,-2.6192401 2.66601,-0.046773 6.08038,-2.1047472 2.10475,-1.2160752 -1.21608,1.1225318 1.16931,0.5612659 1.73057,-0.2806329 3.50791,-1.9644334 2.19829,0.3741791 4.30304,2.0112037 3.60146,-0.5144955 3.97563,0.327406 2.99342,0.4677224 2.71279,0.7015824 1.40316,-0.2338625 1.30962,-0.7483528 3.08697,-0.046773 z"
       id="path23938"
       sodipodi:nodetypes="cccccccccccccccccccccccccccccccccccccccccccccccccccccccccccccccccccccccccccccccccccccccccccccccccccccccccccccccccccccccccccccccccccccccccccccccccccccccc" />
    <path
       inkscape:connector-curvature="0"
       id="path24918"
       style="fill:#fffecc;fill-opacity:1;fill-rule:evenodd;stroke:#000000;stroke-width:0.52916664;stroke-linecap:round;stroke-linejoin:round;stroke-miterlimit:4;stroke-dasharray:none;stroke-opacity:1"
       d="m -213.13079,30.598122 1.34654,-0.494096 v -1.310318 l 0.43677,-1.455906 1.09193,-0.655159 1.01914,0.655159 0.72795,1.528704 0.80075,0.07279 0.58237,0.291182 v 1.747088 l 0.72795,1.091933 3.05741,0.582361 1.09193,-0.94634 0.94634,0.655158 0.87354,1.674297 0.94635,-0.363977 0.87354,0.800748 1.01914,0.800751 0.87354,-1.237522 1.01914,0.291182 1.01913,1.383112 1.74709,0.07279 0.94634,0.727954 1.89269,0.94634 1.01913,1.237523 -1.31032,0.291182 -1.31031,-0.291182 -0.72796,0.873545 -0.94634,1.674294 0.50957,2.111068 1.31032,1.892681 0.94634,1.601499 0.74461,0.503156 -0.6385,1.376704 -1.31032,0.727953 -0.87355,1.237522 -1.16472,1.310318 -0.0728,1.455906 0.94634,0.946341 h 1.09194 l 0.50956,1.965478 -1.09193,2.183861 -0.65516,1.455909 -1.45591,1.528704 -0.39,1.110044 -1.86401,-0.911638 -3.46114,-0.397563 h -3.41437 l -2.36199,0.58465 -1.80073,0.912058 -0.0702,-0.958828 -1.21608,-1.005602 -1.05237,0.444336 -1.44994,1.333005 -1.75395,-0.818512 -1.73057,-2.198291 -2.29184,-1.262848 -1.89427,-0.608039 -0.63143,-1.262849 -0.11693,-1.520094 -1.02898,-2.361997 -1.28624,-1.660411 -1.96443,-0.420949 -1.30962,-0.491109 0.35079,-6.173925 0.44433,-3.344209 3.48453,0.397563 3.46114,0.257246 1.82412,-1.520095 1.0056,-2.315223 0.88867,-1.379778 1.44994,-0.09354 1.14592,-1.333008 -0.58466,-2.15152 z"
       sodipodi:nodetypes="ccccccccccccccccccccccccccccccccccccccccccccccccccccccccccccccccccccccccccc" />
    <path
       inkscape:connector-curvature="0"
       id="path2307"
       style="fill:#fffecc;fill-opacity:1;fill-rule:evenodd;stroke:#000000;stroke-width:0.52916664;stroke-linecap:round;stroke-linejoin:round;stroke-miterlimit:4;stroke-dasharray:none;stroke-opacity:1"
       d="m -141.15421,75.711125 -0.80075,3.130203 -0.94634,2.475045 -1.74709,1.892681 -1.74709,0.800748 -1.45591,0.94634 -1.31032,2.183863 -0.43677,2.54784 0.21839,2.329452 -0.43677,0.800751 h -1.6743 l -2.54784,-2.547839 -0.94634,-1.819887 -1.38311,-1.09193 -2.32945,-1.383114 -1.23753,-1.310317 -1.31031,-1.383112 1.4559,-1.6015 -0.72795,-0.582363 -1.23752,-0.145593 -0.50957,-2.03827 -4.36772,-5.095679 -2.18387,0.436774 h -1.09193 l -1.09193,-0.582364 -2.91182,-0.655159 -1.38311,-1.019138 -0.94634,-0.946337 -1.89268,0.145589 -1.09193,0.509569 -4.58611,-1.237522 -2.76623,-1.237523 -2.18386,-1.455909 -1.16473,-0.727953 -1.31031,-1.091931 -1.6743,-1.091932 -2.03376,-2.312213 0.34098,-1.000749 1.45591,-1.528704 0.65516,-1.45591 1.09193,-2.18386 -0.50957,-1.965478 h -1.09193 l -0.94634,-0.946341 0.0728,-1.455907 1.16473,-1.310317 0.87354,-1.237522 1.31032,-0.727954 0.6717,-1.350041 0.49303,-2.289731 1.23752,-1.237522 0.80075,-0.727954 1.09193,-0.07279 1.38311,0.07279 0.58237,-0.873545 1.16472,-0.07279 0.36398,1.164727 -0.50957,1.455907 -0.72795,1.164728 -0.65516,1.164727 0.80075,0.946341 1.5287,0.145589 0.80075,-0.363976 1.09193,0.291182 1.6743,0.655158 1.31032,-0.291182 0.50956,-0.94634 0.36398,-2.475045 v -1.601499 l 0.65516,-1.310317 1.45591,0.582364 1.38311,0.655158 0.43677,-0.509569 -0.94634,-0.582361 -0.43677,-0.94634 1.01914,-0.582364 1.38311,1.019135 1.01914,1.019135 0.72795,-0.291181 -0.29118,-0.800749 -1.01914,-1.019135 -0.0728,-0.582364 1.23753,-0.218387 1.5287,1.237522 0.43677,-0.363976 -0.72795,-1.45591 0.94634,-1.164725 0.43677,-1.965475 1.45591,-1.31032 0.87355,-2.038271 0.87354,0.509569 0.14559,1.747089 -0.14559,1.747091 0.29118,1.09193 1.23752,0.873546 1.31032,-0.363977 1.74709,-0.363979 1.6743,-0.218384 0.58236,-1.091933 1.38311,-0.727954 3.7222,9.153406 0.79513,1.309619 0.0468,2.619243 2.61924,2.011201 1.96443,1.894273 1.80073,1.075762 0.25725,2.572467 1.37978,1.356394 0.28063,0.724969 -1.26285,0.537879 0.65481,3.811932 0.0702,2.291837 1.42655,1.403164 -5.33203,2.011204 -0.14031,1.028986 0.72497,0.865285 1.12253,-0.04677 0.79512,0.795126 0.70159,1.683797 1.02898,0.795126 2.01121,1.075762 z"
       sodipodi:nodetypes="cccccccccccccccccccccccccccccccccccccccccccccccccccccccccccccccccccccccccccccccccccccccccccccccccccc" />
    <path
       inkscape:connector-curvature="0"
       style="fill:#fffecc;fill-opacity:1;fill-rule:evenodd;stroke:#000000;stroke-width:0.52916664;stroke-linecap:round;stroke-linejoin:round;stroke-miterlimit:4;stroke-dasharray:none;stroke-opacity:1"
       d="m -133.66921,27.900377 -0.72795,-0.643467 -0.14559,-2.402249 -0.65516,-2.038271 0.58236,-1.892681 0.87355,-1.601499 0.0728,-1.164728 -1.01913,-1.819886 -0.21839,-3.130201 0.50957,-1.601499 V 9.7132154 l 0.87354,-0.072798 1.31032,0.6551616 3.3581,-1.1918953 -0.77012,-0.8504291 -2.17491,0.2455545 -4.57198,-0.011695 -2.87648,0.11693 -2.44385,-0.6665039 -0.90036,-1.0289858 -0.78344,-1.3563944 0.87698,-1.4499378 1.76565,1.7539573 -1.23946,-1.8942737 -1.3447,-0.1052354 -4.24457,0.4794144 -1.96444,1.9059657 -1.39777,0.4463785 -1.24016,1.5769696 -1.31031,0.8735457 -2.11107,0.4367715 -1.74709,0.6551582 -0.50957,1.310317 -0.0728,1.819887 1.16472,1.892681 0.14559,2.183862 0.80075,1.455907 -0.43677,1.237523 -1.38311,0.145592 h -1.16473 l -0.65516,1.019135 -0.58236,0.946341 -1.01914,0.94634 -1.01913,0.291182 -0.87355,0.727954 0.65516,1.310317 1.45591,0.94634 0.43677,1.674294 -0.50956,1.892681 0.65515,0.946341 1.45591,1.164727 h 1.16473 V 30.17682 l 0.87354,-1.091932 1.38312,-0.800749 h 1.6015 l 2.26173,-0.600389 1.85208,0.264583 0.62839,1.058333 1.5875,0.926042 1.88515,0.23151 1.35599,-0.595312 0.82682,-1.091406 0.92605,-0.628386 1.4552,0.297656 0.52917,2.315104 0.82682,0.992188 1.68672,-0.132292 3.80339,-2.745052 z"
       id="path2299" />
    <path
       inkscape:connector-curvature="0"
       id="path2309"
       style="fill:#fffecc;fill-opacity:1;fill-rule:evenodd;stroke:#000000;stroke-width:0.52916664;stroke-linecap:round;stroke-linejoin:round;stroke-miterlimit:4;stroke-dasharray:none;stroke-opacity:1"
       d="m -141.08408,75.653207 -0.23421,-0.63441 -1.96547,-0.94634 -1.01914,-0.946341 -0.72796,-1.601499 -0.80074,-0.800751 -1.01914,0.0728 -0.80075,-0.873546 0.0728,-1.019135 1.6743,-0.582364 3.71257,-1.455909 -1.38312,-1.455907 -0.14559,-2.256658 -0.50957,-2.839021 -0.14559,-0.946341 1.23752,-0.582364 -0.21838,-0.727953 -1.38311,-1.383115 -0.21839,-2.547837 -1.81988,-1.019138 -1.89269,-1.89268 -2.62063,-2.038271 -0.0728,-2.766227 -0.94634,-1.237519 -0.72795,-2.111069 -1.31032,-3.639769 -1.6015,-3.421385 1.33674,-1.536756 0.89297,-4.101042 -0.0408,-2.053711 2.32442,-0.607169 1.81988,0.218387 0.65516,1.23752 1.52871,0.800751 1.89268,0.218387 1.31031,-0.582364 0.87355,-0.94634 0.94634,-0.727954 1.5287,0.218385 0.43678,2.40225 0.87354,0.94634 1.6743,-0.145592 2.25665,-1.747089 1.52871,-1.019135 0.4564,-0.570304 0.4955,-1.403271 1.74709,-0.946338 1.6015,-0.873545 1.01914,-0.291182 0.80075,0.873545 -1.01914,0.946341 -1.09193,1.819883 0.29118,1.164728 2.11107,0.873546 0.94634,0.873543 0.50957,0.655158 1.60149,0.727956 1.16473,-0.218387 1.38311,-0.145589 1.96548,1.747088 2.40225,0.218388 0.94634,-0.363977 0.35353,-1.12916 2.78073,3.837591 0.65516,2.03827 -2.03827,1.747092 -1.45591,0.873545 -2.69343,0.727954 -0.58236,1.965476 -0.50957,1.528704 1.01913,2.183863 0.50957,1.819883 -0.58236,1.819887 1.01913,1.237522 1.01914,2.329452 0.0728,2.911817 0.50957,3.421385 -1.96547,2.547839 -1.52871,1.310318 -1.09193,2.183863 -1.31032,3.057405 0.29119,2.183863 0.36398,3.639773 -0.99272,2.812597 -1.33123,-0.616701 -2.00918,-2.067058 -2.43912,-0.157093 -2.34818,0.330729 -2.84427,-0.396875 -7.17682,-0.06615"
       sodipodi:nodetypes="cccccccccccccccccccccccccccccccccccccccccccccccccccccccccccccccccccccccccccccccccccccccccc" />
    <path
       inkscape:connector-curvature="0"
       id="path8218"
       style="fill:#fffecc;fill-opacity:1;fill-rule:evenodd;stroke:#000000;stroke-width:0.52916664;stroke-linecap:round;stroke-linejoin:round;stroke-miterlimit:4;stroke-dasharray:none;stroke-opacity:1"
       d="m -128.85409,9.1069068 -3.36477,1.1967682 -1.31032,-0.6551609 -0.87354,0.072798 v 1.8926819 l -0.50957,1.601499 0.21838,3.1302 1.01914,1.819887 -0.0728,1.164727 -0.87354,1.601499 -0.58236,1.892681 0.65515,2.03827 0.1456,2.40225 0.72795,0.655158 0.50957,-1.31032 1.74709,-0.946337 1.6015,-0.873546 1.01913,-0.291182 0.80075,0.873546 -1.01914,0.94634 -1.09193,1.819884 0.29119,1.164727 2.11106,0.873546 0.94635,0.873544 0.50956,0.655159 1.6015,0.727956 1.16473,-0.218387 1.38311,-0.14559 1.96548,1.747089 2.40225,0.218387 0.94634,-0.363977 0.29447,-1.200954 1.12383,-1.815119 0.94634,0.363977 1.6015,1.383115 1.09193,1.528701 0.94634,0.145593 1.16473,-1.237523 1.6015,-0.509569 1.01913,-0.800748 1.31032,-0.0728 0.005,-1.711383 -0.91527,-1.231671 -1.96548,-0.509566 -2.32945,-0.07279 -0.57446,-1.643758 0.79464,-2.224499 -1.01914,-0.655162 -1.09193,1.601499 -2.11107,-0.363977 -1.81988,-0.07279 -1.23753,-1.09193 0.36398,-1.45591 2.54784,-1.747088 2.18386,-0.582364 1.6015,-0.218387 1.07618,-0.443442 0.005,-1.701715 -2.18386,-0.800751 -1.81988,0.218387 -2.76623,-0.582364 -0.80075,-0.873545 0.21839,-1.892681 1.98889,-1.727936 -1.32298,0.233325 -1.96548,0.291181 -3.203,-0.363977 -2.40225,-0.218385 -2.25665,-0.0728 z"
       sodipodi:nodetypes="cccccccccccccccccccccccccccccccccccccccccccccccccccccccccccccccccccccc" />
    <path
       inkscape:connector-curvature="0"
       id="path14168"
       style="fill:#fffecc;fill-opacity:1;fill-rule:evenodd;stroke:#000000;stroke-width:0.52916664;stroke-linecap:round;stroke-linejoin:round;stroke-miterlimit:4;stroke-dasharray:none;stroke-opacity:1"
       d="m -101.77757,9.7449362 -3.2886,0.3403518 -4.29493,0.800749 -4.36773,0.436774 -1.80769,0.354391 -1.97767,1.756674 -0.21838,1.892681 0.80074,0.873546 2.76623,0.582364 1.81989,-0.218388 2.18386,0.800751 0.0604,1.680049 1.46831,1.814131 1.16473,1.310318 -0.72795,1.674293 -2.32946,1.164725 -0.93106,1.29585 0.56708,1.615969 2.32946,0.07279 1.96547,0.509566 0.94381,1.288426 1.45337,-0.614807 2.11107,-0.14559 1.74709,1.091931 3.275792,0.80075 3.421385,0.14559 1.45591,2.40225 2.18386,1.455907 1.747091,1.383114 1.747089,0.873543 0.0728,1.019138 1.819883,0.363977 1.091933,1.455907 -0.291182,1.164727 -0.363977,1.237523 -1.383114,1.383112 h -1.819884 l -1.237522,1.528704 1.019135,1.601499 2.402247,1.019136 1.528705,0.436774 1.455909,0.800748 1.455907,0.436771 2.40225,1.310318 h 1.601499 l 0.800748,-0.873543 V 49.12209 l 0.946341,-0.436774 1.237522,-3.421383 -0.582364,-0.07279 -0.582361,-1.528705 0.800748,-2.256657 0.218387,-1.310318 -2.111068,-2.329455 -0.800748,-0.94634 1.019135,-0.800748 0.800749,-1.819887 0.436774,-1.455906 -0.582364,-1.164728 0.02873,-3.258942 -0.804613,0.01307 -3.397293,-0.403659 -1.956017,-0.720638 -2.573707,0.617688 -1.956017,-0.514738 -1.441276,-1.647175 -1.544222,-0.514741 -1.956017,-0.514739 -1.132432,-1.235379 0.102949,-1.338329 0.823585,-2.161913 -1.544223,-1.338329 -1.029483,-2.367809 -0.982546,-2.788399 -0.973471,0.317641 -1.956017,-0.720638 -1.132432,1.13243 -1.441283,0.411795 -0.30884,-2.161913 z"
       sodipodi:nodetypes="cccccccccccccccccccccccccccccccccccccccccccccccccccccccccccccccccccccccccccccccc" />
    <path
       inkscape:connector-curvature="0"
       id="path12182"
       style="fill:#fffecc;fill-opacity:1;fill-rule:evenodd;stroke:#000000;stroke-width:0.52916664;stroke-linecap:round;stroke-linejoin:round;stroke-miterlimit:4;stroke-dasharray:none;stroke-opacity:1"
       d="m -3.3552459,19.368568 1.4401535,-1.712558 1.52870958,-1.23752 1.31032248,-1.383115 3.05741914,-1.09193 1.0191221,-1.601499 1.4559226,-1.383112 1.6742834,0.14559 1.1647222,1.237522 1.8198839,0.07279 2.984605,-0.07279 3.421407,0.291182 2.256658,-0.800751 2.693431,-1.164725 L 21.74342,10.303675 20.141923,9.5029245 17.885266,8.7749711 15.846995,8.556584 14.90066,7.5374487 13.299163,7.7558358 9.2954091,7.9742202 6.0196294,8.6293788 4.2725327,9.8669012 3.6173715,8.0470151 2.4526492,6.2271315 3.4717713,5.4991755 5.5100419,5.7175626 8.858635,6.2271315 l 2.183871,-1.0191353 1.89267,0.2183845 2.693432,0.8007508 2.693432,-1.0191353 1.528709,-0.2911819 4.076542,0.7279535 3.639767,0.3639767 1.965483,-0.2911819 2.693432,-0.9463405 5.168477,-0.072795 1.383109,-1.2375224 2.984606,-0.2911819 h 4.658916 l 1.310322,0.5823638 h 2.911819 l 2.402231,-1.0191353 2.183871,-0.9463405 3.27578,0.5095663 2.475045,0.2183871 h 4.294928 l 3.639793,0.8735457 2.111058,0.2183871 3.202993,0.1455896 1.091935,-0.509569 3.130206,-0.2911792 2.475045,-0.5823638 2.693432,0.072795 -0.291201,1.0191353 -3.42138,1.6014991 -3.057392,0.2183871 -5.532464,0.4367715 -2.693432,3.0574085 H 64.619916 L 59.74264,8.1926073 56.394046,8.0470151 l -4.367715,0.5823637 -2.984632,1.0191353 2.475045,0.6551609 0.218387,2.984611 -2.038271,0.14559 -1.89267,-0.218384 -1.019149,2.03827 v 2.984611 l 1.383136,-0.145589 -0.363987,-3.348591 1.164722,-0.94634 1.965484,1.091933 2.329444,-1.45591 0.363988,-1.674294 0.509561,0.07279 2.475045,2.038273 1.237509,1.528702 -0.582348,1.528704 0.363961,3.712567 1.237191,1.307428 -0.736203,2.908925 H 54.014596 L 52.985128,26.09235 51.955635,25.165813 50.308471,25.371712 48.86718,24.548125 46.70527,24.23928 44.852207,22.386212 41.866702,20.841987 38.778274,20.739038 35.792768,20.0184 l -1.338342,-1.235379 -1.853062,-0.308843 -1.647163,-1.956017 -1.544241,0.308843 -2.985479,2.470759 -1.750139,0.102949 -3.294327,0.205896 -1.853089,2.882551 -3.294327,1.132432 -2.022158,0.687565 L 12.67898,23.091726 9.0073837,23.676378 6.2711952,24.833989 3.640258,24.717059 2.1084792,23.676378 -0.68615574,23.372359 -1.7268413,21.13899 Z"
       sodipodi:nodetypes="cccccccccccccccccccccccccccccccccccccccccccccccccccccccccccccccccccccccccccccccccccccccccccccccccccccccccccccccc" />
    <path
       inkscape:connector-curvature="0"
       id="path5434"
       style="fill:#fffecc;fill-opacity:1;fill-rule:evenodd;stroke:#000000;stroke-width:0.52916664;stroke-linecap:round;stroke-linejoin:round;stroke-miterlimit:4;stroke-dasharray:none;stroke-opacity:1"
       d="m -271.51927,82.206468 1.57149,4.022823 0.14558,4.658905 1.01914,1.747091 -0.0728,1.09193 -0.58237,0.436775 -0.94634,-0.291182 -1.09193,1.09193 -1.23752,1.965476 0.29118,2.256657 -0.43677,2.693437 -0.36398,1.5287 0.29118,2.62063 -0.21838,1.52871 0.72795,2.40225 -0.50957,1.74709 0.21839,1.16472 1.01913,0.58237 0.47382,1.36242 1.66582,0.51847 0.88986,-1.00087 1.5875,-0.0992 2.00091,0.31419 1.95131,-0.59531 1.63791,1.43045 2.39707,1.39147 2.32692,0.0234 2.65432,-1.23946 1.72313,-2.64581 1.06034,-1.09853 2.25666,-0.65516 3.42138,0.65516 6.18761,0.94634 2.59725,0.55898 2.28004,-0.41339 -1.16472,-0.29118 -2.11107,-2.47504 -1.96548,-1.38312 -0.43677,-1.67429 1.23753,-2.18386 -0.87355,-1.6015 -1.67429,-1.31032 0.50956,-1.31032 v -2.839018 l -0.50956,-1.965476 -1.6743,-1.747091 -4.07654,0.0728 -4.36773,-3.858157 -1.23752,0.14559 -1.74709,-0.291182 -0.36398,-1.528704 1.31032,-1.383112 0.94634,-1.455907 1.6015,-1.237522 -0.14559,-2.475045 0.94634,-2.038271 0.21839,-1.674296 -1.01914,-2.475042 -2.11107,-1.31032 0.0546,-0.0033 -1.38907,0.09922 -1.4552,1.02526 -1.25677,-2.38125 -1.35599,0.79375 -0.36381,0.694531 -1.35599,1.256771 -1.42213,-0.06615 -0.79375,0.694532 -1.35599,-0.264584 -1.5875,0.727604 -2.64583,0.694532 -0.66146,2.447395 z"
       sodipodi:nodetypes="ccccccccccccccccccccccccccccccccccccccccccccccccccccccccccc" />
    <path
       inkscape:connector-curvature="0"
       id="path9253"
       style="fill:#fffecc;fill-opacity:1;fill-rule:evenodd;stroke:#000000;stroke-width:0.52916664;stroke-linecap:round;stroke-linejoin:round;stroke-miterlimit:4;stroke-dasharray:none;stroke-opacity:1"
       d="m -239.00973,104.86492 -1.23753,2.18386 0.43678,1.67429 1.96547,1.38312 2.11107,2.47504 1.16472,0.29118 -2.25665,0.43678 -2.62064,-0.58237 -6.18761,-0.94634 -3.42138,-0.65516 -2.25666,0.65516 -0.96504,1.03225 2.59568,0.48027 1.7694,1.55443 2.1332,0.49609 1.05833,-0.77721 1.5875,0.69453 2.59623,-0.42995 1.38906,-0.61185 7.73906,1.07487 1.93477,1.62057 2.6789,0.19844 4.97748,2.00091 2.24896,-0.62838 5.88697,1.25677 1.76941,-1.32292 2.19934,-0.16536 2.43086,-2.0836 1.24024,-0.82682 2.61276,-0.59531 0.7276,-1.2237 1.88516,-4.51445 0.81029,-0.19844 2.3151,0.23151 1.53789,-0.52917 0.42995,-0.51263 2.39778,-2.34818 1.19579,-0.64264 0.21839,-0.36398 3.203,-0.36398 2.25665,-2.11106 3.05741,-0.50957 3.71257,-1.747091 2.98461,-2.038273 3.63977,-3.63977 1.74709,-1.019135 2.98461,-0.218387 h 2.83902 l 2.91182,0.14559 2.54784,1.674296 1.16473,1.455907 1.45591,-0.363977 2.47504,-0.07279 1.31032,1.674294 1.23752,1.019136 3.34859,0.436774 1.67429,-0.291182 h 3.85816 l 3.05741,-1.45591 1.23752,0.655159 2.40225,0.218387 1.96547,1.09193 2.40225,-0.727953 1.31032,-0.291182 0.94634,-0.946341 h 1.23752 l 2.54784,1.6015 2.76623,0.509568 6.11481,-0.218387 3.85816,-0.655158 2.32945,-1.09193 3.45198,-0.645512 -0.67662,-2.124803 -1.16472,-2.111068 v -2.547839 l -2.03827,-1.310318 -1.38312,-0.145589 -1.89268,-1.819886 -3.20299,-3.566975 -2.32946,-0.873546 -1.81988,-0.218384 0.0728,-2.54784 -0.59484,-0.754573 -1.37977,-0.624454 -1.96548,-2.03827 -2.47504,-0.14559 -2.32946,0.291179 -2.83902,-0.363976 -5.45965,-0.07279 h -1.81989 l -0.80075,3.130203 -0.94634,2.475045 -1.74709,1.892681 -1.74709,0.800748 -1.4559,0.946341 -1.31032,2.183862 -0.43678,2.54784 0.21839,2.329452 -0.43677,0.800751 h -1.6743 l -2.54784,-2.547839 -0.94634,-1.819886 -1.38311,-1.091931 -2.32945,-1.383114 -1.23752,-1.310317 -1.31032,-1.383112 1.45591,-1.601499 -0.72796,-0.582364 -1.23752,-0.145592 -0.50957,-2.038271 -4.36772,-5.095679 -2.18387,0.436774 h -1.09193 l -1.09193,-0.582364 -2.91181,-0.655158 -1.38312,-1.019138 -0.94634,-0.946338 -1.89268,0.145589 -1.09193,0.509569 -4.58611,-1.237522 -2.76623,-1.237522 -2.18386,-1.45591 -1.16473,-0.727953 -1.31031,-1.09193 -1.6743,-1.091933 -1.5287,-1.965476 -2.32945,-1.164727 -3.56698,-0.436772 h -3.34859 l -2.40225,0.582364 -1.74709,0.94634 -1.38311,2.693429 0.36398,1.237523 -1.6015,0.509569 -1.89268,0.582364 -1.38311,2.03827 -0.87355,0.291182 -0.14559,-0.727953 -2.25666,1.383112 -1.6015,1.019135 -0.21838,1.237522 -1.89268,1.164728 -1.6015,1.383112 0.80074,1.019135 -0.87354,1.310317 -1.23752,1.45591 -0.14559,2.183863 -1.81989,1.674294 0.94634,1.965475 0.65516,3.348588 -1.01914,1.674297 -0.87354,1.819883 -1.96548,2.256658 -2.54784,2.038273 -2.40224,2.111066 -4.73171,3.930955 -1.96547,1.31032 z"
       sodipodi:nodetypes="cccccccccccccccccccccccccccccccccccccccccccccccccccccccccccccccccccccccccccccccccccccccccccccccccccccccccccccccccccccccccccccccccccccccccccccccccccccccccccccc" />
    <path
       inkscape:connector-curvature="0"
       id="path15225"
       style="fill:#fffecc;fill-opacity:1;fill-rule:evenodd;stroke:#000000;stroke-width:0.52916664;stroke-linecap:round;stroke-linejoin:round;stroke-miterlimit:4;stroke-dasharray:none;stroke-opacity:1"
       d="m -103.24292,157.61071 0.40501,-0.14437 0.97473,-0.77109 2.111072,-1.16472 4.877292,-4.8045 2.183863,-2.11107 0.218387,-2.11107 0.436772,-2.54784 2.256658,-3.63977 0.582363,-2.76622 0.07279,-6.18761 -1.747089,-2.25666 1.6015,-1.16473 1.747088,-0.87354 0.436774,-1.01914 2.329453,-0.65516 1.455907,-1.5287 1.674296,-1.23752 3.057406,-0.50957 2.038273,-0.65516 2.54784,-1.5287 1.965476,-3.78537 2.03827,-2.11106 1.45591,-2.25666 1.819883,-1.6015 1.528705,-0.94634 2.547839,0.43677 1.965476,-0.58236 1.164728,-0.87354 2.547844,0.14559 2.620619,-0.21839 0.873548,0.94634 0.946335,-1.16473 1.52871,-0.43677 1.52871,-1.09193 1.164722,0.80075 1.091935,-0.94634 1.892671,-0.72796 0.655161,-2.54783 0.946335,-1.81989 1.67431,-0.50957 3.057393,-0.29118 2.03827,0.80075 2.038271,0.80075 1.383109,0.36398 4.003754,0.29118 4.586103,1.5287 2.620645,1.09193 1.819883,1.96548 1.892697,1.31032 0.727948,2.03827 0.873548,-1.23752 2.984606,-1.09193 2.402258,-1.45591 2.2566578,-1.23753 2.2566577,-0.50956 2.8390056,-0.50957 1.1647222,-1.16473 0.8007615,-0.94634 -1.0191485,-1.67429 -0.6551613,-2.40225 0.7279746,-1.601499 1.1647223,-0.218387 2.25665765,0.436772 1.16472225,-0.509567 1.6014965,-0.07279 0.509561,-1.455909 0.6551612,-1.09193 1.6743098,0.727953 1.0919354,1.601499 v 1.164725 l 1.091909,-0.436771 1.4559226,0.94634 1.6742837,0.07279 1.310322,0.291182 2.183871,0.07279 1.52871,-0.509567 1.310296,-1.528704 1.091935,-1.819886 1.52871,-2.18386 2.18387,-0.218387 3.566954,-0.873546 3.203019,-0.94634 2.620619,0.291181 1.091935,-1.164727 1.819884,-0.727954 1.747096,0.145593 1.455897,-1.310318 2.256657,-1.89268 1.601497,-1.019138 2.329471,0.145592 3.27578,0.94634 2.693431,0.655159 2.547858,-0.436772 1.164723,-0.727956 2.911819,-1.019135 1.019122,0.291182 -0.509561,1.819886 -1.965484,1.819884 -2.402231,2.475044 -2.620645,1.674294 -1.747097,0.946341 -1.674283,0.94634 -1.38311,-1.310317 0.582348,2.256658 -0.218387,3.057408 -0.291174,2.547837 1.019122,0.87354 0.436774,1.6743 -0.655134,2.54784 0.145573,2.32945 -1.455896,1.74709 0.727948,0.50957 0.07279,1.45591 -0.291174,1.89267 0.800762,0.72796 0.727948,1.01914 1.237509,0.72795 1.164722,-0.72795 v -1.16473 l 1.237536,-0.58237 0.873548,1.6015 -0.1456,1.45591 -1.52871,1.74709 v 1.6743 l -0.582348,1.81988 -1.383109,1.31032 -1.383136,-0.36398 -1.019122,-1.23752 -0.07279,1.6015 -1.237535,0.58236 -1.237509,0.50957 -1.310323,-0.50957 -1.019149,0.72796 -0.36396,0.72795 0.727948,1.01914 1.601496,0.50957 0.655161,1.16472 -1.091935,1.45591 0.1456,0.87355 1.819884,-0.43678 1.310322,0.29118 1.38311,1.09194 1.674283,0.14559 0.363987,1.23752 -1.383109,1.5287 -2.547858,1.45591 -2.329445,-0.21839 -1.091935,-1.4559 -2.547832,-0.65516 -2.256657,0.50956 -0.509562,1.45591 -0.509587,1.38312 1.601496,-1.6743 2.038297,-0.58236 1.965458,0.21839 0.800761,1.01913 0.800735,0.87355 1.310323,-0.0728 1.237535,0.0728 1.601497,-0.50957 1.310322,-0.94634 1.310296,-1.16473 0.873549,0.29118 0.946335,1.74709 0.655161,1.09193 0.1456,2.32946 0.655161,1.4559 -0.946335,2.40225 -2.766245,4.00375 -1.74707,2.76623 -0.218387,1.45591 0.946335,1.09193 1.019122,2.47504 -0.436774,0.29118 -1.019122,0.87355 v 1.38311 l 0.436774,-1.23752 0.946335,-0.72795 0.800762,0.50956 1.019122,2.03827 0.291174,-1.09193 -1.164723,-2.40224 -1.383109,-2.25666 -0.363961,-1.6743 2.183845,-4.07654 3.494193,-4.51332 0.291174,-1.31032 -0.655161,-0.65515 -1.091936,-1.74709 0.291201,-2.03828 -0.436775,-1.31031 -0.363987,-1.23753 -2.03827,-1.74708 0.727948,-1.38312 2.18387,-1.89268 1.164723,-0.94634 1.310322,0.14559 1.455896,-0.29118 0.145601,-1.16472 -1.52871,-2.32946 0.436774,-0.72795 0.291174,-0.80075 -0.582348,-0.58237 v -0.80075 l 0.873549,-1.09193 1.601496,0.43678 1.310323,1.09193 0.655161,0.14559 0.291174,-0.72796 0.436774,-0.87354 -0.873548,-0.87355 0.291173,-0.65516 -0.07279,-0.94634 -1.019149,-1.16472 -0.218387,-1.31032 0.363987,-0.87354 1.310323,-0.65516 0.582348,-1.16473 0.1456,-1.23752 -0.291174,-1.16473 -1.237536,-0.72795 0.07281,-0.80075 1.965457,-1.09193 0.07281,-1.6015 0.873522,-1.31032 -0.655135,-1.01914 -0.946361,0.0728 -1.237509,-0.43677 -1.310323,-1.09193 -1.383109,-0.58237 -0.291174,0.65516 -1.164749,1.6015 -1.965457,0.50957 -2.329471,0.0728 -1.019122,0.65516 -1.237536,0.14559 -1.164722,-0.72795 -0.436774,-1.16473 -0.07279,-1.5287 0.218387,-1.819881 -0.509561,-0.509569 -0.1456,-1.965476 0.291174,-2.402247 2.475044,-1.674297 1.091936,0.218388 0.582374,-0.291182 -0.363987,-0.363977 0.655161,-1.237522 2.911819,-1.819887 1.091935,-1.819883 2.183845,-1.528704 1.310322,-1.310318 -0.655161,-1.237522 -0.07279,-0.94634 0.727948,-0.873546 2.531004,-1.667843 0.162428,1.522253 2.038271,1.819886 3.348593,3.348588 0.509561,0.145592 1.091935,-0.655161 2.329471,0.0728 1.74707,0.436771 1.819884,1.019136 1.892697,1.164727 1.237509,1.674294 1.019148,1.747091 0.436775,1.09193 1.819883,1.019136 1.674283,-0.14559 1.164723,-0.873546 2.03827,-0.363976 2.475045,-0.582364 1.237536,0.14559 1.674283,2.839021 1.67431,3.275796 2.183844,1.601502 3.421406,0.87354 2.475048,0.72796 0.87352,0.80075 0.72798,-0.0728 1.52868,-1.74709 2.32947,-0.72795 2.11106,-0.43677 1.23753,-1.310324 1.4559,-0.655159 2.25666,-1.091933 0.80076,-0.582363 1.45589,1.528704 0.94634,2.693435 1.38311,0.58236 2.91182,-0.94634 2.11108,-1.091933 0.0728,-0.800748 1.96548,0.509566 1.52869,-0.655158 1.16474,-0.509567 11.11922,-0.228586 -0.98626,1.65822 -2.47962,0.828356 -2.82969,-0.444342 -1.96445,0.187089 -1.40317,1.870893 0.18709,2.52569 -0.56126,2.33861 -2.15151,1.59026 -2.3386,0.56126 -0.46773,1.21608 0.74834,2.05797 1.49673,0.74836 2.3386,2.61924 0.56126,1.21608 -0.93544,1.77734 -1.02899,0.93544 1.8709,2.15152 2.33859,0.8419 2.05799,-1.40317 2.80633,0.56127 4.11593,2.89988 -2.24504,3.27405 -1.96445,1.87089 -1.87087,0.46772 -3.46115,3.55468 h -3.74176 l -2.05798,2.99342 -4.30305,-1.49671 -0.93544,0.37418 -1.30963,-0.93545 -1.4967,0.74836 0.37418,1.49671 -2.15152,0.37418 -2.80632,0.0935 -1.59026,-0.65481 -1.77733,0.37418 -1.49673,-1.40317 -0.37417,0.37418 0.46773,1.40316 1.40317,1.96444 0.56126,2.05797 -0.46773,1.87089 1.40316,2.61924 0.18709,2.05797 -0.37418,1.96443 0.28065,2.71279 0.93543,2.15152 -1.68381,2.80633 -2.52568,1.21608 -1.21608,0.93544 -0.74835,2.15152 -2.05798,0.65481 -1.21608,1.49671 -0.65482,0.18709 26.66013,29.65353 0.0512,1.481 1.31032,2.18387 -3.05742,4.29493 -3.78537,2.54786 -4.00372,1.74707 v 0.65516 l -1.16475,1.09194 0.0728,2.03827 -1.23753,1.96548 -1.38311,0.29117 -5.45965,0.58238 -2.32945,-1.01915 -2.32947,0.36399 -0.36396,0.72794 0.65516,1.38311 -0.1456,1.23754 -1.23754,0.36396 -2.47504,-0.29117 -3.202995,1.52871 -0.07279,3.20299 -1.383109,1.38311 -4.586129,-0.1456 -2.256658,0.50959 -3.275779,2.839 -2.038271,0.58238 -1.455923,-0.65517 -1.601496,-0.0728 -4.440502,2.69343 -8.953844,-3.20302 h -1.89267 l -0.509588,1.01915 -2.329444,1.45589 -0.07279,1.8927 -0.655162,0.58235 -4.731702,-0.14557 -2.475045,1.0919 -0.873548,2.98464 0.582374,2.32944 1.528683,4.51332 -1.019122,3.34859 -4.513315,2.11106 -2.111084,-1.31032 -3.566954,-3.63977 -3.85818,-3.56698 -2.038271,-2.83901 -1.674283,-1.52871 -2.183871,-1.01912 -2.402231,0.21839 -1.601497,3.71255 -1.819883,-0.29117 -2.766246,-2.91182 -2.693431,-0.1456 -1.674284,0.87355 h -2.03827 l -1.747097,-0.80076 -2.693432,1.23753 -2.03827,1.38311 -1.38311,0.0728 -0.582374,-1.01912 -1.019122,-4.00376 -1.6743099,-2.40223 -2.1110575,-0.87355 -4.9500895,-0.72797 -3.34859308,0.65516 -4.87727622,0.43677 -1.3103225,-1.38311 -1.2160249,-1.98599 0.4240212,-1.9768 -0.396875,-3.63802 -0.2645833,-3.43959 -0.79375,-2.18281 -2.3812503,-0.52917 -2.513541,0.13229 -4.365625,-1.32291 -2.116667,-2.84427 -3.571875,-5.22552 -3.175,-5.68855 -0.463021,-3.63802 -2.116666,-2.38125 -0.330729,-1.78593 1.058333,-1.52136 3.505729,0.13229 1.322917,-1.05833 -0.33073,-2.05052 -1.852083,-1.25677 -0.330729,-1.19063 1.5875,-0.85989 0.132292,-1.32292 -4.034896,-4.10102 0.06615,-1.52135 1.389062,-1.05834 -0.727604,-1.52135 -1.190625,-0.0661 -2.447396,-0.39687 -2.447396,-0.0661 -2.05052,0.52917 -1.190625,1.71979 -2.248959,0.8599 -2.315104,-2.31511 -0.264583,-2.18281 0.595312,-2.71198 1.455209,-5.29167 -0.396875,-2.11666 -2.248959,-0.66146 -3.175,0.33073 -1.785937,0.7276 -2.910417,5.49011 -3.108854,4.82864 -1.984375,0.72761 -1.918229,-0.13229 -3.704159,1.91822 -1.5875,-0.19843 -0.859895,-1.05834 -0.132292,-3.50573 -0.661458,-1.12447 -1.256771,-0.33073 -1.984375,1.25677 -3.307292,3.57187 -2.778125,1.52136 -2.976562,0.66145 -6.746875,0.26459 -5.357813,2.05052 -0.79375,-1.5875 -4.7625,-0.19844 -0.46302,-2.44739 1.521354,-3.70417 0.727604,-2.97656 -1.058333,-3.83646 -4.630209,-1.71979 -2.182807,0.66145 -1.05833,-0.7276 z"
       sodipodi:nodetypes="cccccccccccccccccccccccccccccccccccccccccccccccccccccccccccccccccccccccccccccccccccccccccccccccccccccccccccccccccccccccccccccccccccccccccccccccccccccccccccccccccccccccccccccccccccccccccccccccccccccccccccccccccccccccccccccccccccccccccccccccccccccccccccccccccccccccccccccccccccccccccccccccccccccccccccccccccccccccccccccccccccccccccccccccccccccccccccccccccccccccccccccccccccccccccccccccccccccccccccccccccccccccccccccccccccccccccccccccccccccccccccccccccccccccccccccccccccccccccccccccccccccc" />
    <path
       inkscape:connector-curvature="0"
       style="fill:#fffecc;fill-opacity:1;fill-rule:evenodd;stroke:#000000;stroke-width:0.52916664;stroke-linecap:round;stroke-linejoin:round;stroke-miterlimit:4;stroke-dasharray:none;stroke-opacity:1"
       d="m -112.78249,-39.561183 v -1.601499 l 1.31032,-0.291182 1.01914,1.019135 -0.87355,-1.747089 -2.03827,-0.727956 -0.72795,-1.164725 1.60149,-0.291182 2.91182,1.747089 0.72795,2.183863 v 1.455909 l -1.60149,0.582362 h -1.6015 z"
       id="path2163" />
    <path
       inkscape:connector-curvature="0"
       style="fill:#fffecc;fill-opacity:1;fill-rule:evenodd;stroke:#000000;stroke-width:0.52916664;stroke-linecap:round;stroke-linejoin:round;stroke-miterlimit:4;stroke-dasharray:none;stroke-opacity:1"
       d="m -103.61026,-39.561183 -1.45591,0.291182 0.29118,1.310317 1.89268,0.291182 1.31032,-1.164728 -0.43678,-1.455909 -0.87354,-1.310318 -0.72795,-0.727953 -1.16473,0.582364 v 1.310317 z"
       id="path2165" />
    <path
       inkscape:connector-curvature="0"
       style="fill:#fffecc;fill-opacity:1;fill-rule:evenodd;stroke:#000000;stroke-width:0.52916664;stroke-linecap:round;stroke-linejoin:round;stroke-miterlimit:4;stroke-dasharray:none;stroke-opacity:1"
       d="m -80.02455,-38.83323 -2.329455,1.019135 -1.455907,0.436775 -0.436774,0.582361 0.873546,1.164727 1.455909,1.164728 2.620635,0.291182 1.601499,-1.164728 0.291182,-1.747091 1.310317,2.038273 -1.45591,2.329453 -4.076541,-0.291182 -2.038273,0.291182 -0.727953,0.436771 1.310317,1.019138 3.202998,0.14559 2.038271,0.582363 2.766226,-0.873545 1.310317,-1.747089 v -2.620634 l -0.873545,-1.601499 -0.727954,-1.45591 -1.747088,-0.291182 z"
       id="path2167" />
    <path
       inkscape:connector-curvature="0"
       style="fill:#fffecc;fill-opacity:1;fill-rule:evenodd;stroke:#000000;stroke-width:0.52916664;stroke-linecap:round;stroke-linejoin:round;stroke-miterlimit:4;stroke-dasharray:none;stroke-opacity:1"
       d="m -63.281605,-32.500028 -0.582364,-1.164728 0.94634,-0.655159 2.329453,-0.218387 1.310317,-1.601499 1.164738,0.218387 0.436748,2.038271 v 1.892681 l -2.038258,0.727956 -1.747088,-0.145592 -0.873546,-0.509567 z"
       id="path2169" />
    <path
       inkscape:connector-curvature="0"
       style="fill:#fffecc;fill-opacity:1;fill-rule:evenodd;stroke:#000000;stroke-width:0.52916664;stroke-linecap:round;stroke-linejoin:round;stroke-miterlimit:4;stroke-dasharray:none;stroke-opacity:1"
       d="m -33.5083,-6.0752948 -2.111057,0.8007509 -0.800762,1.5287042 0.218387,1.383112 2.183871,0.5823638 c 0,0 1.237536,0.3639767 1.601496,0.3639767 0.363988,0 2.402258,-0.072795 2.402258,-0.072795 l 1.52871,0.1455896 1.091935,-1.2375223 -0.436774,-2.1838629 -2.111084,-0.6551586 -2.547831,-0.8007482 z"
       id="path2171" />
    <path
       inkscape:connector-curvature="0"
       style="fill:#fffecc;fill-opacity:1;fill-rule:evenodd;stroke:#000000;stroke-width:0.52916664;stroke-linecap:round;stroke-linejoin:round;stroke-miterlimit:4;stroke-dasharray:none;stroke-opacity:1"
       d="m -10.941723,-33.810346 0.218387,-1.601499 0.9463616,-0.582363 v -1.237523 l 1.6742833,0.0728 1.3831094,0.145592 0.6551612,1.819884 -0.072787,1.747091 -1.9654838,0.363977 -1.8926704,0.145589 z"
       id="path2173" />
    <path
       inkscape:connector-curvature="0"
       style="fill:#fffecc;fill-opacity:1;fill-rule:evenodd;stroke:#000000;stroke-width:0.52916664;stroke-linecap:round;stroke-linejoin:round;stroke-miterlimit:4;stroke-dasharray:none;stroke-opacity:1"
       d="m -2.3518401,-30.607347 0.3639608,-1.164728 1.09193544,-0.727953 0.72794812,0.363976 -0.58234791,2.038271 -0.87354835,0.582364 z"
       id="path2175" />
    <path
       inkscape:connector-curvature="0"
       id="path2177"
       style="fill:#fffecc;fill-opacity:1;fill-rule:evenodd;stroke:#000000;stroke-width:0.52916664;stroke-linecap:round;stroke-linejoin:round;stroke-miterlimit:4;stroke-dasharray:none;stroke-opacity:1"
       d="m 5.437255,-8.4047473 0.4367742,1.4559095 1.8926704,0.6551586 1.8926968,0.2911819 1.6742836,-0.8007509 0.582374,-0.2911819 v -1.4559068 l 1.237509,-0.7279561 2.693432,-2.329452 1.310323,1.164727 1.164722,1.674294 0.873548,1.8198862 -0.800735,1.6742939 -1.965484,0.8735456 c 0,0 -0.363987,0.5095664 -0.509561,0.8735431 -0.1456,0.3639767 -0.509587,0.727956 -0.509587,0.727956 l -0.509561,-0.6551586 -1.091936,0.2183845 -1.747096,0.7279534 -1.74707,0.072797 L 8.9314483,-3.0906811 7.6939127,-4.109819 6.6019773,-4.9105672 5.2916548,-4.2554086 H 3.0349971 L 1.1423267,-4.6921802 -0.89594386,-5.5657258 V -6.4392715 L 0.26877842,-8.1135654 2.3798624,-8.4775421 4.4909198,-8.768724 4.927694,-8.9143163 Z M 6.2380165,-0.47004669 5.2188679,-0.5428415 4.4909198,-0.17886479 4.63652,0.84027051 6.3108033,0.91306532 7.6939127,0.69467824 8.0579,-0.25165961 7.1115648,-0.76122858 Z m 6.5515855,0.58236379 -0.2912,1.383112 1.164749,0.6551586 c 0,0 1.091909,0.509569 1.383109,0.509569 0.291174,0 1.091936,-0.5823638 1.091936,-0.5823638 L 15.992595,1.1314524 15.119047,0.62188342 13.517551,-0.03327517 Z" />
    <path
       inkscape:connector-curvature="0"
       style="fill:#fffecc;fill-opacity:1;fill-rule:evenodd;stroke:#000000;stroke-width:0.52916664;stroke-linecap:round;stroke-linejoin:round;stroke-miterlimit:4;stroke-dasharray:none;stroke-opacity:1"
       d="m 43.582048,-18.159331 1.455923,-1.019138 -0.727974,-1.528702 -2.256658,0.218384 -0.946335,0.582364 -0.145574,1.019136 1.019122,0.94634 z"
       id="path2183" />
    <path
       inkscape:connector-curvature="0"
       id="path2269"
       style="fill:#fffecc;fill-opacity:1;fill-rule:evenodd;stroke:#000000;stroke-width:0.52916664;stroke-linecap:round;stroke-linejoin:round;stroke-miterlimit:4;stroke-dasharray:none;stroke-opacity:1"
       d="m 74.956869,72.034184 -1.383109,1.601501 0.436774,0.800749 1.237535,-0.14559 0.436775,-1.31032 z m -6.769973,-42.075748 0.1456,2.038271 0.655161,-0.218385 0.145574,-1.455909 z m 43.044824,43.885363 2.36781,-0.10295 0.4118,1.544225 -1.0295,0.823584 -1.54421,-0.411792 -0.8236,-1.029483 z m 15.3393,-2.264863 -0.51475,0.926534 0.92655,0.205896 z m -5.66216,-0.926534 -0.8236,1.23538 v -1.029483 l 0.72065,-0.823587 z m 2.9855,-1.544224 -1.44129,1.13243 1.13244,0.308845 0.6177,-0.617688 z m -0.92654,2.058963 -1.13242,0.823587 0.92652,0.720638 2.26486,-0.205896 0.10295,-1.235379 z m -12.1479,-3.294343 -2.26486,2.161914 0.10295,0.823587 2.26486,-1.544225 1.0295,-1.750121 z m 0.92655,3.191397 -2.47076,0.308845 0.10295,0.926534 1.95601,0.411792 2.67666,-0.514741 1.23536,-2.058964 -2.57371,0.411792 z m -1.75014,3.397292 0.61769,-1.338329 -1.75011,-0.102946 -0.92654,1.132429 0.92654,1.23538 z m 6.27986,-25.42822 0.10295,-3.08845 v -1.441275 l 0.61769,-0.205896 1.23537,0.823587 1.54421,1.853068 0.8236,1.75012 v 1.029483 l -1.33832,0.411793 -1.64719,1.956017 -2.47076,1.647174 -0.61767,-0.926537 0.61767,-1.13243 1.0295,-1.235379 z m -0.72065,7.206377 -0.30885,1.956017 h -0.72062 l 0.30882,-1.338326 z m 0.6177,0.205898 0.61769,-2.161915 1.44127,-0.617689 0.61769,0.926534 -0.51474,1.647172 -1.23537,0.926536 z m 3.70612,-2.573708 1.44129,-1.029483 0.92652,0.411795 -0.20587,0.823585 -1.0295,0.308845 -0.82359,1.029483 -0.72062,0.205896 -0.10295,-0.823587 z m 2.77961,1.647172 -1.02947,0.823587 -0.92654,-0.205896 0.30884,-1.029483 0.6177,-0.411792 z m 0.10295,0.720638 -0.51475,0.720637 0.8236,0.926537 1.02949,-0.926537 -0.4118,-0.823584 z m -6.48573,1.75012 -2.36781,1.956017 -2.47076,2.470759 -0.72065,1.647171 1.85307,-0.205896 2.16193,-2.161913 1.85306,-2.161913 2.16191,-1.13243 -0.41179,-0.823587 z m -2.57371,5.868051 0.72064,1.750121 2.88253,-1.338326 1.13245,-2.058966 0.30884,-1.853068 -1.54421,-0.205899 -1.33834,1.23538 -1.54422,1.544224 z m -4.52972,1.544225 0.51475,-1.235379 -0.8236,0.308845 -0.6177,0.720638 z m 10.29483,-5.868051 0.10295,-0.823587 -1.13244,0.411795 0.41179,0.720638 z m 1.85306,-0.411792 c 0,0 -0.30885,1.647171 -0.82359,1.647171 -0.51475,0 -1.02947,-0.514741 -1.02947,-0.514741 l 0.72062,-1.13243 z m -8.02997,8.23586 -1.75011,2.161913 1.54421,0.514742 2.36781,-0.617689 1.02949,-2.264862 z m 4.94152,-0.823587 -0.10295,1.029483 h 1.75011 l 0.2059,-0.823584 z m 2.16191,1.544225 -1.02947,1.75012 -1.33834,0.823587 -0.4118,1.029481 1.13244,0.411795 1.64717,-2.573708 2.36781,-0.926534 0.2059,-0.308845 z m 2.47076,-1.23538 c 0,0 0.10295,1.23538 0.51474,1.13243 0.4118,-0.102947 1.0295,-1.544222 1.0295,-1.544222 z m 31.77058,15.026159 -1.05952,-0.44468 -1.7471,-3.275793 -2.40226,-1.45591 -3.63976,-1.965476 -4.58611,-1.383112 -3.20299,-0.291181 -3.49419,0.145589 -0.43678,0.727954 8.66267,2.766226 -0.21838,0.655159 -8.58986,-2.038271 -1.01915,0.291182 -0.50956,1.674294 -1.7471,-1.164728 -3.56698,-0.363976 -2.69343,-1.674294 -1.74707,0.291182 -2.62064,0.291182 -1.52871,-0.0728 -0.29118,1.019138 -1.45589,-0.800751 -1.7471,0.436774 v 2.620635 l -0.21839,0.873543 -1.01915,-0.14559 -0.58234,-0.291182 -0.58238,-0.582363 -1.01912,0.218387 -1.8927,0.291182 -1.31032,-0.436775 2.32947,-0.07279 -0.0728,-1.019136 -2.18385,-0.582364 -2.47504,-1.310317 1.23751,-1.164725 0.21838,-2.839021 1.8927,-2.766227 1.09191,-1.601499 -3.34857,-1.019135 -4.7317,1.601499 7.06115,-3.421385 3.85815,-3.930952 1.31033,-3.421385 -0.29118,-1.601499 -1.81988,1.965476 -2.18387,2.766226 -1.01915,0.291182 1.38311,-1.747091 -0.72795,-0.655159 -1.7471,0.727956 -1.23751,1.310317 -0.36398,-1.747091 4.14935,-1.892681 -0.1456,-1.455907 1.16472,1.019136 1.52871,-0.436772 0.1456,-1.965478 2.40223,-3.057406 0.1456,-3.421386 -1.16472,-1.601499 -0.0728,-1.310317 -0.29121,-1.528704 -2.03827,-0.727954 h -3.78536 l -0.80074,-0.800748 -0.58237,0.14559 -0.21839,0.873546 -3.34859,-1.310318 -2.11106,-1.455909 -1.819883,-2.111068 -1.892671,-2.911816 -4.367741,-2.984611 -0.800735,0.07279 -0.363988,0.509569 3.930968,5.459656 -2.766245,-2.329452 -4.440502,-1.237523 -1.965484,-0.509569 -0.946335,0.582364 0.655161,1.237522 1.019122,0.800749 -1.455896,0.363976 -2.693432,-2.984611 -2.402258,-2.111065 -1.674283,-1.383115 -0.873549,-0.800748 -0.800761,-0.509569 -2.038271,-1.237522 -3.130206,0.07279 -2.183844,1.528705 -0.582374,1.528704 -0.436775,2.620634 0.35986,1.8224 0.149701,2.035757 -1.455896,1.528704 -0.727948,1.819887 -1.965484,2.620634 -0.363987,1.310317 0.946362,1.09193 0.655134,1.965479 0.727975,0.94634 -0.1456,0.873543 -0.509561,0.363977 -0.727948,1.31032 v 1.310317 l 1.237509,1.019135 1.528709,1.019136 0.509561,0.94634 -0.218387,1.383112 1.455923,0.655159 1.310296,1.164727 1.164749,0.800748 1.601496,-0.946337 1.819884,-1.674297 0.655161,0.509569 0.07279,1.747089 1.310322,1.310317 -0.436774,1.601499 v 1.383115 l 0.436774,1.383112 0.800735,0.94634 0.800762,0.291182 v 1.45591 l -0.946335,0.946337 -0.582375,0.946341 -0.873548,1.528704 -0.436774,0.800751 0.363987,0.94634 1.091935,0.800749 0.218388,0.582363 -0.363988,0.655159 -0.873548,-0.436771 -0.655161,-0.145593 -0.582348,1.019136 0.582348,0.80075 -0.727948,0.582364 -1.601497,0.363977 -2.256658,-0.218387 -2.620645,1.164727 -1.601496,0.07279 -1.164722,0.800751 -2.839032,0.946341 -1.528683,1.164725 -1.423697,0.976092 0.209921,1.478735 5.256027,5.121553 0.748347,0.04677 1.028991,-0.561266 2.291848,0.140317 1.73056,0.46772 3.648233,2.057976 1.216078,1.777342 1.028991,1.683797 0.467704,1.122535 1.964452,1.028986 1.73056,-0.23386 1.216078,-0.841899 4.349803,-0.888672 1.262856,0.187089 3.180504,6.127155 2.291847,1.637033 5.752961,1.4967 1.07577,0.8419 0.70157,-0.18708 1.59025,-1.77735 2.29185,-0.70158 2.10473,-0.3274 1.12255,-1.356402 3.64824,-1.637025 0.93543,-0.701582 1.40317,1.777341 1.02899,2.432158 1.44994,0.65481 2.80633,-0.98222 2.10473,-1.07576 0.0936,-0.841898 2.05796,0.608038 2.61924,-1.309621 10.99148,-0.140316 5.5191,-4.583674 h 3.32084 l 0.28062,-1.683797 1.02899,-3.414369 1.87089,-1.496708 3.46115,-0.935445 1.02896,-1.730568 -0.42095,-1.216078 z m -48.75704,-42.10155 -1.23537,-1.750121 -1.23539,-0.308846 -0.30885,0.617691 1.13244,0.926534 1.13242,0.823585 z" />
    <path
       inkscape:connector-curvature="0"
       style="fill:#fffecc;fill-opacity:1;fill-rule:evenodd;stroke:#000000;stroke-width:0.52916664;stroke-linecap:round;stroke-linejoin:round;stroke-miterlimit:4;stroke-dasharray:none;stroke-opacity:1"
       d="m 51.516744,154.07462 0.07281,1.09193 0.727948,0.36398 0.509561,-0.80076 -0.363961,-1.01913 z"
       id="path2267" />
    <path
       inkscape:connector-curvature="0"
       id="path4449"
       style="fill:#fffecc;fill-opacity:1;fill-rule:evenodd;stroke:#000000;stroke-width:0.52916664;stroke-linecap:round;stroke-linejoin:round;stroke-miterlimit:4;stroke-dasharray:none;stroke-opacity:1"
       d="m -233.22083,-5.2541446 2.72816,3.0370066 1.09193,0.2911819 0.21839,1.01913525 2.11106,1.45590946 1.31032,1.96547579 -0.50957,1.7470914 0.65516,2.4750421 1.5287,2.4022499 3.3486,2.6934292 1.4559,0.436774 7.71632,0.218385 3.27579,-1.237523 1.89268,-0.873543 4.87729,-0.145592 2.25666,-1.164725 h 1.89268 l 3.49418,-2.620637 2.62064,-0.072795 6.11481,-2.1110654 2.11107,-1.2375224 -1.23752,1.2375224 1.09193,0.5095663 1.67429,-0.2911819 3.56698,-1.9654758 2.32945,0.3639767 4.07655,2.0382732 3.78535,-0.5823637 4.14934,0.3639767 2.69344,0.4367715 2.76622,0.727956 1.31032,-0.218387 1.38311,-0.8007509 h 3.05741 l 1.5287,1.8198862 1.31032,-0.4367716 1.96547,-1.8926809 4.29494,-0.509569 1.31031,0.1455923 1.31032,1.9654757 -1.81989,-1.8926809 -0.87354,1.5287042 0.80075,1.383112 0.87354,1.0191353 2.47505,0.6551586 2.83902,-0.1455896 h 4.58611 l 2.18386,-0.2183871 -2.83902,-4.8044972 -0.29118,-3.27579299 0.87355,-1.38311201 0.94634,-0.5823638 -1.38312,-1.1647275 -1.09193,-0.3639768 1.38311,-1.0191353 -0.43677,-2.3294551 -0.80075,-1.4559068 -4.6589,-5.3868604 -4.44052,-2.766227 -3.05741,-1.455907 -3.93095,-2.620634 -1.38312,-0.800751 -6.04202,-0.218385 -3.56697,-1.528704 -3.42139,-1.019135 -1.45591,-0.291182 -2.40224,1.601499 -2.40225,-0.800751 -4.00375,0.509569 -1.09193,0.727954 -2.54784,-1.383112 -4.07654,-9.172223 -0.58237,-5.459656 -1.38311,-2.475045 -0.65516,-3.130203 -1.38311,-2.111066 -3.13021,-1.019135 -2.18386,0.582361 -1.89268,1.674297 -2.40225,0.94634 -0.87354,1.674294 -1.38311,2.475045 -1.16473,3.275793 0.65516,2.183863 2.03827,1.965475 -0.58236,4.003747 0.29118,1.310317 1.38311,0.145592 3.2758,-0.94634 5.24126,-0.727954 1.81989,-0.582363 1.74709,-0.363977 1.09193,1.237522 0.65516,2.475042 1.01914,2.256658 -0.80075,1.747091 -1.74709,1.09193 -2.54784,-0.218384 -1.52871,-1.455909 -2.32945,-1.6015 -1.38311,0.655159 0.0728,1.819886 -1.67429,0.218385 -1.09193,-0.218385 -0.58237,0.218385 c 0,0 -0.80075,1.164727 -1.01913,1.528704 -0.21839,0.363977 -1.45591,1.383115 -1.45591,1.383115 l -4.58611,1.019135 -3.34859,1.019135 -1.6015,0.800748 -1.38311,1.019138 -6.62438,0.218385 -5.53246,2.038273 -6.04202,2.5478394 -4.00374,2.6206344 z"
       sodipodi:nodetypes="cccccccccccccccccccccccccccccccccccccccccccccccccccccccccccccccccccccccccccccccccccccccccccccccccccccccccscccccccccc" />
    <path
       inkscape:connector-curvature="0"
       style="fill:#fffecc;fill-opacity:1;fill-rule:evenodd;stroke:#000000;stroke-width:0.52916664;stroke-linecap:round;stroke-linejoin:round;stroke-miterlimit:4;stroke-dasharray:none;stroke-opacity:1"
       d="m -102.66392,59.513373 1.01913,-2.038271 -0.0728,-2.256657 1.5287,1.383112 1.237521,0.873545 0.436774,2.475045 -1.310317,2.620634 -1.819888,1.383112 -0.87354,-0.582363 -0.65516,-1.819884 z"
       id="path2277" />
    <path
       inkscape:connector-curvature="0"
       id="path2265"
       style="fill:#fffecc;fill-opacity:1;fill-rule:evenodd;stroke:#000000;stroke-width:0.52916664;stroke-linecap:round;stroke-linejoin:round;stroke-miterlimit:4;stroke-dasharray:none;stroke-opacity:1"
       d="m -103.75586,157.13202 -1.74709,-0.80075 -2.47504,-1.23752 -2.98461,-0.80075 -2.18386,0.0728 -3.71257,-0.21839 -2.32945,0.58236 -0.43678,1.31032 -3.49418,1.31032 -2.76622,-1.23752 -3.56698,1.89268 -1.23752,-0.50957 -1.38311,0.43677 -2.18386,0.29118 -1.6015,-0.87354 -2.18387,-0.0728 -2.47504,1.09193 -2.32945,0.0728 -1.31032,1.01914 -1.45591,0.0728 -1.74709,-1.31032 -1.89268,0.0728 c 0,0 0,0 -0.94634,-0.58236 -0.94634,-0.58237 -3.42138,-0.14559 -3.42138,-0.14559 l -3.56698,-1.01914 -2.83902,-0.43677 -2.62064,1.38311 -2.25665,2.62064 0.65515,0.72795 -0.58236,0.72795 -1.81988,-0.72795 -1.09194,-2.25666 -3.49418,1.09193 -0.80074,-0.36397 -0.14559,-1.52871 -2.54784,-2.47504 -0.94634,-1.31032 -1.01914,-1.31032 -0.72795,-0.43677 -1.45591,-1.81988 v -1.01914 l -1.23752,-1.74709 -0.94634,-0.29118 -4.22214,-5.31407 0.0728,-0.87354 -1.31032,-1.89268 -0.94634,-0.29118 -4.7317,-5.60525 -0.1456,-1.23752 -1.74708,-1.89268 -3.56698,-0.0728 -3.05741,1.74709 -4.00374,-2.83902 -1.84647,-0.0817 -1.85306,-2.88255 h -1.85307 -5.35331 -4.52973 l -1.85306,2.05897 -2.26487,2.05896 -2.05896,-0.20589 -1.02949,-1.85307 -16.05992,-0.41179 -1.02949,-1.44128 -0.82358,-0.2059 -1.64718,1.44128 h -2.47075 l -2.26486,0.82359 -4.94152,0.20589 -1.64717,-0.82358 -3.29435,-3.91204 -0.41179,-1.02948 -1.02948,-2.67666 1.02948,-2.26486 -2.26486,-2.26486 -5.32764,-0.30366 0.83796,-1.00881 1.6015,-0.0728 2.03827,0.29119 1.96547,-0.58237 1.6015,1.38312 2.47505,1.4559 h 2.25665 l 2.69343,-1.23752 c 0,0 1.33701,-1.99581 1.7779,-2.70196 0.63218,0.0865 2.58983,0.44531 2.58983,0.44531 l 1.74709,1.5287 2.11107,0.58236 1.09193,-0.80075 1.6015,0.65516 2.54784,-0.36398 1.38311,-0.65516 2.47504,0.21839 5.31407,0.80075 1.96547,1.6743 2.69344,0.14559 4.95008,2.03827 2.25666,-0.65516 4.07654,1.01913 1.7471,0.29119 1.81988,-1.38312 2.11107,-0.0728 2.47504,-2.11107 1.23752,-0.80075 2.62064,-0.65516 0.72795,-1.09193 1.89268,-4.58611 1.45591,-0.21838 1.6015,0.21838 1.6743,-0.50957 3.1302,-2.83902 1.96547,-1.01913 2.47505,0.29118 1.6015,-1.52871 1.31031,-0.94634 4.58612,-0.72795 3.49418,-2.547839 4.14933,-2.984614 2.69343,-1.819884 4.51332,-0.218387 2.62063,-0.363976 2.62064,0.800748 0.94634,1.601499 1.38311,0.727956 h 1.01914 l 1.89268,-0.509569 1.81989,1.892681 0.94634,1.164728 4.36772,0.363976 1.67429,-0.655158 2.98462,0.07279 2.91181,-1.091932 1.52871,0.363979 2.83902,0.363977 1.74709,0.873543 h 1.5287 l 2.03827,-1.09193 1.01914,0.145589 1.31031,-1.019135 3.85816,2.111068 5.82364,-0.291182 2.62063,0.291182 2.11107,-1.019135 h 2.47504 l 1.89268,-1.310317 1.81989,-0.218387 1.74709,1.747088 1.67429,0.218387 2.40225,0.291182 2.620635,1.091932 1.601499,1.16473 2.766227,1.89268 h 5.022884 l 3.421383,0.80075 2.54784,0.43677 3.057408,1.09193 2.911816,1.01914 2.183863,-1.09193 v -1.52871 l 2.329453,-0.43677 0.94634,-0.58236 0.363977,-0.87355 1.237522,1.23753 0.582364,0.80075 1.819886,1.09193 2.475042,-0.21839 0.582364,1.6743 0.396021,0.77982 -1.487951,0.74888 -2.40225,1.74709 -2.183863,3.63977 -2.111065,2.40225 -0.946341,2.25666 -2.620634,1.01913 -2.620637,0.29118 -2.18386,1.38312 -2.329455,2.32945 -2.54784,-0.14559 -3.712565,0.87354 -1.383114,1.52871 -0.218385,2.69343 -1.237522,2.18386 0.655159,-1.16473 2.03827,0.0728 1.091933,2.32945 -0.582364,3.56698 0.291182,2.40225 -1.965476,2.11106 -1.892681,5.53245 v 3.13021 l -1.455909,1.45591 -2.766227,0.80074 -0.509566,2.18387 -2.693433,1.81988 -2.00928,1.80836 z"
       sodipodi:nodetypes="ccccccccccccccccccccccsccccccccccccccccccccccccccccccccccccccccccccccccccccccccccccccccccccccccccccccccccccccccccccccccccccccccccccccccccccccccccccccccccccccccccccccccccccccccccccccccccccccccccccc" />
    <path
       inkscape:connector-curvature="0"
       id="path2291"
       style="fill:#fffecc;fill-opacity:1;fill-rule:evenodd;stroke:#000000;stroke-width:0.52916664;stroke-linecap:round;stroke-linejoin:round;stroke-miterlimit:4;stroke-dasharray:none;stroke-opacity:1"
       d="m 128.20088,193.94573 5.57469,-0.27043 1.6015,-1.52871 h 3.42138 l 0.87354,-1.4559 3.63977,0.21839 0.50959,3.05739 3.71255,3.78537 0.1456,1.81988 -1.31032,1.23754 -0.36399,8.15308 -1.09193,0.43677 -0.36396,1.67429 -0.80077,1.60149 -1.09193,0.94637 -0.87352,0.50956 0.0728,3.20299 0.94634,0.65516 8.00751,-0.0728 0.80073,1.52869 5.02288,0.0728 1.31032,1.23751 -0.14557,7.57073 0.50956,0.94634 2.76622,0.1456 -0.0728,4.00373 1.09194,1.31032 0.21838,6.4788 -2.76624,0.14557 -0.72795,4.29496 -2.54783,0.0728 -1.31032,1.4559 -2.11106,0.65516 -1.7471,1.81989 0.58235,2.18387 2.98463,0.1456 -1.31032,4.22211 0.94634,1.45592 -1.31033,1.67429 -0.72795,2.76622 -1.01912,1.38313 -1.67431,2.69343 0.0728,3.78534 -0.0728,4.29493 -1.16472,1.67431 -0.29117,1.96549 0.14557,2.03827 1.09194,1.81988 0.21838,3.20299 c 0,0 0.36399,1.09194 0.43678,1.38311 0.0728,0.29118 1.45592,1.67429 1.45592,1.67429 l 1.6015,1.45592 -0.58238,1.96548 -1.81988,0.36396 1.89267,2.32945 3.05742,2.32947 1.89267,0.29117 -0.14558,15.14145 2.69344,0.94633 1.0919,2.40226 3.13021,2.62064 3.20302,0.80074 6.11481,5.75085 1.23751,1.01912 4.95009,0.1456 1.81988,1.67429 2.98461,0.1456 0.1456,2.76621 3.93094,1.81989 2.98463,0.94636 0.14558,1.09191 1.60149,1.16475 1.52871,0.58234 0.80076,0.50957 0.87355,-0.29118 0.29118,-1.74709 0.0728,-9.90018 1.38311,-2.18385 1.8927,-1.01915 -0.36399,-0.80073 2.62065,-2.54786 -0.36399,-0.94633 2.69343,-3.78537 -0.36398,-9.53619 1.45592,-1.4559 0.29117,-2.25666 2.03827,-1.74709 2.25666,-0.43678 1.7471,-1.38311 v -0.94633 -4.14936 l -1.31033,-0.87355 -0.0728,-2.03827 1.60149,-1.23751 V 280.957 l 2.54784,-1.96548 0.94633,-1.4559 -0.0728,-3.93097 -1.81988,-1.16472 -0.0728,-5.53244 -0.2912,-1.09193 -2.40223,-0.72795 -0.43677,-3.34859 1.81988,-1.96549 -0.0728,-4.5861 -1.45592,-1.96548 -0.29117,-4.65892 -1.52871,-1.96546 -0.58235,-2.18387 -0.87355,-1.01912 -0.21839,-4.8773 -1.31032,-1.52871 -0.43677,-3.05739 -2.03827,-1.96549 -0.94634,-1.60149 1.01912,-1.31033 0.80077,-1.60149 -0.1456,-11.13772 -4.44053,-3.05739 -4.65889,-5.45965 -2.98461,-1.8927 -0.72797,-0.43677 0.0728,-4.65889 -1.31032,-1.45592 -0.43678,-1.96546 1.23751,-1.8927 0.72798,-3.1302 -0.21839,-2.83901 -1.38311,-1.16472 -0.87355,-2.11109 0.80074,-1.52868 4.14935,-0.2912 3.13018,-3.63977 0.36399,-12.15681 0.72795,-2.03827 0.94636,-1.31032 -0.1456,-12.7392 -1.67431,-1.96547 0.1456,-10.26416 1.6015,-1.38311 -0.21839,-1.89268 1.81988,-1.38311 -0.14557,-1.96548 1.67428,-0.80075 0.1456,-1.96547 -0.2912,-12.01125 -1.52868,-1.01913 0.0728,-4.00375 -1.81989,-3.2758 -9.39062,-9.68179 -6.04202,-4.950085 -5.24126,-7.279539 -5.09567,-4.513318 -6.69718,-3.057406 -2.54784,-2.620635 -5.53246,-0.145592 -1.6015,1.528704 -2.53219,2.001587 0.56671,0.983024 0.43677,1.091933 -1.16472,1.601499 c 0,0 -3.1302,0.800749 -3.42138,0.946341 -0.29117,0.145589 -1.89267,1.601499 -1.89267,1.601499 l -1.09193,3.63977 -0.21839,1.455909 -3.20299,-0.0728 -1.7471,1.383114 -2.11108,1.892681 -1.70982,1.347602 -0.98362,1.637009 -2.54783,0.800753 -2.69343,-0.363981 -2.11106,0.145592 -1.23753,1.892689 0.0728,2.40224 -0.65516,2.69343 -2.25666,1.38312 -2.11108,0.58236 -0.36396,1.16473 0.65516,2.03827 1.60149,1.01913 2.25666,2.25666 0.58235,1.23752 -1.23751,1.96548 -0.72795,0.72795 1.89267,2.32946 2.18387,0.72795 2.11106,-1.45591 2.98461,0.58237 2.47504,1.89268 1.6015,1.01913 -2.47505,3.49418 -1.81988,1.89268 -1.81988,0.43678 -1.6015,1.6015 -2.03827,1.74708 -3.56698,0.0728 -2.11106,2.76623 -2.03827,-0.58237 -2.25666,-0.65516 -1.01914,0.21839 -1.09191,-0.80075 -1.45593,0.72795 0.0728,1.23753 -1.96546,0.58236 -2.69343,0.14559 -1.7471,-0.43677 -1.67428,0.21838 -1.52871,-1.5287 -0.29117,0.29118 0.29117,1.6015 1.31032,1.6015 0.72795,2.18386 -0.58237,2.03827 1.45592,2.69344 0.21839,2.18386 -0.36399,1.74709 0.36399,2.62063 0.80073,2.25666 -1.89267,2.83902 c 0,0 -1.89267,1.16473 -2.18387,1.16473 -0.29117,0 -1.31032,1.01913 -1.31032,1.01913 l -0.65514,1.96548 -2.18387,0.87355 -1.23753,1.38311 -0.58235,0.21838 z"
       sodipodi:nodetypes="cccccccccccccccccccccccccccccccccccccccccccccccccscccccccccccccccccccccccccccccccccccccccccccccccccccccccccccccccccccccccccccccccccccccccccccccccccccccccccccccccsccccccccccccccccccccccccccccccccccccccccccccccccccccccccccscccccc" />
    <path
       inkscape:connector-curvature="0"
       id="path2235"
       style="fill:#fffecc;fill-opacity:1;fill-rule:evenodd;stroke:#000000;stroke-width:0.52916664;stroke-linecap:round;stroke-linejoin:round;stroke-miterlimit:4;stroke-dasharray:none;stroke-opacity:1"
       d="m 14.140565,24.286613 -0.194945,1.274451 -1.235393,0.102946 -1.441264,0.411795 -0.308848,0.720638 0.205898,1.647171 0.205899,1.338326 1.647164,-0.102946 0.926544,2.161913 1.029467,1.235379 -0.61767,3.191396 4.735619,6.588689 -4.735619,4.014983 -0.102949,1.853067 1.441265,2.367809 1.441265,2.882554 3.603201,-1.235379 4.014973,2.264859 3.500252,2.779604 4.117922,3.397293 2.882556,2.161913 1.441265,4.941517 2.058987,1.235379 5.662137,-0.720638 3.088454,-0.308845 1.235366,0.411795 -0.720619,1.235379 -1.750139,0.514741 -0.926518,0.205897 0.308848,2.573705 0.926518,2.161913 2.882556,1.132432 4.632669,1.338326 3.191404,1.338329 0.926544,1.853068 -1.338342,0.514741 -1.132416,-0.514741 -1.029494,1.441275 -2.573708,2.470758 -2.26486,-0.720637 -2.779606,-0.514742 -1.750113,-0.617688 -1.235393,-0.720638 -2.470758,1.13243 -1.544214,-0.926534 -1.956012,2.264863 -2.16191,0.102946 0.411797,1.029484 -2.882556,1.338328 -1.132443,1.029481 -2.367809,0.823587 -2.985505,0.720637 -1.956012,-1.029483 -3.603175,1.750121 -1.235393,0.308846 -1.956011,2.470758 -1.544214,2.161913 -2.676658,1.338329 -2.779606,0.411792 -3.8091007,-3.294346 -2.7796066,-1.853067 -2.3678092,1.13243 -1.54421413,1.956017 -1.23536602,0.823587 -1.23539245,-1.029483 -1.9560117,-0.205897 -2.6766572,1.338326 -1.1324431,2.573708 1.1324431,2.161917 2.1619104,0.61769 0.2058987,1.33832 -1.7501129,0.82359 -3.5002522,0.10295 -2.16191,1.23538 -2.058961,1.44127 -2.36781,0.51474 -1.956011,-0.20589 -2.882556,-1.75012 -1.853063,-2.05897 -6.07396,-1.64717 -4.014972,-1.647173 -1.64719,0.102949 -1.956012,-1.029483 -1.029467,0.205896 -0.823595,-1.647171 1.132416,-2.470759 2.676658,-3.706137 0.205898,-1.544225 3.191405,-3.294343 1.647163,-2.573708 1.235393,-1.02948 2.058961,-6.691638 -0.10295,-1.750121 -0.617696,-1.956017 0.926544,-2.058966 1.647164,-0.411792 h 1.853062 l 1.441291,-0.205897 2.26486,0.411793 0.926545,0.823587 2.058961,0.205896 2.367809,-5.147413 -0.205899,-0.617689 -5.559213,-3.603191 -1.029468,-0.617688 v -1.956017 l -1.338341,-1.85307 -3.706125,-1.13243 h -1.441291 l -2.882556,-2.676655 -1.235366,-2.058966 -1.029494,-1.338326 v -1.441275 l 1.750139,-0.308846 1.956012,-1.647171 -0.308848,-1.029483 -1.441291,-1.338329 -2.058961,-0.102947 -4.220872,-3.500241 -0.411797,-0.411793 -0.720619,1.338326 -1.132444,0.205896 -4.117922,0.205899 -0.720645,-0.823587 -0.205899,-1.750121 -1.544214,-0.514741 0.720619,-3.500239 -0.205899,-1.750121 -1.029467,-2.058966 0.102949,-1.853068 0.205899,-1.338329 2.161911,0.10295 2.470758,-1.132433 1.441265,-2.161913 1.441291,-0.720637 1.441265,-1.13243 0.275775,-0.629687 9.406969,1.814602 2.038271,1.09193 2.183871,-0.800748 2.839032,-0.509569 3.494167,0.582364 3.057419,-0.509569 0.727948,-0.873543 0.509561,-2.475045 2.6206448,-1.528704 5.4140364,-0.391441 1.7140767,1.758651 1.0294937,2.264863 2.7796066,0.308842 1.5442142,1.029484 2.6766572,0.102949 2.6766573,-1.132433 3.7061241,-0.617688 z"
       sodipodi:nodetypes="ccccccccccccccccccccccccccccccccccccccccccccccccccccccccccccccccccccccccccccccccccccccccccccccccccccccccccccccccccccccccccccccccccccccccccccccccccccccccccc" />
    <path
       inkscape:connector-curvature="0"
       id="path2261"
       style="fill:#fffecc;fill-opacity:1;fill-rule:evenodd;stroke:#000000;stroke-width:0.52916664;stroke-linecap:round;stroke-linejoin:round;stroke-miterlimit:4;stroke-dasharray:none;stroke-opacity:1"
       d="m 58.141143,81.279201 h 0.07279 l 0.436774,-0.363976 1.455896,-1.237523 1.965484,-1.747088 2.111084,-1.019136 3.13018,-0.07279 0.800761,-0.655162 1.819884,-1.164725 1.819883,-0.582363 0.1456,-0.946341 0.873549,-1.383112 1.965457,-1.091933 1.528709,-1.09193 1.455923,-0.727953 1.237509,-2.54784 v -1.383114 l -0.873548,-1.455907 -0.416481,-2.215349 0.720619,-2.573707 -1.544214,-0.514742 -1.750113,0.926534 -1.441291,-0.411792 -1.853062,-0.205897 -1.338315,0.411793 -0.308849,-0.823585 -1.64719,0.205896 0.205899,-1.338328 v -1.853068 l -0.823568,-0.205896 0.308848,-0.617691 0.411771,-0.926534 -1.338316,-1.029483 -1.235392,-0.720637 -0.308822,-1.13243 c 0,0 0.61767,-1.544225 0.720619,-1.956017 0.10295,-0.411795 0.411798,-0.617691 0.411798,-0.617691 l -0.926544,-1.235379 0.720645,-0.926534 -0.514747,-1.029483 -1.029467,-1.13243 -0.823595,-2.367809 0.720646,-0.617691 1.441264,-1.13243 2.058961,-3.191396 0.197115,-2.381885 -1.319133,-2.853095 -1.52871,-1.601499 -0.582374,-0.509566 v -2.40225 l -1.601496,-4.294929 -0.145574,-0.94634 -2.766245,-2.038273 -1.38311,0.145592 -0.436774,1.455907 -0.09094,0.845214 -0.637567,2.845022 h -4.117948 l -1.029467,1.235379 -1.029494,-0.926536 -1.647164,0.205899 -1.441291,-0.823588 -2.16191,-0.308845 -1.853063,-1.853068 -2.985505,-1.544224 -3.088428,-0.10295 -2.985506,-0.720637 -1.338341,-1.23538 -1.853063,-0.308842 -1.647163,-1.956017 -1.544241,0.308842 -2.985479,2.470759 -1.750139,0.102949 -3.294327,0.205896 -1.853089,2.882551 -3.294327,1.132433 -2.170986,0.737174 -0.183224,1.158719 -1.289843,0.132291 -1.422136,0.429948 -0.264583,0.694532 0.396875,2.976562 1.653646,-0.03307 0.926041,2.116667 0.992188,1.289843 -0.595313,3.108857 4.729428,6.647656 -4.597136,3.935677 -0.198437,1.91823 1.422135,2.348177 1.422135,2.84427 3.588412,-1.207164 4.018359,2.265495 10.517188,8.400523 1.488281,4.960938 1.984375,1.190625 8.797395,-1.058333 1.190625,0.396875 -0.628385,1.223697 -2.778125,0.79375 0.297656,2.612761 0.992188,2.116666 7.573698,2.480469 3.108854,1.256771 z"
       sodipodi:nodetypes="cccccccccccccccccccccccccccccccccccsccccccccccccccccccccccccccccccccccccccccc" />
    <path
       inkscape:connector-curvature="0"
       style="fill:#fffecc;fill-opacity:1;fill-rule:evenodd;stroke:#000000;stroke-width:0.52916664;stroke-linecap:round;stroke-linejoin:round;stroke-miterlimit:4;stroke-dasharray:none;stroke-opacity:1"
       d="m -8.2524981,223.4551 0.440981,-2.99108 -0.6551612,-5.53247 -0.7279482,-2.69343 -2.6206185,-0.58235 -2.183871,0.21839 -4.513315,-1.45592 -2.547832,-3.13021 -3.639793,-5.53244 -2.693406,-4.95009 -0.582374,-3.78536 -2.111057,-2.47505 -0.145601,-1.52871 1.019122,-1.52868 3.348593,0.0728 1.38311,-1.01915 -0.363961,-2.11106 -1.601496,-1.16472 -0.436775,-1.16472 1.601497,-0.80074 0.218387,-1.23753 -1.237536,-1.16473 -1.383109,-1.31031 -1.601497,-1.81988 0.145601,-1.6015 1.310322,-0.94634 -0.727974,-1.5287 -3.639767,-0.58237 -2.547832,0.0728 -2.038271,0.65516 -1.237535,1.6015 -1.892671,1.01913 -1.164722,-1.01913 -1.310322,-1.81989 -0.218387,-1.89268 0.509561,-2.76623 0.873548,-2.69343 0.655161,-2.32945 -0.436774,-2.25666 -2.038271,-0.72795 -3.202993,0.29118 -2.03827,0.72795 -1.310323,2.54784 -3.057392,5.53246 -1.67431,2.32945 -2.183844,0.72795 -1.747097,-0.0728 -1.819886,0.87354 -1.747089,0.87355 -1.747091,-0.0728 -0.727954,-1.45591 -0.291182,-3.49418 -0.436774,-0.80075 -1.455907,-0.29118 -1.892681,1.31032 -3.275793,3.56698 -2.620634,1.5287 -2.475045,0.50957 -3.421385,0.29118 -4.003746,0.0728 -1.747092,0.65516 -2.03827,0.72796 -1.528705,0.58236 -0.800748,-1.6015 -2.40225,-0.0728 -2.475044,-0.14559 -0.436772,-2.25666 1.528704,-3.49418 0.727954,-3.203 -1.019136,-3.85816 -2.329452,-1.01913 -2.329455,-0.72796 -2.038266,0.65516 -0.94635,-0.65516 -0.72795,-1.01913 -0.66999,-0.74449 -0.78592,1.47244 1.01914,2.32945 1.01913,0.43678 0.0728,1.6015 v 0.87354 l -1.81989,0.65516 -0.21838,0.87354 -1.96548,1.6015 -2.40225,3.78536 -0.72795,2.03828 -0.0728,2.03827 -0.14559,5.24126 -0.94634,1.60149 -3.34859,2.03827 -2.32945,1.89267 -0.58236,1.23754 0.36397,2.25666 -0.21838,3.71255 0.58236,1.45592 1.01914,-0.36398 0.50956,-0.94634 -0.29118,2.03827 -1.01913,1.89267 -0.14559,2.03827 -0.29119,2.32947 0.29119,2.83901 -0.65516,3.63977 -0.94634,2.18387 v 2.62064 l 1.67429,3.27578 1.16473,2.98461 -0.80075,3.20302 0.14559,2.03827 0.94634,1.89267 1.23752,1.45589 2.18386,1.7471 0.87355,1.09194 1.16473,0.43677 -2.32946,0.65516 0.0728,1.7471 1.16472,2.54783 1.38312,3.78537 0.65515,0.87355 2.83903,-0.1456 1.23752,0.65516 1.01913,2.18384 -0.0728,2.98463 2.03827,2.54783 0.873545,0.94634 h 1.383115 l 1.09193,2.40226 -4.29493,4.65891 -0.0728,1.3103 -1.74708,0.21839 -5.82364,5.0229 -7.9347,7.13393 -0.14559,1.23754 1.23752,-0.1456 2.40225,-0.21839 0.50957,-0.43677 1.09193,1.09193 3.85816,0.29118 0.43677,1.01915 0.29118,2.69343 0.65516,0.72795 1.81989,-0.50957 3.20299,2.83901 2.038275,2.03827 4.076544,3.56698 1.892681,1.8927 0.727954,1.01912 -1.164725,1.89267 v 2.11108 l 1.237519,2.62062 0.218387,0.80076 1.237523,0.43678 0.07279,2.25666 -0.218385,1.67428 0.436772,1.01915 1.383112,1.60149 0.873545,3.71256 1.528705,4.36774 1.383112,2.18384 0.509569,5.09569 0.436771,2.03827 1.601499,1.31033 -0.07279,2.69343 0.800749,1.52871 1.674296,1.45589 2.329453,1.81989 14.12231,12.6664 2.111068,0.0728 1.455906,-0.58238 1.965476,1.09194 1.965481,-0.36399 1.455897,-1.31032 2.402257,-0.29117 1.38311,-1.7471 2.256657,-2.47505 4.877277,-2.40223 4.513315,-0.1456 2.329471,1.09194 1.091935,1.96548 0.218387,3.13021 -1.601522,2.03827 -0.800735,1.31029 0.07279,1.01915 1.455923,0.94634 2.620619,-1.01912 1.019148,-2.98464 0.946335,-2.40223 2.111058,-2.83903 1.601496,0.0728 1.310323,0.50959 1.601496,-0.50959 0.873549,-5.38684 1.019148,-1.31032 2.183844,-0.65516 1.67431,-0.0728 2.402258,-2.11108 1.74707,-0.43678 2.256658,-2.40223 1.747097,0.29117 1.164722,1.16473 1.091935,0.1456 3.9309413,-2.76625 1.5287095,-2.6934 4.73170246,-3.20302 2.03827064,-0.36396 1.2375356,0.36396 0.2911739,1.52871 1.0919354,-0.21839 6.2604122,-4.80449 1.091909,-2.91182 0.1456,-6.26041 1.383109,-2.69343 2.620645,-1.01912 3.348593,-0.50959 2.693432,0.21838 3.785341,-2.62061 2.693432,-2.18387 4.513315,-0.43678 1.455923,-0.65516 0.218387,-2.11106 1.019122,-0.94633 v -1.96549 l -0.291174,-0.87354 v -1.23751 l -1.164722,-1.09194 -5.022877,-0.1456 -3.56698,-0.1456 -4.586128,0.50959 -3.13018,-0.43678 -1.601523,-1.01914 -3.130179,-0.29118 -1.091936,-0.94633 v -1.67431 l 1.455896,-2.40224 0.436775,-2.91181 -1.091936,-4.44053 -2.766219,-4.14933 -1.7470962,-2.76625 -1.6742833,-1.74707 -1.0191485,-1.60149 0.2912004,-5.75085 -0.6551613,-2.18387 0.2183871,-3.42138 1.3831094,-1.81989 -0.072787,-1.96548 -1.3103225,-2.03827 -2.4750447,-2.62062 -6.1148118,-3.05742 -4.0037544,-4.80449 -2.2566576,-2.54783 -1.3103226,-2.76625 -0.509561,-1.16472 -2.693432,-1.67428 -0.363987,-2.40226 0.800761,-1.23751 1.674284,-0.43677 z"
       id="path6441" />
    <path
       inkscape:connector-curvature="0"
       id="path8255"
       style="fill:#fffecc;fill-opacity:1;fill-rule:evenodd;stroke:#000000;stroke-width:0.52916664;stroke-linecap:round;stroke-linejoin:round;stroke-miterlimit:4;stroke-dasharray:none;stroke-opacity:1"
       d="m -45.043736,29.678994 -0.411798,-0.10295 -1.338315,-0.617688 -1.544241,-0.617691 -2.264859,0.205899 -1.956012,0.514739 h -2.676657 l -1.647164,-0.823585 -1.853062,0.102947 -1.956025,0.308845 -1.647174,-0.411792 -2.573705,-0.514741 -0.720638,-0.720638 -0.823587,-1.029483 h -1.441275 l -1.647172,0.617691 -2.9855,1.853067 -2.544755,-0.131177 -0.07158,3.247498 0.582364,1.164728 -0.436774,1.455906 -0.800748,1.819887 -1.019135,0.800748 0.800748,0.94634 2.111068,2.329455 -0.218387,1.310318 -0.800748,2.256657 0.582361,1.528705 0.582363,0.07279 -1.237522,3.421383 -0.94634,0.436774 v 0.946341 l -0.800749,0.873543 h -1.601499 l -2.40225,-1.310318 -1.455906,-0.436771 -1.45591,-0.800748 -1.528704,-0.436774 -2.402248,-1.019136 -1.019135,-1.601499 1.237523,-1.528704 H -85.557 l 1.383115,-1.383112 0.363976,-1.237523 0.291182,-1.164727 -1.091932,-1.455907 -1.819884,-0.363977 -0.0728,-1.019138 -1.747089,-0.873543 -1.747091,-1.383114 -2.183861,-1.455907 -1.455909,-2.40225 -3.421385,-0.14559 -3.275792,-0.80075 -1.74709,-1.091931 -2.11107,0.14559 -1.47929,0.624038 -0.0494,1.705417 -1.31032,0.07279 -1.01913,0.800748 -1.6015,0.509569 -1.16473,1.237523 -0.94634,-0.145593 -1.09193,-1.528701 -1.6015,-1.383115 -0.94634,-0.363977 -1.06068,1.728187 2.80777,3.949856 0.65516,2.038271 -2.03828,1.747091 -1.4559,0.873546 -2.69343,0.727953 -0.58237,1.965476 -0.50956,1.528704 1.01913,2.183863 0.50957,1.819884 -0.58236,1.819886 1.01913,1.237522 1.01914,2.329453 0.0728,2.911816 0.50957,3.421385 -1.96547,2.54784 -1.52871,1.310317 -1.09193,2.183863 -1.31032,3.057406 0.29118,2.183863 0.36398,3.639772 -0.98116,2.814659 0.61718,0.752316 -0.0728,2.547839 1.81988,0.218385 2.32946,0.873546 3.20299,3.566974 1.89269,1.819887 1.38311,0.145589 2.03827,1.310317 v 2.54784 l 1.16473,2.111068 0.65779,2.037699 1.23489,1.456481 2.25665,1.019135 3.85816,0.509569 1.747093,1.601502 1.237522,0.14559 1.383112,1.74709 3.858157,0.43677 2.40225,-0.29118 11.356083,3.42138 1.601499,-1.16473 -0.07279,-1.81988 3.057409,-0.29118 1.23752,-1.31032 1.351817,1.14925 2.287955,1.83536 1.601499,-0.0728 1.050433,-0.0464 1.876901,2.66993 1.585982,0.5795 2.111065,-0.72796 1.819886,-2.18386 2.475034,0.80075 2.766219,0.29118 3.275806,-0.58236 2.038271,-2.11107 2.183871,-2.83902 2.475044,-1.091932 3.785341,-0.94634 3.56698,1.601502 1.455923,0.0728 1.74707,-0.509565 0.05032,-0.03753 -0.935434,0.09354 -2.057982,-1.028977 -0.982213,0.04677 -0.701596,-1.73057 0.982239,-2.525697 2.712773,-3.461139 0.233865,-1.590254 3.133725,-3.320825 1.730587,-2.572467 1.216078,-1.122532 2.046975,-6.503138 -0.132291,-1.802474 -0.595313,-1.918232 0.909505,-2.116666 1.63711,-0.380339 1.885156,0.06615 1.339453,-0.231511 2.348177,0.429948 0.975651,0.79375 2.017448,0.132292 2.348177,-5.04362 -0.264583,-0.727604 -6.531901,-4.084505 0.05789,-0.835091 -0.611849,-1.86862 -0.744141,-1.132747 -3.679375,-1.15755 -1.554427,-0.03307 -2.94349,-2.745052 -1.091406,-1.951302 -1.058333,-1.422135 0.06615,-1.35599 1.785937,-0.363802 1.785938,-1.653646 -0.33073,-1.124479 -1.355989,-1.256771 -2.215886,-0.132291 -4.464843,-3.836459 -0.760677,1.389063 -5.32474,0.330729 -0.595312,-0.760677 -0.198438,-1.785938 -1.5875,-0.46302 0.727604,-3.638021 -0.09922,-1.620576 -1.157553,-2.149739 z"
       sodipodi:nodetypes="cccccccccccccccccccccccccccccccccccccccccccccccccccccccccccccccccccccccccccccccccccccccccccccccccccccccccccccccccccccccccccccccccccccccccccccccccccccccccccccccccccccccccccccccccc" />
    <path
       inkscape:connector-curvature="0"
       id="path5443"
       style="fill:#fffecc;fill-opacity:1;fill-rule:evenodd;stroke:#000000;stroke-width:0.52916664;stroke-linecap:round;stroke-linejoin:round;stroke-miterlimit:4;stroke-dasharray:none;stroke-opacity:1"
       d="m -232.82212,58.348648 -0.1456,-1.237522 -1.74708,0.94634 -3.49418,0.727953 -3.203,1.019136 -3.05741,-0.07279 -2.25666,-0.291182 -2.03827,-2.183863 0.43677,-1.965476 -0.65516,-1.601499 -1.67429,-0.363976 1.6015,-1.45591 1.38311,-0.436771 -0.0728,-1.091931 -1.01914,-1.601499 -1.96548,-0.94634 -1.67429,-1.747091 -1.96548,-1.383112 -1.16472,0.655158 -0.50957,-1.455909 v -3.348588 l -0.21839,-1.237522 -2.40225,-1.6015 -2.32945,-3.785362 1.23752,-2.183862 3.93096,-5.605246 0.21838,-1.892681 3.2758,-1.965476 1.89268,-3.49418 1.5287,-3.34859 3.42138,-2.402247 1.38312,-0.800751 0.29118,-2.9118166 0.87354,-0.5823611 0.14559,-1.7470914 0.50957,-0.8735456 V 3.3881101 l -2.69343,-2.76622668 -1.16473,-2.69342922 -0.29118,-2.2566577 -1.01913,-1.7470913 -1.74709,-0.4367715 -1.6015,-0.2911819 -1.67429,-2.6206344 1.81988,2.0382706 2.32945,0.509569 1.89268,-0.072795 1.6015,1.0191353 1.01914,-0.5823638 -0.14559,-0.8735457 -3.49418,-1.6742939 -3.13021,-3.2029979 -2.11106,-3.34859 -1.38312,-3.712565 -0.80074,-4.513315 1.31031,-2.620635 0.65516,-0.94634 2.62064,-1.019138 1.81988,-0.436772 2.98461,-0.436771 2.25666,-0.436774 2.76623,-0.436772 3.49418,-0.800751 3.34859,-2.256657 0.21838,-1.528702 -1.31031,-0.873546 -2.69343,1.310317 -1.23753,0.873546 -1.09193,0.582364 -2.76622,0.363977 -3.34859,0.94634 -1.38312,-0.218387 -1.74709,0.800748 -0.87354,0.582364 -2.03827,0.291182 -5.53245,2.693432 -5.45966,8.735449 -1.31032,3.130203 -1.74709,2.475042 -0.87354,1.674297 -5.82364,0.94634 -1.31031,1.3831119 -1.23752,2.9118163 -2.69344,3.0574085 -2.18386,2.40224733 -0.87354,2.98461107 -0.14559,1.1647276 -2.98461,3.5669749 -1.45591,2.9846134 -1.52871,2.839019 -0.65516,4.877295 -0.21838,4.513315 -0.0728,1.455907 -0.80075,1.019138 -1.09193,2.693429 -0.29118,2.69343 0.65516,1.819886 -0.0728,1.455909 -1.5287,1.674294 -1.38311,2.54784 -0.94634,2.475044 -0.43678,1.747089 -3.0574,2.256658 -1.52871,2.111068 -1.6015,2.620634 -0.14559,1.892681 -2.25666,2.54784 -1.16472,1.09193 0.72795,1.455909 0.80075,-0.145592 0.80075,-0.94634 4.44052,-0.291182 5.09568,-3.712565 1.6743,0.291182 0.65515,2.839022 0.43678,2.18386 -0.21839,0.509569 1.31032,0.727953 1.16472,-0.509566 1.81989,-0.727956 1.74709,0.655158 1.74709,6.405999 1.01914,4.003747 1.09193,5.314066 0.65516,1.237522 7.16995,8.608656 2.65743,-1.91148 0.49792,-1.770388 0.15723,-0.559065 2.62064,-0.727953 1.5287,-0.727953 1.38312,0.218384 0.80075,-0.655159 h 1.45591 l 1.23752,-1.09193 0.43677,-0.800751 1.45591,-0.873543 0.72795,1.455907 0.43677,1.019136 1.52871,-1.019136 1.74709,-0.07279 1.81988,-1.528704 1.09193,1.237523 1.45591,0.436771 1.16473,-0.291182 0.65516,-2.547839 3.42138,-2.475043 2.40225,-2.111068 2.98461,-2.03827 2.03828,-1.965476 2.25665,-1.819886 1.23753,-1.019135 0.43677,-0.800751 z m 7.16524,-8.28584 1.42462,0.496729 1.89268,0.436774 1.23752,1.674294 1.01913,2.329452 0.0728,1.45591 -1.81989,0.873546 -2.25666,0.946337 -1.38311,0.36398 -1.38311,-1.892681 -1.5287,-0.800751 -2.05902,-1.435161 1.11268,-1.622245 0.94634,-1.528704 2.47504,-0.800751 z m 9.78279,-37.694438 1.10523,2.011847 0.21838,1.965475 1.6015,0.873546 0.43678,0.509569 -0.80075,0.873543 0.0728,1.528704 -1.09193,1.091933 -1.6015,1.237522 -2.47504,1.164725 -1.6743,1.45591 v 1.164725 l 4.14934,3.421385 1.45591,0.727953 1.27014,0.223663 0.98652,1.741813 0.65516,2.183863 -1.09193,1.383115 -1.52871,0.07279 -0.94634,1.455906 -0.94634,2.183863 -1.74709,1.528704 -3.63977,-0.218387 -3.39536,-0.447145 0.62914,-3.702193 -1.31032,-1.892681 -0.29118,-2.402248 -2.32946,-3.34859 -2.11106,-0.655159 -0.21839,-1.164724 -1.23752,-3.566975 -3.05741,-3.566978 -2.18386,-3.275793 -1.52871,-2.475045 -0.21838,-1.528701 0.94634,-1.747092 -3.203,-2.7662236 -0.0728,-1.1647276 1.16473,-0.8007508 -0.58236,-1.0919301 0.14559,-1.383112 -0.65516,-2.1838629 -0.80075,-1.01913531 0.80075,-0.72795605 h 3.34859 v -0.50956633 l 0.29118,-1.31031721 0.87355,-1.3103172 -1.01914,-0.4367741 -0.58236,-1.0191353 1.81988,-0.6551586 1.09193,0.8735456 -0.0728,2.1110655 1.38311,-0.1455897 0.21839,-0.3639767 -0.29118,-0.9463405 0.54842,-1.6052826 2.88783,3.0312333 1.12253,0.327406 0.18709,1.07575881 2.0112,1.30962134 1.30962,1.96443065 -0.46772,1.7305708 0.65481,2.4321505 1.54348,2.5256993 3.18051,2.4789238 1.40316,0.561266 z"
       sodipodi:nodetypes="cccccccccccccccccccccccccccccccccccccccccccccccccccccccccccccccccccccccccccccccccccccccccccccccccccccccccccccccccccccccccccccccccccccccccccccccccccccccccccccccccccccccccccccccccccccccccccccccccccccccccccccccccccccccccccccccccccccccccccccc" />
    <path
       inkscape:connector-curvature="0"
       id="path9246"
       style="fill:#fffecc;fill-opacity:1;fill-rule:evenodd;stroke:#000000;stroke-width:0.52916664;stroke-linecap:round;stroke-linejoin:round;stroke-miterlimit:4;stroke-dasharray:none;stroke-opacity:1"
       d="m -219.97242,56.409194 0.58237,1.310317 1.96547,0.655159 2.25666,1.310317 1.81989,2.111068 1.67429,0.873543 1.45591,-1.310317 1.09193,-0.509567 1.16473,1.019136 0.14559,0.800748 m -12.13127,-6.226109 v 0 l -1.95543,0.826823 -2.24896,0.959115 -1.38906,0.314192 -1.42214,-1.868619 -1.53789,-0.876433 -1.91823,-1.322916 -2.54661,2.728515 0.13229,1.091406 0.94258,1.455209 -0.47956,0.892969 -3.50573,2.778125 -2.08359,1.918229 -2.94349,2.083593 -2.18282,1.984375 -3.60494,2.497006 -0.71107,2.596226 -1.14102,0.314193 -1.38906,-0.429948 -1.20716,-1.174089 -1.78811,1.569345 1.7252,1.064765 1.01914,2.475042 -0.21839,1.674297 -0.94634,2.03827 0.14559,2.475045 -1.6015,1.237522 -0.94634,1.455907 -1.31032,1.383112 0.36398,1.528704 1.74709,0.291182 1.23752,-0.145589 4.36773,3.858156 4.07654,-0.0728 1.6743,1.747091 0.50956,1.965476 v 2.839025 l -0.50956,1.31032 2.10375,1.83616 2.19318,-1.41316 2.6293,-2.24896 4.54753,-3.869536 2.28203,-1.81901 1.88515,-2.248958 0.92604,-1.819011 0.92605,-1.5875 -0.52917,-3.340364 -1.05833,-2.182813 1.88515,-1.653646 0.19844,-2.215885 1.15755,-1.289844 0.95912,-1.389062 -0.69453,-1.058334 1.32291,-1.25677 2.01745,-1.190625 0.26458,-1.35599 3.73724,-2.348177 0.23151,0.727604 0.89297,-0.23151 1.32292,-2.050521 3.57187,-1.091406 -0.39687,-1.35599 1.39733,-2.786396"
       sodipodi:nodetypes="cccccccccccccccccccccccccccccccccccccccccccccccccccccccccccccccccccccccccc" />
    <path
       inkscape:connector-curvature="0"
       id="path2298"
       style="fill:#fffecc;fill-opacity:1;fill-rule:evenodd;stroke:#000000;stroke-width:0.52916664;stroke-linecap:round;stroke-linejoin:round;stroke-miterlimit:4;stroke-dasharray:none;stroke-opacity:1"
       d="m 128.05895,193.66964 5.5747,-0.27043 1.60149,-1.52871 h 3.42138 l 0.87355,-1.4559 3.63977,0.21839 0.50959,3.05739 3.71255,3.78537 0.1456,1.81988 -1.31032,1.23754 -0.36399,8.15308 -1.09194,0.43677 -0.36396,1.67429 -0.80076,1.60149 -1.09193,0.94636 -0.87353,0.50956 0.0728,3.203 0.94634,0.65516 8.00751,-0.0728 0.80073,1.52868 5.02288,0.0728 1.31032,1.23751 -0.14557,7.57073 0.50956,0.94634 2.76622,0.1456 -0.0728,4.00373 1.09193,1.31032 0.21839,6.4788 -2.76624,0.14557 -0.72795,4.29496 -2.54783,0.0728 -1.31033,1.4559 -2.11105,0.65516 -1.7471,1.81988 0.58235,2.18387 2.98463,0.1456 -1.31032,4.22212 0.94633,1.45592 -1.31032,1.67429 -0.72795,2.76621 -1.01912,1.38314 -1.67431,2.69343 0.0728,3.78534 -0.0728,4.29493 -1.16472,1.67431 -0.29118,1.96548 0.14558,2.03827 1.09193,1.81989 0.21839,3.20299 c 0,0 0.36399,1.09194 0.43677,1.38311 0.0728,0.29117 1.45593,1.67428 1.45593,1.67428 l 1.60149,1.45593 -0.58237,1.96548 -1.81988,0.36396 1.89267,2.32945 3.05742,2.32947 1.89267,0.29117 -0.14558,15.14142 2.69343,0.94633 1.09191,2.40226 3.13021,2.62064 3.20302,0.80074 6.11481,5.75085 1.23751,1.01912 4.95009,0.1456 1.81988,1.67429 2.98461,0.1456 0.1456,2.76622 3.93094,1.81988 2.98463,0.94636 0.14557,1.09191 1.6015,1.16475 1.52871,0.58235 0.80076,0.50956 0.87355,-0.29118 0.29117,-1.74709 0.0728,-9.90018 1.38311,-2.18385 1.8927,-1.01915 -0.36399,-0.80073 2.62065,-2.54786 -0.36399,-0.94633 2.69343,-3.78537 -0.36399,-9.53619 1.45593,-1.4559 0.29117,-2.25663 2.03827,-1.7471 2.25666,-0.43677 1.74709,-1.38311 v -0.94634 -4.14935 l -1.31032,-0.87355 -0.0728,-2.03827 1.6015,-1.23751 v -6.04202 l 2.54783,-1.96549 0.94634,-1.45589 -0.0728,-3.93097 -1.81988,-1.16472 -0.0728,-5.53244 -0.2912,-1.09194 -2.40223,-0.72794 -0.43678,-3.3486 1.81989,-1.96548 -0.0728,-4.5861 -1.45592,-1.96549 -0.29118,-4.65891 -1.5287,-1.96546 -0.58235,-2.18387 -0.87355,-1.01912 -0.21839,-4.87731 -1.31032,-1.5287 -0.43677,-3.0574 -2.03828,-1.96548 -0.94633,-1.6015 1.01912,-1.31032 0.80076,-1.6015 -0.1456,-11.13771 -4.44053,-3.05739 -4.65888,-5.45965 -2.98461,-1.8927 -0.72798,-0.43678 0.0728,-4.65888 -1.31032,-1.45593 -0.43678,-1.96545 1.23751,-1.8927 0.72798,-3.13021 -0.21839,-2.839 -1.38311,-1.16473 -0.87355,-2.11108 0.80074,-1.52868 4.14935,-0.2912 3.13018,-3.63977 0.36399,-12.15683 0.72794,-2.03827 0.94637,-1.31032 -0.1456,-12.73919 -1.67431,-1.96548 0.1456,-10.26415 1.60149,-1.38311 -0.21838,-1.89269 1.81988,-1.38311 -0.14557,-1.96548 1.67428,-0.80074 0.1456,-1.96548 -0.2912,-12.01124 -1.52868,-1.01914 0.0728,-4.00375 -1.81988,-3.27579 -9.39062,-9.68179 -6.04202,-4.950091 -5.24127,-7.279539 -5.09566,-4.513318 -6.69719,-3.057406 -2.54783,-2.620635 -5.53246,-0.145592 -1.6015,1.528704 -2.53219,2.001587 0.56671,0.983025 0.43677,1.091932 -1.16472,1.601499 c 0,0 -3.13021,0.800749 -3.42138,0.946341 -0.29117,0.14559 -1.89267,1.601499 -1.89267,1.601499 l -1.09194,3.63977 -0.21838,1.455909 -3.203,-0.0728 -1.74709,1.383114 -2.11109,1.892681 -1.70981,1.347603 -0.98362,1.637008 -2.54783,0.800751 -2.69343,-0.363979 -2.11106,0.145592 -1.23754,1.892685 0.0728,2.40225 -0.65516,2.69343 -2.25666,1.38311 -2.11108,0.58236 -0.36397,1.16473 0.65517,2.03827 1.60149,1.01914 2.25666,2.25666 0.58235,1.23752 -1.23751,1.96547 -0.72795,0.72796 1.89267,2.32945 2.18387,0.72796 2.11106,-1.45591 2.98461,0.58236 2.47504,1.89268 1.6015,1.01914 -2.47505,3.49418 -1.81988,1.89268 -1.81989,0.43677 -1.60149,1.6015 -2.03827,1.74709 -3.56698,0.0728 -2.11106,2.76623 -2.03827,-0.58236 -2.25666,-0.65516 -1.01915,0.21839 -1.09191,-0.80076 -1.45592,0.72796 0.0728,1.23752 -1.96546,0.58236 -2.69343,0.1456 -1.7471,-0.43678 -1.67428,0.21839 -1.52871,-1.52871 -0.29117,0.29119 0.29117,1.6015 1.31032,1.60149 0.72795,2.18387 -0.58237,2.03827 1.45592,2.69343 0.21839,2.18386 -0.36399,1.74709 0.36399,2.62064 0.80073,2.25665 -1.89267,2.83903 c 0,0 -1.89267,1.16472 -2.18387,1.16472 -0.29117,0 -1.31032,1.01914 -1.31032,1.01914 l -0.65514,1.96547 -2.18387,0.87355 -1.23753,1.38311 -0.58235,0.21839 z"
       sodipodi:nodetypes="cccccccccccccccccccccccccccccccccccccccccccccccccscccccccccccccccccccccccccccccccccccccccccccccccccccccccccccccccccccccccccccccccccccccccccccccccccccccccccccccccsccccccccccccccccccccccccccccccccccccccccccccccccccccccccccscccccc" />
    <path
       inkscape:connector-curvature="0"
       style="fill:#fffecc;fill-opacity:1;fill-rule:evenodd;stroke:#000000;stroke-width:0.52916664;stroke-linecap:round;stroke-linejoin:round;stroke-miterlimit:4;stroke-dasharray:none;stroke-opacity:1"
       d="m -92.673345,12.468877 0.617689,1.544225 2.161913,0.411792 3.294345,-0.411792 2.882551,-1.956017 1.647171,-1.132433 -0.720637,-0.9265333 -0.617689,-0.6176883 v 0 0 l -3.835894,0.013996 -1.471745,-0.4630208 -0.727604,1.1575524 -2.199349,0.694531 -0.347266,1.240235 z"
       id="path16123"
       sodipodi:nodetypes="cccccccccc" />
    <path
       inkscape:connector-curvature="0"
       id="path15149"
       style="fill:#fffecc;fill-opacity:1;fill-rule:evenodd;stroke:#000000;stroke-width:0.52916664;stroke-linecap:round;stroke-linejoin:round;stroke-miterlimit:4;stroke-dasharray:none;stroke-opacity:1"
       d="m -67.182696,6.6713617 0.936572,0.7296388 V 8.533433 l -0.514747,0.7206377 h -1.54424 l -1.235367,0.1029467 -2.573707,-0.3088455 -2.058961,-0.2058961 -5.765112,0.4117949 -3.632518,0.1434782 -3.779758,0.062418 -1.441265,-0.5147416 -0.720645,1.2353787 -2.161911,0.720638 -0.411797,1.235379 -1.029468,0.720638 -1.477221,0.594807 -0.946018,0.343924 -1.956011,-0.720638 -1.132444,1.13243 -1.441266,0.411795 -0.30885,-2.161913 -1.42065,-2.6489842 1.802368,-0.1711802 4.076541,-0.3639767 2.839032,-0.5823637 3.130206,-1.5287017 2.547832,-0.072797 2.111057,-0.2911819 3.56698,-0.3639767 2.693432,-0.072795 1.310323,-0.2911819 h 6.915573 l 2.39731,0.5151278 z"
       sodipodi:nodetypes="ccccccccccccccccccccccccccccccccccc" />
  </g>
</svg>
