<?xml version="1.0" encoding="UTF-8"?>
<svg width="520.14mm" height="392.02mm" version="1.1" viewBox="0 0 520.14282 392.02286" xmlns="http://www.w3.org/2000/svg" xmlns:cc="http://creativecommons.org/ns#" xmlns:dc="http://purl.org/dc/elements/1.1/" xmlns:rdf="http://www.w3.org/1999/02/22-rdf-syntax-ns#" xmlns:xlink="http://www.w3.org/1999/xlink">
 <metadata>
  <rdf:RDF>
   <cc:Work rdf:about="">
    <dc:format>image/svg+xml</dc:format>
    <dc:type rdf:resource="http://purl.org/dc/dcmitype/StillImage"/>
    <dc:title/>
   </cc:Work>
  </rdf:RDF>
 </metadata>
 <g transform="translate(303.92 47.178)">
  <path d="m-35.727 22.976-10.739-3.2086-6.3332-3.8582-2.9846-2.2567-2.839-2.3295 0.43677-1.6743 0.72795-0.80075-0.36396-0.80075-3.8582-1.0919-2.1839-0.87355-2.1243 0.60518-0.14388 0.58432 0.01169 1.1927-0.53788 0.70158-7.4368-0.39757-9.3484 0.63044l0.61769 0.61769 0.72064 0.92653-1.6472 1.1324-2.8826 1.956-3.2943 0.41179-2.1619-0.41179-0.61769-1.5442-1.8707 0.80165 1.0295 2.8826 1.0295 2.3678 1.5442 1.3383-0.82358 2.1619-0.10295 1.3383 1.1324 1.2354 1.956 0.51474 1.5442 0.51474 1.4413 1.6472 1.956 0.51474 2.5737-0.61769 1.956 0.72064 3.3973 0.51474 1.956-0.2059 1.4413 0.2059 2.9855-1.8531 1.6472-0.61769h1.4413l0.8236 1.0295 0.72062 0.72064 2.5737 0.51474 1.6472 0.41179 1.956-0.30885 1.8531-0.10295 1.6472 0.82358h2.6767l1.956-0.51474 2.2649-0.2059 1.5442 0.61769 1.3383 0.61769 0.4118 0.10295 0.15211-1.0579 2.0814 0.1637 2.4555-1.1459 1.5669-2.1983 1.4499-0.70158 0.95882-0.77174z" style="fill-rule:evenodd;fill:#fffecc;stroke-linecap:round;stroke-linejoin:round;stroke-width:.52917;stroke:#000000"/>
  <path d="m-150.88 6.6123-1.2402 1.6588-1.3103 0.87355-2.1111 0.43677-1.7471 0.65516-0.50957 1.3103-0.0728 1.8199 1.1647 1.8927 0.14559 2.1839 0.80075 1.4559-0.43677 1.2375-1.3831 0.14559h-1.1647l-0.65516 1.0191-0.58236 0.94634-1.0191 0.94634-1.0191 0.29118-0.87355 0.72795 0.65516 1.3103 1.4559 0.94634 0.43677 1.6743-0.50957 1.8927 0.65516 0.94634 1.4559 1.1647h1.1647v-1.9655l0.87354-1.0919 1.3831-0.80075h1.6015l0.0728 2.0383-0.87354 4.1493-1.3831 1.6015-1.3831 0.72795-0.58236 1.0919-1.6743 0.21838-1.7471 0.36398-1.3103 0.36398-1.2375-0.87355-0.29118-1.0919 0.14559-1.7471-0.14559-1.7471-0.87354-0.50957-0.87355 2.0383-1.4559 1.3103-0.43677 1.9655-0.94634 1.1647 0.72795 1.4559-0.43677 0.36398-1.5287-1.2375-1.2375 0.21839 0.0728 0.58236 1.0191 1.0191 0.29118 0.80075-0.72795 0.29118-1.0191-1.0191-1.3831-1.0191-1.0191 0.58236 0.43677 0.94634 0.94634 0.58236-0.43677 0.50957-1.3831-0.65516-1.4559-0.58236-0.65516 1.3103v1.6015l-0.36398 2.475-0.50957 0.94634-1.3103 0.29118-1.6743-0.65516-1.0919-0.29118-0.80075 0.36398-1.5287-0.14559-0.80075-0.94634 0.65516-1.1647 0.72795-1.1647 0.50957-1.4559-0.36398-1.1647-1.1647 0.07279-0.58237 0.87355-1.3831-0.07279-1.0919 0.07279-0.80075 0.72795-1.2375 1.2375-0.50957 2.1839-0.72795-0.43677-0.94634-1.6015-1.3103-1.8927-0.50957-2.1111 0.94634-1.6743 0.72796-0.87355 1.3103 0.29118 1.3103-0.29118-1.0191-1.2375-1.8927-0.94634-0.94634-0.72795-1.7471-0.07279-1.0191-1.3831-1.0191-0.29118-0.87354 1.2375-1.0191-0.80075-0.87355-0.80075-0.94634 0.36398-0.87354-1.6743-0.94634-0.65516-1.0919 0.94634-3.0574-0.58236-0.72795-1.0919v-1.7471l-0.58237-0.29118-0.80075-0.0728-0.72795-1.5287-1.0191-0.65516-1.0919 0.65516-0.43677 1.4559v1.3103l-1.4635 0.51748-1.2747-0.27416-1.5435-0.74836-4.0224-3.3676 0.0935-1.2628 1.5435-1.4967 2.666-1.1225 1.3564-1.1693 1.1693-1.1693-0.0935-1.4499 0.70158-0.8419-0.23386-0.60804-1.7306-0.65481-0.18709-2.0112-1.245-2.1805 4.4943 0.19406 5.0762-2.0828 4.9578-0.18709 2.1515-1.2161 1.8709 0.04677 3.5079-2.6192 2.666-0.046773 6.0804-2.1047 2.1048-1.2161-1.2161 1.1225 1.1693 0.56127 1.7306-0.28063 3.5079-1.9644 2.1983 0.37418 4.303 2.0112 3.6015-0.5145 3.9756 0.32741 2.9934 0.46772 2.7128 0.70158 1.4032-0.23386 1.3096-0.74835 3.087-0.046773z" style="fill-rule:evenodd;fill:#fffecc;stroke-linecap:round;stroke-linejoin:round;stroke-width:.52917;stroke:#000000"/>
  <path d="m-213.13 30.598 1.3465-0.4941v-1.3103l0.43677-1.4559 1.0919-0.65516 1.0191 0.65516 0.72795 1.5287 0.80075 0.07279 0.58237 0.29118v1.7471l0.72795 1.0919 3.0574 0.58236 1.0919-0.94634 0.94634 0.65516 0.87354 1.6743 0.94635-0.36398 0.87354 0.80075 1.0191 0.80075 0.87354-1.2375 1.0191 0.29118 1.0191 1.3831 1.7471 0.07279 0.94634 0.72795 1.8927 0.94634 1.0191 1.2375-1.3103 0.29118-1.3103-0.29118-0.72796 0.87354-0.94634 1.6743 0.50957 2.1111 1.3103 1.8927 0.94634 1.6015 0.74461 0.50316-0.6385 1.3767-1.3103 0.72795-0.87355 1.2375-1.1647 1.3103-0.0728 1.4559 0.94634 0.94634h1.0919l0.50956 1.9655-1.0919 2.1839-0.65516 1.4559-1.4559 1.5287-0.39 1.11-1.864-0.91164-3.4611-0.39756h-3.4144l-2.362 0.58465-1.8007 0.91206-0.0702-0.95883-1.2161-1.0056-1.0524 0.44434-1.4499 1.333-1.754-0.81851-1.7306-2.1983-2.2918-1.2628-1.8943-0.60804-0.63143-1.2628-0.11693-1.5201-1.029-2.362-1.2862-1.6604-1.9644-0.42095-1.3096-0.49111 0.35079-6.1739 0.44433-3.3442 3.4845 0.39756 3.4611 0.25725 1.8241-1.5201 1.0056-2.3152 0.88867-1.3798 1.4499-0.09354 1.1459-1.333-0.58466-2.1515z" style="fill-rule:evenodd;fill:#fffecc;stroke-linecap:round;stroke-linejoin:round;stroke-width:.52917;stroke:#000000"/>
  <path d="m-141.15 75.711-0.80075 3.1302-0.94634 2.475-1.7471 1.8927-1.7471 0.80075-1.4559 0.94634-1.3103 2.1839-0.43677 2.5478 0.21839 2.3295-0.43677 0.80075h-1.6743l-2.5478-2.5478-0.94634-1.8199-1.3831-1.0919-2.3294-1.3831-1.2375-1.3103-1.3103-1.3831 1.4559-1.6015-0.72795-0.58236-1.2375-0.14559-0.50957-2.0383-4.3677-5.0957-2.1839 0.43677h-1.0919l-1.0919-0.58236-2.9118-0.65516-1.3831-1.0191-0.94634-0.94634-1.8927 0.14559-1.0919 0.50957-4.5861-1.2375-2.7662-1.2375-2.1839-1.4559-1.1647-0.72795-1.3103-1.0919-1.6743-1.0919-2.0338-2.3122 0.34098-1.0007 1.4559-1.5287 0.65516-1.4559 1.0919-2.1839-0.50957-1.9655h-1.0919l-0.94634-0.94634 0.0728-1.4559 1.1647-1.3103 0.87354-1.2375 1.3103-0.72795 0.6717-1.35 0.49303-2.2897 1.2375-1.2375 0.80075-0.72795 1.0919-0.07279 1.3831 0.07279 0.58237-0.87354 1.1647-0.07279 0.36398 1.1647-0.50957 1.4559-0.72795 1.1647-0.65516 1.1647 0.80075 0.94634 1.5287 0.14559 0.80075-0.36398 1.0919 0.29118 1.6743 0.65516 1.3103-0.29118 0.50956-0.94634 0.36398-2.475v-1.6015l0.65516-1.3103 1.4559 0.58236 1.3831 0.65516 0.43677-0.50957-0.94634-0.58236-0.43677-0.94634 1.0191-0.58236 1.3831 1.0191 1.0191 1.0191 0.72795-0.29118-0.29118-0.80075-1.0191-1.0191-0.0728-0.58236 1.2375-0.21839 1.5287 1.2375 0.43677-0.36398-0.72795-1.4559 0.94634-1.1647 0.43677-1.9655 1.4559-1.3103 0.87355-2.0383 0.87354 0.50957 0.14559 1.7471-0.14559 1.7471 0.29118 1.0919 1.2375 0.87355 1.3103-0.36398 1.7471-0.36398 1.6743-0.21838 0.58236-1.0919 1.3831-0.72795 3.7222 9.1534 0.79513 1.3096 0.0468 2.6192 2.6192 2.0112 1.9644 1.8943 1.8007 1.0758 0.25725 2.5725 1.3798 1.3564 0.28063 0.72497-1.2628 0.53788 0.65481 3.8119 0.0702 2.2918 1.4266 1.4032-5.332 2.0112-0.14031 1.029 0.72497 0.86528 1.1225-0.04677 0.79512 0.79513 0.70159 1.6838 1.029 0.79513 2.0112 1.0758z" style="fill-rule:evenodd;fill:#fffecc;stroke-linecap:round;stroke-linejoin:round;stroke-width:.52917;stroke:#000000"/>
  <path d="m-133.67 27.9-0.72795-0.64347-0.14559-2.4022-0.65516-2.0383 0.58236-1.8927 0.87355-1.6015 0.0728-1.1647-1.0191-1.8199-0.21839-3.1302 0.50957-1.6015v-1.8927l0.87354-0.072798 1.3103 0.65516 3.3581-1.1919-0.77012-0.85043-2.1749 0.24555-4.572-0.011695-2.8765 0.11693-2.4438-0.6665-0.90036-1.029-0.78344-1.3564 0.87698-1.4499 1.7656 1.754-1.2395-1.8943-1.3447-0.10524-4.2446 0.47941-1.9644 1.906-1.3978 0.44638-1.2402 1.577-1.3103 0.87355-2.1111 0.43677-1.7471 0.65516-0.50957 1.3103-0.0728 1.8199 1.1647 1.8927 0.14559 2.1839 0.80075 1.4559-0.43677 1.2375-1.3831 0.14559h-1.1647l-0.65516 1.0191-0.58236 0.94634-1.0191 0.94634-1.0191 0.29118-0.87355 0.72795 0.65516 1.3103 1.4559 0.94634 0.43677 1.6743-0.50956 1.8927 0.65515 0.94634 1.4559 1.1647h1.1647v-1.9655l0.87354-1.0919 1.3831-0.80075h1.6015l2.2617-0.60039 1.8521 0.26458 0.62839 1.0583 1.5875 0.92604 1.8852 0.23151 1.356-0.59531 0.82682-1.0914 0.92605-0.62839 1.4552 0.29766 0.52917 2.3151 0.82682 0.99219 1.6867-0.13229 3.8034-2.7451z" style="fill-rule:evenodd;fill:#fffecc;stroke-linecap:round;stroke-linejoin:round;stroke-width:.52917;stroke:#000000"/>
  <path d="m-141.08 75.653-0.23421-0.63441-1.9655-0.94634-1.0191-0.94634-0.72796-1.6015-0.80074-0.80075-1.0191 0.0728-0.80075-0.87355 0.0728-1.0191 1.6743-0.58236 3.7126-1.4559-1.3831-1.4559-0.14559-2.2567-0.50957-2.839-0.14559-0.94634 1.2375-0.58236-0.21838-0.72795-1.3831-1.3831-0.21839-2.5478-1.8199-1.0191-1.8927-1.8927-2.6206-2.0383-0.0728-2.7662-0.94634-1.2375-0.72795-2.1111-1.3103-3.6398-1.6015-3.4214 1.3367-1.5368 0.89297-4.101-0.0408-2.0537 2.3244-0.60717 1.8199 0.21839 0.65516 1.2375 1.5287 0.80075 1.8927 0.21839 1.3103-0.58236 0.87355-0.94634 0.94634-0.72795 1.5287 0.21838 0.43678 2.4022 0.87354 0.94634 1.6743-0.14559 2.2566-1.7471 1.5287-1.0191 0.4564-0.5703 0.4955-1.4033 1.7471-0.94634 1.6015-0.87354 1.0191-0.29118 0.80075 0.87354-1.0191 0.94634-1.0919 1.8199 0.29118 1.1647 2.1111 0.87355 0.94634 0.87354 0.50957 0.65516 1.6015 0.72796 1.1647-0.21839 1.3831-0.14559 1.9655 1.7471 2.4022 0.21839 0.94634-0.36398 0.35353-1.1292 2.7807 3.8376 0.65516 2.0383-2.0383 1.7471-1.4559 0.87354-2.6934 0.72795-0.58236 1.9655-0.50957 1.5287 1.0191 2.1839 0.50957 1.8199-0.58236 1.8199 1.0191 1.2375 1.0191 2.3295 0.0728 2.9118 0.50957 3.4214-1.9655 2.5478-1.5287 1.3103-1.0919 2.1839-1.3103 3.0574 0.29119 2.1839 0.36398 3.6398-0.99272 2.8126-1.3312-0.6167-2.0092-2.0671-2.4391-0.15709-2.3482 0.33073-2.8443-0.39688-7.1768-0.06615" style="fill-rule:evenodd;fill:#fffecc;stroke-linecap:round;stroke-linejoin:round;stroke-width:.52917;stroke:#000000"/>
  <path d="m-128.85 9.1069-3.3648 1.1968-1.3103-0.65516-0.87354 0.072798v1.8927l-0.50957 1.6015 0.21838 3.1302 1.0191 1.8199-0.0728 1.1647-0.87354 1.6015-0.58236 1.8927 0.65515 2.0383 0.1456 2.4022 0.72795 0.65516 0.50957-1.3103 1.7471-0.94634 1.6015-0.87355 1.0191-0.29118 0.80075 0.87355-1.0191 0.94634-1.0919 1.8199 0.29119 1.1647 2.1111 0.87355 0.94635 0.87354 0.50956 0.65516 1.6015 0.72796 1.1647-0.21839 1.3831-0.14559 1.9655 1.7471 2.4022 0.21839 0.94634-0.36398 0.29447-1.201 1.1238-1.8151 0.94634 0.36398 1.6015 1.3831 1.0919 1.5287 0.94634 0.14559 1.1647-1.2375 1.6015-0.50957 1.0191-0.80075 1.3103-0.0728 5e-3 -1.7114-0.91527-1.2317-1.9655-0.50957-2.3294-0.07279-0.57446-1.6438 0.79464-2.2245-1.0191-0.65516-1.0919 1.6015-2.1111-0.36398-1.8199-0.07279-1.2375-1.0919 0.36398-1.4559 2.5478-1.7471 2.1839-0.58236 1.6015-0.21839 1.0762-0.44344 5e-3 -1.7017-2.1839-0.80075-1.8199 0.21839-2.7662-0.58236-0.80075-0.87354 0.21839-1.8927 1.9889-1.7279-1.323 0.23332-1.9655 0.29118-3.203-0.36398-2.4022-0.21838-2.2566-0.0728z" style="fill-rule:evenodd;fill:#fffecc;stroke-linecap:round;stroke-linejoin:round;stroke-width:.52917;stroke:#000000"/>
  <path d="m-101.78 9.7449-3.2886 0.34035-4.2949 0.80075-4.3677 0.43677-1.8077 0.35439-1.9777 1.7567-0.21838 1.8927 0.80074 0.87355 2.7662 0.58236 1.8199-0.21839 2.1839 0.80075 0.0604 1.68 1.4683 1.8141 1.1647 1.3103-0.72795 1.6743-2.3295 1.1647-0.93106 1.2958 0.56708 1.616 2.3295 0.07279 1.9655 0.50957 0.94381 1.2884 1.4534-0.61481 2.1111-0.14559 1.7471 1.0919 3.2758 0.80075 3.4214 0.14559 1.4559 2.4022 2.1839 1.4559 1.7471 1.3831 1.7471 0.87354 0.0728 1.0191 1.8199 0.36398 1.0919 1.4559-0.29118 1.1647-0.36398 1.2375-1.3831 1.3831h-1.8199l-1.2375 1.5287 1.0191 1.6015 2.4022 1.0191 1.5287 0.43677 1.4559 0.80075 1.4559 0.43677 2.4022 1.3103h1.6015l0.80075-0.87354v-0.94634l0.94634-0.43677 1.2375-3.4214-0.58236-0.07279-0.58236-1.5287 0.80075-2.2567 0.21839-1.3103-2.1111-2.3295-0.80075-0.94634 1.0191-0.80075 0.80075-1.8199 0.43677-1.4559-0.58236-1.1647 0.02873-3.2589-0.80461 0.01307-3.3973-0.40366-1.956-0.72064-2.5737 0.61769-1.956-0.51474-1.4413-1.6472-1.5442-0.51474-1.956-0.51474-1.1324-1.2354 0.10295-1.3383 0.82358-2.1619-1.5442-1.3383-1.0295-2.3678-0.98255-2.7884-0.97347 0.31764-1.956-0.72064-1.1324 1.1324-1.4413 0.4118-0.30884-2.1619z" style="fill-rule:evenodd;fill:#fffecc;stroke-linecap:round;stroke-linejoin:round;stroke-width:.52917;stroke:#000000"/>
  <path d="m-3.3552 19.369 1.4402-1.7126 1.5287-1.2375 1.3103-1.3831 3.0574-1.0919 1.0191-1.6015 1.4559-1.3831 1.6743 0.14559 1.1647 1.2375 1.8199 0.07279 2.9846-0.07279 3.4214 0.29118 2.2567-0.80075 2.6934-1.1647l-0.72797-0.36398-1.6015-0.80075-2.2567-0.72795-2.0383-0.21839-0.94634-1.0191-1.6015 0.21839-4.0038 0.21838-3.2758 0.65516-1.7471 1.2375-0.65516-1.8199-1.1647-1.8199 1.0191-0.72796 2.0383 0.21839 3.3486 0.50957 2.1839-1.0191 1.8927 0.21838 2.6934 0.80075 2.6934-1.0191 1.5287-0.29118 4.0765 0.72795 3.6398 0.36398 1.9655-0.29118 2.6934-0.94634 5.1685-0.072795 1.3831-1.2375 2.9846-0.29118h4.6589l1.3103 0.58236h2.9118l2.4022-1.0191 2.1839-0.94634 3.2758 0.50957 2.475 0.21839h4.2949l3.6398 0.87355 2.1111 0.21839 3.203 0.14559 1.0919-0.50957 3.1302-0.29118 2.475-0.58236 2.6934 0.072795-0.2912 1.0191-3.4214 1.6015-3.0574 0.21839-5.5325 0.43677-2.6934 3.0574h-4.0038l-4.8773-0.58236-3.3486-0.14559-4.3677 0.58236-2.9846 1.0191 2.475 0.65516 0.21839 2.9846-2.0383 0.14559-1.8927-0.21838-1.0191 2.0383v2.9846l1.3831-0.14559-0.36399-3.3486 1.1647-0.94634 1.9655 1.0919 2.3294-1.4559 0.36399-1.6743 0.50956 0.07279 2.475 2.0383 1.2375 1.5287-0.58235 1.5287 0.36396 3.7126 1.2372 1.3074-0.7362 2.9089h-4.1179l-1.0295 1.2354-1.0295-0.92654-1.6472 0.2059-1.4413-0.82359-2.1619-0.30884-1.8531-1.8531-2.9855-1.5442-3.0884-0.10295-2.9855-0.72064-1.3383-1.2354-1.8531-0.30884-1.6472-1.956-1.5442 0.30884-2.9855 2.4708-1.7501 0.10295-3.2943 0.2059-1.8531 2.8826-3.2943 1.1324-2.0222 0.68756-1.5315-1.2174-3.6716 0.58465-2.7362 1.1576-2.6309-0.11693-1.5318-1.0407-2.7946-0.30402-1.0407-2.2334z" style="fill-rule:evenodd;fill:#fffecc;stroke-linecap:round;stroke-linejoin:round;stroke-width:.52917;stroke:#000000"/>
  <path d="m-271.52 82.206 1.5715 4.0228 0.14558 4.6589 1.0191 1.7471-0.0728 1.0919-0.58237 0.43678-0.94634-0.29118-1.0919 1.0919-1.2375 1.9655 0.29118 2.2567-0.43677 2.6934-0.36398 1.5287 0.29118 2.6206-0.21838 1.5287 0.72795 2.4022-0.50957 1.7471 0.21839 1.1647 1.0191 0.58237 0.47382 1.3624 1.6658 0.51847 0.88986-1.0009 1.5875-0.0992 2.0009 0.31419 1.9513-0.59531 1.6379 1.4304 2.3971 1.3915 2.3269 0.0234 2.6543-1.2395 1.7231-2.6458 1.0603-1.0985 2.2567-0.65516 3.4214 0.65516 6.1876 0.94634 2.5972 0.55898 2.28-0.41339-1.1647-0.29118-2.1111-2.475-1.9655-1.3831-0.43677-1.6743 1.2375-2.1839-0.87355-1.6015-1.6743-1.3103 0.50956-1.3103v-2.839l-0.50956-1.9655-1.6743-1.7471-4.0765 0.0728-4.3677-3.8582-1.2375 0.14559-1.7471-0.29118-0.36398-1.5287 1.3103-1.3831 0.94634-1.4559 1.6015-1.2375-0.14559-2.475 0.94634-2.0383 0.21839-1.6743-1.0191-2.475-2.1111-1.3103 0.0546-0.0033-1.3891 0.09922-1.4552 1.0253-1.2568-2.3812-1.356 0.79375-0.36381 0.69453-1.356 1.2568-1.4221-0.06615-0.79375 0.69453-1.356-0.26458-1.5875 0.7276-2.6458 0.69453-0.66146 2.4474z" style="fill-rule:evenodd;fill:#fffecc;stroke-linecap:round;stroke-linejoin:round;stroke-width:.52917;stroke:#000000"/>
  <path d="m-239.01 104.86-1.2375 2.1839 0.43678 1.6743 1.9655 1.3831 2.1111 2.475 1.1647 0.29118-2.2566 0.43678-2.6206-0.58237-6.1876-0.94634-3.4214-0.65516-2.2567 0.65516-0.96504 1.0322 2.5957 0.48027 1.7694 1.5544 2.1332 0.49609 1.0583-0.77721 1.5875 0.69453 2.5962-0.42995 1.3891-0.61185 7.7391 1.0749 1.9348 1.6206 2.6789 0.19844 4.9775 2.0009 2.249-0.62838 5.887 1.2568 1.7694-1.3229 2.1993-0.16536 2.4309-2.0836 1.2402-0.82682 2.6128-0.59531 0.7276-1.2237 1.8852-4.5144 0.81029-0.19844 2.3151 0.23151 1.5379-0.52917 0.42995-0.51263 2.3978-2.3482 1.1958-0.64264 0.21839-0.36398 3.203-0.36398 2.2566-2.1111 3.0574-0.50957 3.7126-1.7471 2.9846-2.0383 3.6398-3.6398 1.7471-1.0191 2.9846-0.21839h2.839l2.9118 0.14559 2.5478 1.6743 1.1647 1.4559 1.4559-0.36398 2.475-0.07279 1.3103 1.6743 1.2375 1.0191 3.3486 0.43677 1.6743-0.29118h3.8582l3.0574-1.4559 1.2375 0.65516 2.4022 0.21839 1.9655 1.0919 2.4022-0.72795 1.3103-0.29118 0.94634-0.94634h1.2375l2.5478 1.6015 2.7662 0.50957 6.1148-0.21839 3.8582-0.65516 2.3294-1.0919 3.452-0.64551-0.67662-2.1248-1.1647-2.1111v-2.5478l-2.0383-1.3103-1.3831-0.14559-1.8927-1.8199-3.203-3.567-2.3295-0.87355-1.8199-0.21838 0.0728-2.5478-0.59484-0.75457-1.3798-0.62445-1.9655-2.0383-2.475-0.14559-2.3295 0.29118-2.839-0.36398-5.4596-0.07279h-1.8199l-0.80075 3.1302-0.94634 2.475-1.7471 1.8927-1.7471 0.80075-1.4559 0.94634-1.3103 2.1839-0.43678 2.5478 0.21839 2.3295-0.43677 0.80075h-1.6743l-2.5478-2.5478-0.94634-1.8199-1.3831-1.0919-2.3294-1.3831-1.2375-1.3103-1.3103-1.3831 1.4559-1.6015-0.72796-0.58236-1.2375-0.14559-0.50957-2.0383-4.3677-5.0957-2.1839 0.43677h-1.0919l-1.0919-0.58236-2.9118-0.65516-1.3831-1.0191-0.94634-0.94634-1.8927 0.14559-1.0919 0.50957-4.5861-1.2375-2.7662-1.2375-2.1839-1.4559-1.1647-0.72795-1.3103-1.0919-1.6743-1.0919-1.5287-1.9655-2.3294-1.1647-3.567-0.43677h-3.3486l-2.4022 0.58236-1.7471 0.94634-1.3831 2.6934 0.36398 1.2375-1.6015 0.50957-1.8927 0.58236-1.3831 2.0383-0.87355 0.29118-0.14559-0.72795-2.2567 1.3831-1.6015 1.0191-0.21838 1.2375-1.8927 1.1647-1.6015 1.3831 0.80074 1.0191-0.87354 1.3103-1.2375 1.4559-0.14559 2.1839-1.8199 1.6743 0.94634 1.9655 0.65516 3.3486-1.0191 1.6743-0.87354 1.8199-1.9655 2.2567-2.5478 2.0383-2.4022 2.1111-4.7317 3.931-1.9655 1.3103z" style="fill-rule:evenodd;fill:#fffecc;stroke-linecap:round;stroke-linejoin:round;stroke-width:.52917;stroke:#000000"/>
  <path d="m-103.24 157.61 0.40501-0.14437 0.97473-0.77109 2.1111-1.1647 4.8773-4.8045 2.1839-2.1111 0.21839-2.1111 0.43677-2.5478 2.2567-3.6398 0.58236-2.7662 0.07279-6.1876-1.7471-2.2567 1.6015-1.1647 1.7471-0.87354 0.43677-1.0191 2.3295-0.65516 1.4559-1.5287 1.6743-1.2375 3.0574-0.50957 2.0383-0.65516 2.5478-1.5287 1.9655-3.7854 2.0383-2.1111 1.4559-2.2567 1.8199-1.6015 1.5287-0.94634 2.5478 0.43677 1.9655-0.58236 1.1647-0.87354 2.5478 0.14559 2.6206-0.21839 0.87355 0.94634 0.94634-1.1647 1.5287-0.43677 1.5287-1.0919 1.1647 0.80075 1.0919-0.94634 1.8927-0.72796 0.65516-2.5478 0.94634-1.8199 1.6743-0.50957 3.0574-0.29118 2.0383 0.80075 2.0383 0.80075 1.3831 0.36398 4.0038 0.29118 4.5861 1.5287 2.6206 1.0919 1.8199 1.9655 1.8927 1.3103 0.72795 2.0383 0.87355-1.2375 2.9846-1.0919 2.4023-1.4559 2.2567-1.2375 2.2567-0.50956 2.839-0.50957 1.1647-1.1647 0.80076-0.94634-1.0191-1.6743-0.65516-2.4022 0.72797-1.6015 1.1647-0.21839 2.2567 0.43677 1.1647-0.50957 1.6015-0.07279 0.50956-1.4559 0.65516-1.0919 1.6743 0.72795 1.0919 1.6015v1.1647l1.0919-0.43677 1.4559 0.94634 1.6743 0.07279 1.3103 0.29118 2.1839 0.07279 1.5287-0.50957 1.3103-1.5287 1.0919-1.8199 1.5287-2.1839 2.1839-0.21839 3.567-0.87355 3.203-0.94634 2.6206 0.29118 1.0919-1.1647 1.8199-0.72795 1.7471 0.14559 1.4559-1.3103 2.2567-1.8927 1.6015-1.0191 2.3295 0.14559 3.2758 0.94634 2.6934 0.65516 2.5479-0.43677 1.1647-0.72796 2.9118-1.0191 1.0191 0.29118-0.50956 1.8199-1.9655 1.8199-2.4022 2.475-2.6206 1.6743-1.7471 0.94634-1.6743 0.94634-1.3831-1.3103 0.58235 2.2567-0.21839 3.0574-0.29117 2.5478 1.0191 0.87354 0.43677 1.6743-0.65513 2.5478 0.14557 2.3294-1.4559 1.7471 0.72795 0.50957 0.07279 1.4559-0.29117 1.8927 0.80076 0.72796 0.72795 1.0191 1.2375 0.72795 1.1647-0.72795v-1.1647l1.2375-0.58237 0.87355 1.6015-0.1456 1.4559-1.5287 1.7471v1.6743l-0.58235 1.8199-1.3831 1.3103-1.3831-0.36398-1.0191-1.2375-0.07279 1.6015-1.2375 0.58236-1.2375 0.50957-1.3103-0.50957-1.0191 0.72796-0.36396 0.72795 0.72795 1.0191 1.6015 0.50957 0.65516 1.1647-1.0919 1.4559 0.1456 0.87355 1.8199-0.43678 1.3103 0.29118 1.3831 1.0919 1.6743 0.14559 0.36399 1.2375-1.3831 1.5287-2.5479 1.4559-2.3294-0.21839-1.0919-1.4559-2.5478-0.65516-2.2567 0.50956-0.50956 1.4559-0.50959 1.3831 1.6015-1.6743 2.0383-0.58236 1.9655 0.21839 0.80076 1.0191 0.80074 0.87355 1.3103-0.0728 1.2375 0.0728 1.6015-0.50957 1.3103-0.94634 1.3103-1.1647 0.87355 0.29118 0.94634 1.7471 0.65516 1.0919 0.1456 2.3295 0.65516 1.4559-0.94634 2.4022-2.7662 4.0038-1.7471 2.7662-0.21839 1.4559 0.94634 1.0919 1.0191 2.475-0.43677 0.29118-1.0191 0.87355v1.3831l0.43677-1.2375 0.94634-0.72795 0.80076 0.50956 1.0191 2.0383 0.29117-1.0919-1.1647-2.4022-1.3831-2.2567-0.36396-1.6743 2.1838-4.0765 3.4942-4.5133 0.29117-1.3103-0.65516-0.65515-1.0919-1.7471 0.2912-2.0383-0.43678-1.3103-0.36399-1.2375-2.0383-1.7471 0.72795-1.3831 2.1839-1.8927 1.1647-0.94634 1.3103 0.14559 1.4559-0.29118 0.1456-1.1647-1.5287-2.3295 0.43677-0.72795 0.29117-0.80075-0.58235-0.58237v-0.80075l0.87355-1.0919 1.6015 0.43678 1.3103 1.0919 0.65516 0.14559 0.29117-0.72796 0.43677-0.87354-0.87355-0.87355 0.29117-0.65516-0.07279-0.94634-1.0191-1.1647-0.21839-1.3103 0.36399-0.87354 1.3103-0.65516 0.58235-1.1647 0.1456-1.2375-0.29117-1.1647-1.2375-0.72795 0.07281-0.80075 1.9655-1.0919 0.07281-1.6015 0.87352-1.3103-0.65514-1.0191-0.94636 0.0728-1.2375-0.43677-1.3103-1.0919-1.3831-0.58237-0.29117 0.65516-1.1647 1.6015-1.9655 0.50957-2.3295 0.0728-1.0191 0.65516-1.2375 0.14559-1.1647-0.72795-0.43677-1.1647-0.07279-1.5287 0.21839-1.8199-0.50956-0.50957-0.1456-1.9655 0.29117-2.4022 2.475-1.6743 1.0919 0.21839 0.58237-0.29118-0.36399-0.36398 0.65516-1.2375 2.9118-1.8199 1.0919-1.8199 2.1838-1.5287 1.3103-1.3103-0.65516-1.2375-0.07279-0.94634 0.72795-0.87355 2.531-1.6678 0.16243 1.5223 2.0383 1.8199 3.3486 3.3486 0.50956 0.14559 1.0919-0.65516 2.3295 0.0728 1.7471 0.43677 1.8199 1.0191 1.8927 1.1647 1.2375 1.6743 1.0191 1.7471 0.43678 1.0919 1.8199 1.0191 1.6743-0.14559 1.1647-0.87355 2.0383-0.36398 2.475-0.58236 1.2375 0.14559 1.6743 2.839 1.6743 3.2758 2.1838 1.6015 3.4214 0.87354 2.475 0.72796 0.87352 0.80075 0.72798-0.0728 1.5287-1.7471 2.3295-0.72795 2.1111-0.43677 1.2375-1.3103 1.4559-0.65516 2.2567-1.0919 0.80076-0.58236 1.4559 1.5287 0.94634 2.6934 1.3831 0.58236 2.9118-0.94634 2.1111-1.0919 0.0728-0.80075 1.9655 0.50957 1.5287-0.65516 1.1647-0.50957 11.119-0.22859-0.98626 1.6582-2.4796 0.82836-2.8297-0.44434-1.9644 0.18709-1.4032 1.8709 0.18709 2.5257-0.56126 2.3386-2.1515 1.5903-2.3386 0.56126-0.46773 1.2161 0.74834 2.058 1.4967 0.74836 2.3386 2.6192 0.56126 1.2161-0.93544 1.7773-1.029 0.93544 1.8709 2.1515 2.3386 0.8419 2.058-1.4032 2.8063 0.56127 4.1159 2.8999-2.245 3.274-1.9644 1.8709-1.8709 0.46772-3.4612 3.5547h-3.7418l-2.058 2.9934-4.303-1.4967-0.93544 0.37418-1.3096-0.93545-1.4967 0.74836 0.37418 1.4967-2.1515 0.37418-2.8063 0.0935-1.5903-0.65481-1.7773 0.37418-1.4967-1.4032-0.37417 0.37418 0.46773 1.4032 1.4032 1.9644 0.56126 2.058-0.46773 1.8709 1.4032 2.6192 0.18709 2.058-0.37418 1.9644 0.28065 2.7128 0.93543 2.1515-1.6838 2.8063-2.5257 1.2161-1.2161 0.93544-0.74835 2.1515-2.058 0.65481-1.2161 1.4967-0.65482 0.18709 26.66 29.654 0.0512 1.481 1.3103 2.1839-3.0574 4.2949-3.7854 2.5479-4.0037 1.7471v0.65516l-1.1648 1.0919 0.0728 2.0383-1.2375 1.9655-1.3831 0.29117-5.4596 0.58238-2.3294-1.0192-2.3295 0.36399-0.36396 0.72794 0.65516 1.3831-0.1456 1.2375-1.2375 0.36396-2.475-0.29117-3.203 1.5287-0.07279 3.203-1.3831 1.3831-4.5861-0.1456-2.2567 0.50959-3.2758 2.839-2.0383 0.58238-1.4559-0.65517-1.6015-0.0728-4.4405 2.6934-8.9538-3.203h-1.8927l-0.50959 1.0192-2.3294 1.4559-0.07279 1.8927-0.65516 0.58235-4.7317-0.14557-2.475 1.0919-0.87355 2.9846 0.58237 2.3294 1.5287 4.5133-1.0191 3.3486-4.5133 2.1111-2.1111-1.3103-3.567-3.6398-3.8582-3.567-2.0383-2.839-1.6743-1.5287-2.1839-1.0191-2.4022 0.21839-1.6015 3.7126-1.8199-0.29117-2.7662-2.9118-2.6934-0.1456-1.6743 0.87355h-2.0383l-1.7471-0.80076-2.6934 1.2375-2.0383 1.3831-1.3831 0.0728-0.58237-1.0191-1.0191-4.0038-1.6743-2.4022-2.1111-0.87355-4.9501-0.72797-3.3486 0.65516-4.8773 0.43677-1.3103-1.3831-1.216-1.986 0.42402-1.9768-0.39688-3.638-0.26458-3.4396-0.79375-2.1828-2.3813-0.52917-2.5135 0.13229-4.3656-1.3229-2.1167-2.8443-3.5719-5.2255-3.175-5.6886-0.46302-3.638-2.1167-2.3812-0.33073-1.7859 1.0583-1.5214 3.5057 0.13229 1.3229-1.0583-0.33073-2.0505-1.8521-1.2568-0.33073-1.1906 1.5875-0.85989 0.13229-1.3229-4.0349-4.101 0.06615-1.5214 1.3891-1.0583-0.7276-1.5214-1.1906-0.0661-2.4474-0.39687-2.4474-0.0661-2.0505 0.52917-1.1906 1.7198-2.249 0.8599-2.3151-2.3151-0.26458-2.1828 0.59531-2.712 1.4552-5.2917-0.39688-2.1167-2.249-0.66146-3.175 0.33073-1.7859 0.7276-2.9104 5.4901-3.1089 4.8286-1.9844 0.72761-1.9182-0.13229-3.7042 1.9182-1.5875-0.19843-0.8599-1.0583-0.13229-3.5057-0.66146-1.1245-1.2568-0.33073-1.9844 1.2568-3.3073 3.5719-2.7781 1.5214-2.9766 0.66145-6.7469 0.26459-5.3578 2.0505-0.79375-1.5875-4.7625-0.19844-0.46302-2.4474 1.5214-3.7042 0.7276-2.9766-1.0583-3.8365-4.6302-1.7198-2.1828 0.66145-1.0583-0.7276z" style="fill-rule:evenodd;fill:#fffecc;stroke-linecap:round;stroke-linejoin:round;stroke-width:.52917;stroke:#000000"/>
  <path d="m-112.78-39.561v-1.6015l1.3103-0.29118 1.0191 1.0191-0.87355-1.7471-2.0383-0.72796-0.72795-1.1647 1.6015-0.29118 2.9118 1.7471 0.72795 2.1839v1.4559l-1.6015 0.58236h-1.6015z" style="fill-rule:evenodd;fill:#fffecc;stroke-linecap:round;stroke-linejoin:round;stroke-width:.52917;stroke:#000000"/>
  <path d="m-103.61-39.561-1.4559 0.29118 0.29118 1.3103 1.8927 0.29118 1.3103-1.1647-0.43678-1.4559-0.87354-1.3103-0.72795-0.72795-1.1647 0.58236v1.3103z" style="fill-rule:evenodd;fill:#fffecc;stroke-linecap:round;stroke-linejoin:round;stroke-width:.52917;stroke:#000000"/>
  <path d="m-80.025-38.833-2.3295 1.0191-1.4559 0.43678-0.43677 0.58236 0.87355 1.1647 1.4559 1.1647 2.6206 0.29118 1.6015-1.1647 0.29118-1.7471 1.3103 2.0383-1.4559 2.3295-4.0765-0.29118-2.0383 0.29118-0.72795 0.43677 1.3103 1.0191 3.203 0.14559 2.0383 0.58236 2.7662-0.87354 1.3103-1.7471v-2.6206l-0.87354-1.6015-0.72795-1.4559-1.7471-0.29118z" style="fill-rule:evenodd;fill:#fffecc;stroke-linecap:round;stroke-linejoin:round;stroke-width:.52917;stroke:#000000"/>
  <path d="m-63.282-32.5-0.58236-1.1647 0.94634-0.65516 2.3295-0.21839 1.3103-1.6015 1.1647 0.21839 0.43675 2.0383v1.8927l-2.0383 0.72796-1.7471-0.14559-0.87355-0.50957z" style="fill-rule:evenodd;fill:#fffecc;stroke-linecap:round;stroke-linejoin:round;stroke-width:.52917;stroke:#000000"/>
  <path d="m-33.508-6.0753-2.1111 0.80075-0.80076 1.5287 0.21839 1.3831 2.1839 0.58236s1.2375 0.36398 1.6015 0.36398c0.36399 0 2.4023-0.072795 2.4023-0.072795l1.5287 0.14559 1.0919-1.2375-0.43677-2.1839-2.1111-0.65516-2.5478-0.80075z" style="fill-rule:evenodd;fill:#fffecc;stroke-linecap:round;stroke-linejoin:round;stroke-width:.52917;stroke:#000000"/>
  <path d="m-10.942-33.81 0.21839-1.6015 0.94636-0.58236v-1.2375l1.6743 0.0728 1.3831 0.14559 0.65516 1.8199-0.072787 1.7471-1.9655 0.36398-1.8927 0.14559z" style="fill-rule:evenodd;fill:#fffecc;stroke-linecap:round;stroke-linejoin:round;stroke-width:.52917;stroke:#000000"/>
  <path d="m-2.3518-30.607 0.36396-1.1647 1.0919-0.72795 0.72795 0.36398-0.58235 2.0383-0.87355 0.58236z" style="fill-rule:evenodd;fill:#fffecc;stroke-linecap:round;stroke-linejoin:round;stroke-width:.52917;stroke:#000000"/>
  <path d="m5.4373-8.4047 0.43677 1.4559 1.8927 0.65516 1.8927 0.29118 1.6743-0.80075 0.58237-0.29118v-1.4559l1.2375-0.72796 2.6934-2.3295 1.3103 1.1647 1.1647 1.6743 0.87355 1.8199-0.80074 1.6743-1.9655 0.87355s-0.36399 0.50957-0.50956 0.87354c-0.1456 0.36398-0.50959 0.72796-0.50959 0.72796l-0.50956-0.65516-1.0919 0.21838-1.7471 0.72795-1.7471 0.072797-1.3831-0.65516-1.2375-1.0191-1.0919-0.80075-1.3103 0.65516h-2.2567l-1.8927-0.43677-2.0383-0.87355v-0.87355l1.1647-1.6743 2.1111-0.36398 2.1111-0.29118 0.43677-0.14559zm0.80076 7.9347-1.0191-0.072795-0.72795 0.36398 0.1456 1.0191 1.6743 0.072795 1.3831-0.21839 0.36399-0.94634-0.94634-0.50957zm6.5516 0.58236-0.2912 1.3831 1.1647 0.65516s1.0919 0.50957 1.3831 0.50957c0.29117 0 1.0919-0.58236 1.0919-0.58236l-0.1456-0.94634-0.87355-0.50957-1.6015-0.65516z" style="fill-rule:evenodd;fill:#fffecc;stroke-linecap:round;stroke-linejoin:round;stroke-width:.52917;stroke:#000000"/>
  <path d="m43.582-18.159 1.4559-1.0191-0.72797-1.5287-2.2567 0.21838-0.94634 0.58236-0.14557 1.0191 1.0191 0.94634z" style="fill-rule:evenodd;fill:#fffecc;stroke-linecap:round;stroke-linejoin:round;stroke-width:.52917;stroke:#000000"/>
  <path d="m74.957 72.034-1.3831 1.6015 0.43677 0.80075 1.2375-0.14559 0.43678-1.3103zm-6.77-42.076 0.1456 2.0383 0.65516-0.21838 0.14557-1.4559zm43.045 43.885 2.3678-0.10295 0.4118 1.5442-1.0295 0.82358-1.5442-0.41179-0.8236-1.0295zm15.339-2.2649-0.51475 0.92653 0.92655 0.2059zm-5.6622-0.92653-0.8236 1.2354v-1.0295l0.72065-0.82359zm2.9855-1.5442-1.4413 1.1324 1.1324 0.30884 0.6177-0.61769zm-0.92654 2.059-1.1324 0.82359 0.92652 0.72064 2.2649-0.2059 0.10295-1.2354zm-12.148-3.2943-2.2649 2.1619 0.10295 0.82359 2.2649-1.5442 1.0295-1.7501zm0.92655 3.1914-2.4708 0.30884 0.10295 0.92653 1.956 0.41179 2.6767-0.51474 1.2354-2.059-2.5737 0.41179zm-1.7501 3.3973 0.61769-1.3383-1.7501-0.10295-0.92654 1.1324 0.92654 1.2354zm6.2799-25.428 0.10295-3.0884v-1.4413l0.61769-0.2059 1.2354 0.82359 1.5442 1.8531 0.8236 1.7501v1.0295l-1.3383 0.41179-1.6472 1.956-2.4708 1.6472-0.61767-0.92654 0.61767-1.1324 1.0295-1.2354zm-0.72065 7.2064-0.30885 1.956h-0.72062l0.30882-1.3383zm0.6177 0.2059 0.61769-2.1619 1.4413-0.61769 0.61769 0.92653-0.51474 1.6472-1.2354 0.92654zm3.7061-2.5737 1.4413-1.0295 0.92652 0.4118-0.20587 0.82358-1.0295 0.30884-0.82359 1.0295-0.72062 0.2059-0.10295-0.82359zm2.7796 1.6472-1.0295 0.82359-0.92654-0.2059 0.30884-1.0295 0.6177-0.41179zm0.10295 0.72064-0.51475 0.72064 0.8236 0.92654 1.0295-0.92654-0.4118-0.82358zm-6.4857 1.7501-2.3678 1.956-2.4708 2.4708-0.72065 1.6472 1.8531-0.2059 2.1619-2.1619 1.8531-2.1619 2.1619-1.1324-0.41179-0.82359zm-2.5737 5.8681 0.72064 1.7501 2.8825-1.3383 1.1324-2.059 0.30884-1.8531-1.5442-0.2059-1.3383 1.2354-1.5442 1.5442zm-4.5297 1.5442 0.51475-1.2354-0.8236 0.30884-0.6177 0.72064zm10.295-5.8681 0.10295-0.82359-1.1324 0.4118 0.41179 0.72064zm1.8531-0.41179s-0.30885 1.6472-0.82359 1.6472c-0.51475 0-1.0295-0.51474-1.0295-0.51474l0.72062-1.1324zm-8.03 8.2359-1.7501 2.1619 1.5442 0.51474 2.3678-0.61769 1.0295-2.2649zm4.9415-0.82359-0.10295 1.0295h1.7501l0.2059-0.82358zm2.1619 1.5442-1.0295 1.7501-1.3383 0.82359-0.4118 1.0295 1.1324 0.4118 1.6472-2.5737 2.3678-0.92653 0.2059-0.30884zm2.4708-1.2354s0.10295 1.2354 0.51474 1.1324c0.4118-0.10295 1.0295-1.5442 1.0295-1.5442zm31.771 15.026-1.0595-0.44468-1.7471-3.2758-2.4023-1.4559-3.6398-1.9655-4.5861-1.3831-3.203-0.29118-3.4942 0.14559-0.43678 0.72795 8.6627 2.7662-0.21838 0.65516-8.5899-2.0383-1.0192 0.29118-0.50956 1.6743-1.7471-1.1647-3.567-0.36398-2.6934-1.6743-1.7471 0.29118-2.6206 0.29118-1.5287-0.0728-0.29118 1.0191-1.4559-0.80075-1.7471 0.43677v2.6206l-0.21839 0.87354-1.0192-0.14559-0.58234-0.29118-0.58238-0.58236-1.0191 0.21839-1.8927 0.29118-1.3103-0.43678 2.3295-0.07279-0.0728-1.0191-2.1838-0.58236-2.475-1.3103 1.2375-1.1647 0.21838-2.839 1.8927-2.7662 1.0919-1.6015-3.3486-1.0191-4.7317 1.6015 7.0612-3.4214 3.8582-3.931 1.3103-3.4214-0.29118-1.6015-1.8199 1.9655-2.1839 2.7662-1.0192 0.29118 1.3831-1.7471-0.72795-0.65516-1.7471 0.72796-1.2375 1.3103-0.36398-1.7471 4.1494-1.8927-0.1456-1.4559 1.1647 1.0191 1.5287-0.43677 0.1456-1.9655 2.4022-3.0574 0.1456-3.4214-1.1647-1.6015-0.0728-1.3103-0.29121-1.5287-2.0383-0.72795h-3.7854l-0.80074-0.80075-0.58237 0.14559-0.21839 0.87355-3.3486-1.3103-2.1111-1.4559-1.8199-2.1111-1.8927-2.9118-4.3677-2.9846-0.80074 0.07279-0.36399 0.50957 3.931 5.4597-2.7662-2.3295-4.4405-1.2375-1.9655-0.50957-0.94634 0.58236 0.65516 1.2375 1.0191 0.80075-1.4559 0.36398-2.6934-2.9846-2.4023-2.1111-1.6743-1.3831-0.87355-0.80075-0.80076-0.50957-2.0383-1.2375-3.1302 0.07279-2.1838 1.5287-0.58237 1.5287-0.43678 2.6206 0.35986 1.8224 0.1497 2.0358-1.4559 1.5287-0.72795 1.8199-1.9655 2.6206-0.36399 1.3103 0.94636 1.0919 0.65513 1.9655 0.72798 0.94634-0.1456 0.87354-0.50956 0.36398-0.72795 1.3103v1.3103l1.2375 1.0191 1.5287 1.0191 0.50956 0.94634-0.21839 1.3831 1.4559 0.65516 1.3103 1.1647 1.1647 0.80075 1.6015-0.94634 1.8199-1.6743 0.65516 0.50957 0.07279 1.7471 1.3103 1.3103-0.43677 1.6015v1.3831l0.43677 1.3831 0.80074 0.94634 0.80076 0.29118v1.4559l-0.94634 0.94634-0.58238 0.94634-0.87355 1.5287-0.43677 0.80075 0.36399 0.94634 1.0919 0.80075 0.21839 0.58236-0.36399 0.65516-0.87355-0.43677-0.65516-0.14559-0.58235 1.0191 0.58235 0.80075-0.72795 0.58236-1.6015 0.36398-2.2567-0.21839-2.6206 1.1647-1.6015 0.07279-1.1647 0.80075-2.839 0.94634-1.5287 1.1647-1.4237 0.97609 0.20992 1.4787 5.256 5.1216 0.74835 0.04677 1.029-0.56127 2.2918 0.14032 1.7306 0.46772 3.6482 2.058 1.2161 1.7773 1.029 1.6838 0.4677 1.1225 1.9645 1.029 1.7306-0.23386 1.2161-0.8419 4.3498-0.88867 1.2629 0.18709 3.1805 6.1272 2.2918 1.637 5.753 1.4967 1.0758 0.8419 0.70157-0.18708 1.5902-1.7774 2.2918-0.70158 2.1047-0.3274 1.1226-1.3564 3.6482-1.637 0.93543-0.70158 1.4032 1.7773 1.029 2.4322 1.4499 0.65481 2.8063-0.98222 2.1047-1.0758 0.0936-0.8419 2.058 0.60804 2.6192-1.3096 10.991-0.14032 5.5191-4.5837h3.3208l0.28062-1.6838 1.029-3.4144 1.8709-1.4967 3.4612-0.93544 1.029-1.7306-0.42095-1.2161zm-48.757-42.102-1.2354-1.7501-1.2354-0.30885-0.30885 0.61769 1.1324 0.92653 1.1324 0.82358z" style="fill-rule:evenodd;fill:#fffecc;stroke-linecap:round;stroke-linejoin:round;stroke-width:.52917;stroke:#000000"/>
  <path d="m51.517 154.07 0.07281 1.0919 0.72795 0.36398 0.50956-0.80076-0.36396-1.0191z" style="fill-rule:evenodd;fill:#fffecc;stroke-linecap:round;stroke-linejoin:round;stroke-width:.52917;stroke:#000000"/>
  <path d="m-233.22-5.2541 2.7282 3.037 1.0919 0.29118 0.21839 1.0191 2.1111 1.4559 1.3103 1.9655-0.50957 1.7471 0.65516 2.475 1.5287 2.4022 3.3486 2.6934 1.4559 0.43677 7.7163 0.21838 3.2758-1.2375 1.8927-0.87354 4.8773-0.14559 2.2567-1.1647h1.8927l3.4942-2.6206 2.6206-0.072795 6.1148-2.1111 2.1111-1.2375-1.2375 1.2375 1.0919 0.50957 1.6743-0.29118 3.567-1.9655 2.3294 0.36398 4.0766 2.0383 3.7854-0.58236 4.1493 0.36398 2.6934 0.43677 2.7662 0.72796 1.3103-0.21839 1.3831-0.80075h3.0574l1.5287 1.8199 1.3103-0.43677 1.9655-1.8927 4.2949-0.50957 1.3103 0.14559 1.3103 1.9655-1.8199-1.8927-0.87354 1.5287 0.80075 1.3831 0.87354 1.0191 2.475 0.65516 2.839-0.14559h4.5861l2.1839-0.21839-2.839-4.8045-0.29118-3.2758 0.87355-1.3831 0.94634-0.58236-1.3831-1.1647-1.0919-0.36398 1.3831-1.0191-0.43677-2.3295-0.80075-1.4559-4.6589-5.3869-4.4405-2.7662-3.0574-1.4559-3.931-2.6206-1.3831-0.80075-6.042-0.21838-3.567-1.5287-3.4214-1.0191-1.4559-0.29118-2.4022 1.6015-2.4022-0.80075-4.0038 0.50957-1.0919 0.72795-2.5478-1.3831-4.0765-9.1722-0.58237-5.4597-1.3831-2.475-0.65516-3.1302-1.3831-2.1111-3.1302-1.0191-2.1839 0.58236-1.8927 1.6743-2.4022 0.94634-0.87354 1.6743-1.3831 2.475-1.1647 3.2758 0.65516 2.1839 2.0383 1.9655-0.58236 4.0037 0.29118 1.3103 1.3831 0.14559 3.2758-0.94634 5.2413-0.72795 1.8199-0.58236 1.7471-0.36398 1.0919 1.2375 0.65516 2.475 1.0191 2.2567-0.80075 1.7471-1.7471 1.0919-2.5478-0.21838-1.5287-1.4559-2.3294-1.6015-1.3831 0.65516 0.0728 1.8199-1.6743 0.21838-1.0919-0.21838-0.58237 0.21838s-0.80075 1.1647-1.0191 1.5287c-0.21839 0.36398-1.4559 1.3831-1.4559 1.3831l-4.5861 1.0191-3.3486 1.0191-1.6015 0.80075-1.3831 1.0191-6.6244 0.21838-5.5325 2.0383-6.042 2.5478-4.0037 2.6206z" style="fill-rule:evenodd;fill:#fffecc;stroke-linecap:round;stroke-linejoin:round;stroke-width:.52917;stroke:#000000"/>
  <path d="m-102.66 59.513 1.0191-2.0383-0.0728-2.2567 1.5287 1.3831 1.2375 0.87354 0.43677 2.475-1.3103 2.6206-1.8199 1.3831-0.87354-0.58236-0.65516-1.8199z" style="fill-rule:evenodd;fill:#fffecc;stroke-linecap:round;stroke-linejoin:round;stroke-width:.52917;stroke:#000000"/>
  <path d="m-103.76 157.13-1.7471-0.80075-2.475-1.2375-2.9846-0.80075-2.1839 0.0728-3.7126-0.21839-2.3294 0.58236-0.43678 1.3103-3.4942 1.3103-2.7662-1.2375-3.567 1.8927-1.2375-0.50957-1.3831 0.43677-2.1839 0.29118-1.6015-0.87354-2.1839-0.0728-2.475 1.0919-2.3294 0.0728-1.3103 1.0191-1.4559 0.0728-1.7471-1.3103-1.8927 0.0728l-0.94634-0.58236c-0.94634-0.58237-3.4214-0.14559-3.4214-0.14559l-3.567-1.0191-2.839-0.43677-2.6206 1.3831-2.2566 2.6206 0.65515 0.72795-0.58236 0.72795-1.8199-0.72795-1.0919-2.2567-3.4942 1.0919-0.80074-0.36397-0.14559-1.5287-2.5478-2.475-0.94634-1.3103-1.0191-1.3103-0.72795-0.43677-1.4559-1.8199v-1.0191l-1.2375-1.7471-0.94634-0.29118-4.2221-5.3141 0.0728-0.87354-1.3103-1.8927-0.94634-0.29118-4.7317-5.6052-0.1456-1.2375-1.7471-1.8927-3.567-0.0728-3.0574 1.7471-4.0037-2.839-1.8465-0.0817-1.8531-2.8826h-11.736l-1.8531 2.059-2.2649 2.059-2.059-0.20589-1.0295-1.8531-16.06-0.41179-1.0295-1.4413-0.82358-0.2059-1.6472 1.4413h-2.4708l-2.2649 0.82359-4.9415 0.20589-1.6472-0.82358-3.2944-3.912-0.41179-1.0295-1.0295-2.6767 1.0295-2.2649-2.2649-2.2649-5.3276-0.30366 0.83796-1.0088 1.6015-0.0728 2.0383 0.29119 1.9655-0.58237 1.6015 1.3831 2.475 1.4559h2.2566l2.6934-1.2375s1.337-1.9958 1.7779-2.702c0.63218 0.0865 2.5898 0.44531 2.5898 0.44531l1.7471 1.5287 2.1111 0.58236 1.0919-0.80075 1.6015 0.65516 2.5478-0.36398 1.3831-0.65516 2.475 0.21839 5.3141 0.80075 1.9655 1.6743 2.6934 0.14559 4.9501 2.0383 2.2567-0.65516 4.0765 1.0191 1.7471 0.29119 1.8199-1.3831 2.1111-0.0728 2.475-2.1111 1.2375-0.80075 2.6206-0.65516 0.72795-1.0919 1.8927-4.5861 1.4559-0.21838 1.6015 0.21838 1.6743-0.50957 3.1302-2.839 1.9655-1.0191 2.475 0.29118 1.6015-1.5287 1.3103-0.94634 4.5861-0.72795 3.4942-2.5478 4.1493-2.9846 2.6934-1.8199 4.5133-0.21839 2.6206-0.36398 2.6206 0.80075 0.94634 1.6015 1.3831 0.72796h1.0191l1.8927-0.50957 1.8199 1.8927 0.94634 1.1647 4.3677 0.36398 1.6743-0.65516 2.9846 0.07279 2.9118-1.0919 1.5287 0.36398 2.839 0.36398 1.7471 0.87354h1.5287l2.0383-1.0919 1.0191 0.14559 1.3103-1.0191 3.8582 2.1111 5.8236-0.29118 2.6206 0.29118 2.1111-1.0191h2.475l1.8927-1.3103 1.8199-0.21839 1.7471 1.7471 1.6743 0.21839 2.4022 0.29118 2.6206 1.0919 1.6015 1.1647 2.7662 1.8927h5.0229l3.4214 0.80075 2.5478 0.43677 3.0574 1.0919 2.9118 1.0191 2.1839-1.0919v-1.5287l2.3295-0.43677 0.94634-0.58236 0.36398-0.87355 1.2375 1.2375 0.58236 0.80075 1.8199 1.0919 2.475-0.21839 0.58236 1.6743 0.39602 0.77982-1.488 0.74888-2.4022 1.7471-2.1839 3.6398-2.1111 2.4022-0.94634 2.2567-2.6206 1.0191-2.6206 0.29118-2.1839 1.3831-2.3295 2.3294-2.5478-0.14559-3.7126 0.87354-1.3831 1.5287-0.21838 2.6934-1.2375 2.1839 0.65516-1.1647 2.0383 0.0728 1.0919 2.3294-0.58236 3.567 0.29118 2.4022-1.9655 2.1111-1.8927 5.5324v3.1302l-1.4559 1.4559-2.7662 0.80074-0.50957 2.1839-2.6934 1.8199-2.0093 1.8084z" style="fill-rule:evenodd;fill:#fffecc;stroke-linecap:round;stroke-linejoin:round;stroke-width:.52917;stroke:#000000"/>
  <path d="m128.2 193.95 5.5747-0.27043 1.6015-1.5287h3.4214l0.87354-1.4559 3.6398 0.21839 0.50959 3.0574 3.7126 3.7854 0.1456 1.8199-1.3103 1.2375-0.36399 8.1531-1.0919 0.43677-0.36396 1.6743-0.80077 1.6015-1.0919 0.94637-0.87352 0.50956 0.0728 3.203 0.94634 0.65516 8.0075-0.0728 0.80073 1.5287 5.0229 0.0728 1.3103 1.2375-0.14557 7.5707 0.50956 0.94634 2.7662 0.1456-0.0728 4.0037 1.0919 1.3103 0.21838 6.4788-2.7662 0.14557-0.72795 4.295-2.5478 0.0728-1.3103 1.4559-2.1111 0.65516-1.7471 1.8199 0.58235 2.1839 2.9846 0.1456-1.3103 4.2221 0.94634 1.4559-1.3103 1.6743-0.72795 2.7662-1.0191 1.3831-1.6743 2.6934 0.0728 3.7853-0.0728 4.2949-1.1647 1.6743-0.29117 1.9655 0.14557 2.0383 1.0919 1.8199 0.21838 3.203s0.36399 1.0919 0.43678 1.3831c0.0728 0.29118 1.4559 1.6743 1.4559 1.6743l1.6015 1.4559-0.58238 1.9655-1.8199 0.36396 1.8927 2.3294 3.0574 2.3295 1.8927 0.29117-0.14558 15.141 2.6934 0.94633 1.0919 2.4023 3.1302 2.6206 3.203 0.80074 6.1148 5.7508 1.2375 1.0191 4.9501 0.1456 1.8199 1.6743 2.9846 0.1456 0.1456 2.7662 3.9309 1.8199 2.9846 0.94636 0.14558 1.0919 1.6015 1.1648 1.5287 0.58234 0.80076 0.50957 0.87355-0.29118 0.29118-1.7471 0.0728-9.9002 1.3831-2.1838 1.8927-1.0192-0.36399-0.80073 2.6206-2.5479-0.36399-0.94633 2.6934-3.7854-0.36398-9.5362 1.4559-1.4559 0.29117-2.2567 2.0383-1.7471 2.2567-0.43678 1.7471-1.3831v-5.0957l-1.3103-0.87355-0.0728-2.0383 1.6015-1.2375v-6.042l2.5478-1.9655 0.94633-1.4559-0.0728-3.931-1.8199-1.1647-0.0728-5.5324-0.2912-1.0919-2.4022-0.72795-0.43677-3.3486 1.8199-1.9655-0.0728-4.5861-1.4559-1.9655-0.29117-4.6589-1.5287-1.9655-0.58235-2.1839-0.87355-1.0191-0.21839-4.8773-1.3103-1.5287-0.43677-3.0574-2.0383-1.9655-0.94634-1.6015 1.0191-1.3103 0.80077-1.6015-0.1456-11.138-4.4405-3.0574-4.6589-5.4596-2.9846-1.8927-0.72797-0.43677 0.0728-4.6589-1.3103-1.4559-0.43678-1.9655 1.2375-1.8927 0.72798-3.1302-0.21839-2.839-1.3831-1.1647-0.87355-2.1111 0.80074-1.5287 4.1494-0.2912 3.1302-3.6398 0.36399-12.157 0.72795-2.0383 0.94636-1.3103-0.1456-12.739-1.6743-1.9655 0.1456-10.264 1.6015-1.3831-0.21839-1.8927 1.8199-1.3831-0.14557-1.9655 1.6743-0.80075 0.1456-1.9655-0.2912-12.011-1.5287-1.0191 0.0728-4.0038-1.8199-3.2758-9.3906-9.6818-6.042-4.9501-5.2413-7.2795-5.0957-4.5133-6.6972-3.0574-2.5478-2.6206-5.5325-0.14559-1.6015 1.5287-2.5322 2.0016 0.56671 0.98302 0.43677 1.0919-1.1647 1.6015s-3.1302 0.80075-3.4214 0.94634c-0.29117 0.14559-1.8927 1.6015-1.8927 1.6015l-1.0919 3.6398-0.21839 1.4559-3.203-0.0728-1.7471 1.3831-2.1111 1.8927-1.7098 1.3476-0.98362 1.637-2.5478 0.80075-2.6934-0.36398-2.1111 0.14559-1.2375 1.8927 0.0728 2.4022-0.65516 2.6934-2.2567 1.3831-2.1111 0.58236-0.36396 1.1647 0.65516 2.0383 1.6015 1.0191 2.2567 2.2567 0.58235 1.2375-1.2375 1.9655-0.72795 0.72795 1.8927 2.3295 2.1839 0.72795 2.1111-1.4559 2.9846 0.58237 2.475 1.8927 1.6015 1.0191-2.475 3.4942-1.8199 1.8927-1.8199 0.43678-1.6015 1.6015-2.0383 1.7471-3.567 0.0728-2.1111 2.7662-2.0383-0.58237-2.2567-0.65516-1.0191 0.21839-1.0919-0.80075-1.4559 0.72795 0.0728 1.2375-1.9655 0.58236-2.6934 0.14559-1.7471-0.43677-1.6743 0.21838-1.5287-1.5287-0.29117 0.29118 0.29117 1.6015 1.3103 1.6015 0.72795 2.1839-0.58237 2.0383 1.4559 2.6934 0.21839 2.1839-0.36399 1.7471 0.36399 2.6206 0.80073 2.2567-1.8927 2.839s-1.8927 1.1647-2.1839 1.1647c-0.29117 0-1.3103 1.0191-1.3103 1.0191l-0.65514 1.9655-2.1839 0.87355-1.2375 1.3831-0.58235 0.21838z" style="fill-rule:evenodd;fill:#fffecc;stroke-linecap:round;stroke-linejoin:round;stroke-width:.52917;stroke:#000000"/>
  <path d="m14.141 24.287-0.19494 1.2745-1.2354 0.10295-1.4413 0.4118-0.30885 0.72064 0.2059 1.6472 0.2059 1.3383 1.6472-0.10295 0.92654 2.1619 1.0295 1.2354-0.61767 3.1914 4.7356 6.5887-4.7356 4.015-0.10295 1.8531 1.4413 2.3678 1.4413 2.8826 3.6032-1.2354 4.015 2.2649 3.5003 2.7796 4.1179 3.3973 2.8826 2.1619 1.4413 4.9415 2.059 1.2354 5.6621-0.72064 3.0885-0.30884 1.2354 0.4118-0.72062 1.2354-1.7501 0.51474-0.92652 0.2059 0.30885 2.5737 0.92652 2.1619 2.8826 1.1324 4.6327 1.3383 3.1914 1.3383 0.92654 1.8531-1.3383 0.51474-1.1324-0.51474-1.0295 1.4413-2.5737 2.4708-2.2649-0.72064-2.7796-0.51474-1.7501-0.61769-1.2354-0.72064-2.4708 1.1324-1.5442-0.92653-1.956 2.2649-2.1619 0.10295 0.4118 1.0295-2.8826 1.3383-1.1324 1.0295-2.3678 0.82359-2.9855 0.72064-1.956-1.0295-3.6032 1.7501-1.2354 0.30885-1.956 2.4708-1.5442 2.1619-2.6767 1.3383-2.7796 0.41179-3.8091-3.2943-2.7796-1.8531-2.3678 1.1324-1.5442 1.956-1.2354 0.82359-1.2354-1.0295-1.956-0.2059-2.6767 1.3383-1.1324 2.5737 1.1324 2.1619 2.1619 0.61769 0.2059 1.3383-1.7501 0.82359-3.5003 0.10295-2.1619 1.2354-2.059 1.4413-2.3678 0.51474-1.956-0.20589-2.8826-1.7501-1.8531-2.059-6.074-1.6472-4.015-1.6472-1.6472 0.10295-1.956-1.0295-1.0295 0.2059-0.8236-1.6472 1.1324-2.4708 2.6767-3.7061 0.2059-1.5442 3.1914-3.2943 1.6472-2.5737 1.2354-1.0295 2.059-6.6916-0.10295-1.7501-0.6177-1.956 0.92654-2.059 1.6472-0.41179h1.8531l1.4413-0.2059 2.2649 0.41179 0.92654 0.82359 2.059 0.2059 2.3678-5.1474-0.2059-0.61769-5.5592-3.6032-1.0295-0.61769v-1.956l-1.3383-1.8531-3.7061-1.1324h-1.4413l-2.8826-2.6767-1.2354-2.059-1.0295-1.3383v-1.4413l1.7501-0.30885 1.956-1.6472-0.30885-1.0295-1.4413-1.3383-2.059-0.10295-4.2209-3.5002-0.4118-0.41179-0.72062 1.3383-1.1324 0.2059-4.1179 0.2059-0.72064-0.82359-0.2059-1.7501-1.5442-0.51474 0.72062-3.5002-0.2059-1.7501-1.0295-2.059 0.10295-1.8531 0.2059-1.3383 2.1619 0.10295 2.4708-1.1324 1.4413-2.1619 1.4413-0.72064 1.4413-1.1324 0.27578-0.62969 9.407 1.8146 2.0383 1.0919 2.1839-0.80075 2.839-0.50957 3.4942 0.58236 3.0574-0.50957 0.72795-0.87354 0.50956-2.475 2.6206-1.5287 5.414-0.39144 1.7141 1.7587 1.0295 2.2649 2.7796 0.30884 1.5442 1.0295 2.6767 0.10295 2.6767-1.1324 3.7061-0.61769z" style="fill-rule:evenodd;fill:#fffecc;stroke-linecap:round;stroke-linejoin:round;stroke-width:.52917;stroke:#000000"/>
  <path d="m58.141 81.279h0.07279l0.43677-0.36398 1.4559-1.2375 1.9655-1.7471 2.1111-1.0191 3.1302-0.07279 0.80076-0.65516 1.8199-1.1647 1.8199-0.58236 0.1456-0.94634 0.87355-1.3831 1.9655-1.0919 1.5287-1.0919 1.4559-0.72795 1.2375-2.5478v-1.3831l-0.87355-1.4559-0.41648-2.2153 0.72062-2.5737-1.5442-0.51474-1.7501 0.92653-1.4413-0.41179-1.8531-0.2059-1.3383 0.41179-0.30885-0.82358-1.6472 0.2059 0.2059-1.3383v-1.8531l-0.82357-0.2059 0.30885-0.61769 0.41177-0.92653-1.3383-1.0295-1.2354-0.72064-0.30882-1.1324s0.61767-1.5442 0.72062-1.956c0.10295-0.4118 0.4118-0.61769 0.4118-0.61769l-0.92654-1.2354 0.72064-0.92653-0.51475-1.0295-1.0295-1.1324-0.8236-2.3678 0.72065-0.61769 1.4413-1.1324 2.059-3.1914 0.19712-2.3819-1.3191-2.8531-1.5287-1.6015-0.58237-0.50957v-2.4022l-1.6015-4.2949-0.14557-0.94634-2.7662-2.0383-1.3831 0.14559-0.43677 1.4559-0.09094 0.84521-0.63757 2.845h-4.1179l-1.0295 1.2354-1.0295-0.92654-1.6472 0.2059-1.4413-0.82359-2.1619-0.30884-1.8531-1.8531-2.9855-1.5442-3.0884-0.10295-2.9855-0.72064-1.3383-1.2354-1.8531-0.30884-1.6472-1.956-1.5442 0.30884-2.9855 2.4708-1.7501 0.10295-3.2943 0.2059-1.8531 2.8826-3.2943 1.1324-2.171 0.73717-0.18322 1.1587-1.2898 0.13229-1.4221 0.42995-0.26458 0.69453 0.39688 2.9766 1.6536-0.03307 0.92604 2.1167 0.99219 1.2898-0.59531 3.1089 4.7294 6.6477-4.5971 3.9357-0.19844 1.9182 1.4221 2.3482 1.4221 2.8443 3.5884-1.2072 4.0184 2.2655 10.517 8.4005 1.4883 4.9609 1.9844 1.1906 8.7974-1.0583 1.1906 0.39688-0.62838 1.2237-2.7781 0.79375 0.29766 2.6128 0.99219 2.1167 7.5737 2.4805 3.1089 1.2568z" style="fill-rule:evenodd;fill:#fffecc;stroke-linecap:round;stroke-linejoin:round;stroke-width:.52917;stroke:#000000"/>
  <path d="m-8.2525 223.46 0.44098-2.9911-0.65516-5.5325-0.72795-2.6934-2.6206-0.58235-2.1839 0.21839-4.5133-1.4559-2.5478-3.1302-3.6398-5.5324-2.6934-4.9501-0.58237-3.7854-2.1111-2.475-0.1456-1.5287 1.0191-1.5287 3.3486 0.0728 1.3831-1.0192-0.36396-2.1111-1.6015-1.1647-0.43678-1.1647 1.6015-0.80074 0.21839-1.2375-1.2375-1.1647-1.3831-1.3103-1.6015-1.8199 0.1456-1.6015 1.3103-0.94634-0.72797-1.5287-3.6398-0.58237-2.5478 0.0728-2.0383 0.65516-1.2375 1.6015-1.8927 1.0191-1.1647-1.0191-1.3103-1.8199-0.21839-1.8927 0.50956-2.7662 0.87355-2.6934 0.65516-2.3294-0.43677-2.2567-2.0383-0.72795-3.203 0.29118-2.0383 0.72795-1.3103 2.5478-3.0574 5.5325-1.6743 2.3294-2.1838 0.72795-1.7471-0.0728-1.8199 0.87354-1.7471 0.87355-1.7471-0.0728-0.72795-1.4559-0.29118-3.4942-0.43677-0.80075-1.4559-0.29118-1.8927 1.3103-3.2758 3.567-2.6206 1.5287-2.475 0.50957-3.4214 0.29118-4.0037 0.0728-1.7471 0.65516-2.0383 0.72796-1.5287 0.58236-0.80075-1.6015-2.4022-0.0728-2.475-0.14559-0.43677-2.2567 1.5287-3.4942 0.72795-3.203-1.0191-3.8582-2.3295-1.0191-2.3295-0.72796-2.0383 0.65516-0.94635-0.65516-0.72795-1.0191-0.66999-0.74449-0.78592 1.4724 1.0191 2.3294 1.0191 0.43678 0.0728 1.6015v0.87354l-1.8199 0.65516-0.21838 0.87354-1.9655 1.6015-2.4022 3.7854-0.72795 2.0383-0.0728 2.0383-0.14559 5.2413-0.94634 1.6015-3.3486 2.0383-2.3294 1.8927-0.58236 1.2375 0.36397 2.2567-0.21838 3.7126 0.58236 1.4559 1.0191-0.36398 0.50956-0.94634-0.29118 2.0383-1.0191 1.8927-0.14559 2.0383-0.29119 2.3295 0.29119 2.839-0.65516 3.6398-0.94634 2.1839v2.6206l1.6743 3.2758 1.1647 2.9846-0.80075 3.203 0.14559 2.0383 0.94634 1.8927 1.2375 1.4559 2.1839 1.7471 0.87355 1.0919 1.1647 0.43677-2.3295 0.65516 0.0728 1.7471 1.1647 2.5478 1.3831 3.7854 0.65515 0.87355 2.839-0.1456 1.2375 0.65516 1.0191 2.1838-0.0728 2.9846 2.0383 2.5478 0.87354 0.94634h1.3831l1.0919 2.4023-4.2949 4.6589-0.0728 1.3103-1.7471 0.21839-5.8236 5.0229-7.9347 7.1339-0.14559 1.2375 1.2375-0.1456 2.4022-0.21839 0.50957-0.43677 1.0919 1.0919 3.8582 0.29118 0.43677 1.0192 0.29118 2.6934 0.65516 0.72795 1.8199-0.50957 3.203 2.839 2.0383 2.0383 4.0765 3.567 1.8927 1.8927 0.72795 1.0191-1.1647 1.8927v2.1111l1.2375 2.6206 0.21839 0.80076 1.2375 0.43678 0.07279 2.2567-0.21838 1.6743 0.43677 1.0192 1.3831 1.6015 0.87354 3.7126 1.5287 4.3677 1.3831 2.1838 0.50957 5.0957 0.43677 2.0383 1.6015 1.3103-0.07279 2.6934 0.80075 1.5287 1.6743 1.4559 2.3295 1.8199 14.122 12.666 2.1111 0.0728 1.4559-0.58238 1.9655 1.0919 1.9655-0.36399 1.4559-1.3103 2.4023-0.29117 1.3831-1.7471 2.2567-2.475 4.8773-2.4022 4.5133-0.1456 2.3295 1.0919 1.0919 1.9655 0.21839 3.1302-1.6015 2.0383-0.80074 1.3103 0.07279 1.0192 1.4559 0.94634 2.6206-1.0191 1.0191-2.9846 0.94634-2.4022 2.1111-2.839 1.6015 0.0728 1.3103 0.50959 1.6015-0.50959 0.87355-5.3868 1.0191-1.3103 2.1838-0.65516 1.6743-0.0728 2.4023-2.1111 1.7471-0.43678 2.2567-2.4022 1.7471 0.29117 1.1647 1.1647 1.0919 0.1456 3.9309-2.7662 1.5287-2.6934 4.7317-3.203 2.0383-0.36396 1.2375 0.36396 0.29117 1.5287 1.0919-0.21839 6.2604-4.8045 1.0919-2.9118 0.1456-6.2604 1.3831-2.6934 2.6206-1.0191 3.3486-0.50959 2.6934 0.21838 3.7853-2.6206 2.6934-2.1839 4.5133-0.43678 1.4559-0.65516 0.21839-2.1111 1.0191-0.94633v-1.9655l-0.29117-0.87354v-1.2375l-1.1647-1.0919-5.0229-0.1456-3.567-0.1456-4.5861 0.50959-3.1302-0.43678-1.6015-1.0191-3.1302-0.29118-1.0919-0.94633v-1.6743l1.4559-2.4022 0.43678-2.9118-1.0919-4.4405-2.7662-4.1493-1.7471-2.7662-1.6743-1.7471-1.0191-1.6015 0.2912-5.7508-0.65516-2.1839 0.21839-3.4214 1.3831-1.8199-0.072787-1.9655-1.3103-2.0383-2.475-2.6206-6.1148-3.0574-4.0038-4.8045-2.2567-2.5478-1.3103-2.7662-0.50956-1.1647-2.6934-1.6743-0.36399-2.4023 0.80076-1.2375 1.6743-0.43677z" style="fill-rule:evenodd;fill:#fffecc;stroke-linecap:round;stroke-linejoin:round;stroke-width:.52917;stroke:#000000"/>
  <path d="m-45.044 29.679-0.4118-0.10295-1.3383-0.61769-1.5442-0.61769-2.2649 0.2059-1.956 0.51474h-2.6767l-1.6472-0.82358-1.8531 0.10295-1.956 0.30884-1.6472-0.41179-2.5737-0.51474-0.72064-0.72064-0.82359-1.0295h-1.4413l-1.6472 0.61769-2.9855 1.8531-2.5448-0.13118-0.07158 3.2475 0.58236 1.1647-0.43677 1.4559-0.80075 1.8199-1.0191 0.80075 0.80075 0.94634 2.1111 2.3295-0.21839 1.3103-0.80075 2.2567 0.58236 1.5287 0.58236 0.07279-1.2375 3.4214-0.94634 0.43677v0.94634l-0.80075 0.87354h-1.6015l-2.4022-1.3103-1.4559-0.43677-1.4559-0.80075-1.5287-0.43677-2.4022-1.0191-1.0191-1.6015 1.2375-1.5287h1.8199l1.3831-1.3831 0.36398-1.2375 0.29118-1.1647-1.0919-1.4559-1.8199-0.36398-0.0728-1.0191-1.7471-0.87354-1.7471-1.3831-2.1839-1.4559-1.4559-2.4022-3.4214-0.14559-3.2758-0.80075-1.7471-1.0919-2.1111 0.14559-1.4793 0.62404-0.0494 1.7054-1.3103 0.07279-1.0191 0.80075-1.6015 0.50957-1.1647 1.2375-0.94634-0.14559-1.0919-1.5287-1.6015-1.3831-0.94634-0.36398-1.0607 1.7282 2.8078 3.9499 0.65516 2.0383-2.0383 1.7471-1.4559 0.87355-2.6934 0.72795-0.58237 1.9655-0.50956 1.5287 1.0191 2.1839 0.50957 1.8199-0.58236 1.8199 1.0191 1.2375 1.0191 2.3295 0.0728 2.9118 0.50957 3.4214-1.9655 2.5478-1.5287 1.3103-1.0919 2.1839-1.3103 3.0574 0.29118 2.1839 0.36398 3.6398-0.98116 2.8147 0.61718 0.75232-0.0728 2.5478 1.8199 0.21838 2.3295 0.87355 3.203 3.567 1.8927 1.8199 1.3831 0.14559 2.0383 1.3103v2.5478l1.1647 2.1111 0.65779 2.0377 1.2349 1.4565 2.2566 1.0191 3.8582 0.50957 1.7471 1.6015 1.2375 0.14559 1.3831 1.7471 3.8582 0.43677 2.4022-0.29118 11.356 3.4214 1.6015-1.1647-0.07279-1.8199 3.0574-0.29118 1.2375-1.3103 1.3518 1.1492 2.288 1.8354 1.6015-0.0728 1.0504-0.0464 1.8769 2.6699 1.586 0.5795 2.1111-0.72796 1.8199-2.1839 2.475 0.80075 2.7662 0.29118 3.2758-0.58236 2.0383-2.1111 2.1839-2.839 2.475-1.0919 3.7853-0.94634 3.567 1.6015 1.4559 0.0728 1.7471-0.50956 0.05032-0.03753-0.93543 0.09354-2.058-1.029-0.98221 0.04677-0.7016-1.7306 0.98224-2.5257 2.7128-3.4611 0.23386-1.5903 3.1337-3.3208 1.7306-2.5725 1.2161-1.1225 2.047-6.5031-0.13229-1.8025-0.59531-1.9182 0.9095-2.1167 1.6371-0.38034 1.8852 0.06615 1.3395-0.23151 2.3482 0.42995 0.97565 0.79375 2.0174 0.13229 2.3482-5.0436-0.26458-0.7276-6.5319-4.0845 0.05789-0.83509-0.61185-1.8686-0.74414-1.1327-3.6794-1.1576-1.5544-0.03307-2.9435-2.7451-1.0914-1.9513-1.0583-1.4221 0.06615-1.356 1.7859-0.3638 1.7859-1.6536-0.33073-1.1245-1.356-1.2568-2.2159-0.13229-4.4648-3.8365-0.76068 1.3891-5.3247 0.33073-0.59531-0.76068-0.19844-1.7859-1.5875-0.46302 0.7276-3.638-0.09922-1.6206-1.1576-2.1497z" style="fill-rule:evenodd;fill:#fffecc;stroke-linecap:round;stroke-linejoin:round;stroke-width:.52917;stroke:#000000"/>
  <path d="m-232.82 58.349-0.1456-1.2375-1.7471 0.94634-3.4942 0.72795-3.203 1.0191-3.0574-0.07279-2.2567-0.29118-2.0383-2.1839 0.43677-1.9655-0.65516-1.6015-1.6743-0.36398 1.6015-1.4559 1.3831-0.43677-0.0728-1.0919-1.0191-1.6015-1.9655-0.94634-1.6743-1.7471-1.9655-1.3831-1.1647 0.65516-0.50957-1.4559v-3.3486l-0.21839-1.2375-2.4022-1.6015-2.3294-3.7854 1.2375-2.1839 3.931-5.6052 0.21838-1.8927 3.2758-1.9655 1.8927-3.4942 1.5287-3.3486 3.4214-2.4022 1.3831-0.80075 0.29118-2.9118 0.87354-0.58236 0.14559-1.7471 0.50957-0.87355v-2.6934l-2.6934-2.7662-1.1647-2.6934-0.29118-2.2567-1.0191-1.7471-1.7471-0.43677-1.6015-0.29118-1.6743-2.6206 1.8199 2.0383 2.3294 0.50957 1.8927-0.072795 1.6015 1.0191 1.0191-0.58236-0.14559-0.87355-3.4942-1.6743-3.1302-3.203-2.1111-3.3486-1.3831-3.7126-0.80074-4.5133 1.3103-2.6206 0.65516-0.94634 2.6206-1.0191 1.8199-0.43677 2.9846-0.43677 2.2567-0.43677 2.7662-0.43677 3.4942-0.80075 3.3486-2.2567 0.21838-1.5287-1.3103-0.87355-2.6934 1.3103-1.2375 0.87355-1.0919 0.58236-2.7662 0.36398-3.3486 0.94634-1.3831-0.21839-1.7471 0.80075-0.87354 0.58236-2.0383 0.29118-5.5324 2.6934-5.4597 8.7354-1.3103 3.1302-1.7471 2.475-0.87354 1.6743-5.8236 0.94634-1.3103 1.3831-1.2375 2.9118-2.6934 3.0574-2.1839 2.4022-0.87354 2.9846-0.14559 1.1647-2.9846 3.567-1.4559 2.9846-1.5287 2.839-0.65516 4.8773-0.21838 4.5133-0.0728 1.4559-0.80075 1.0191-1.0919 2.6934-0.29118 2.6934 0.65516 1.8199-0.0728 1.4559-1.5287 1.6743-1.3831 2.5478-0.94634 2.475-0.43678 1.7471-3.0574 2.2567-1.5287 2.1111-1.6015 2.6206-0.14559 1.8927-2.2567 2.5478-1.1647 1.0919 0.72795 1.4559 0.80075-0.14559 0.80075-0.94634 4.4405-0.29118 5.0957-3.7126 1.6743 0.29118 0.65515 2.839 0.43678 2.1839-0.21839 0.50957 1.3103 0.72795 1.1647-0.50957 1.8199-0.72796 1.7471 0.65516 1.7471 6.406 1.0191 4.0037 1.0919 5.3141 0.65516 1.2375 7.17 8.6087 2.6574-1.9115 0.49792-1.7704 0.15723-0.55906 2.6206-0.72795 1.5287-0.72795 1.3831 0.21838 0.80075-0.65516h1.4559l1.2375-1.0919 0.43677-0.80075 1.4559-0.87354 0.72795 1.4559 0.43677 1.0191 1.5287-1.0191 1.7471-0.07279 1.8199-1.5287 1.0919 1.2375 1.4559 0.43677 1.1647-0.29118 0.65516-2.5478 3.4214-2.475 2.4022-2.1111 2.9846-2.0383 2.0383-1.9655 2.2566-1.8199 1.2375-1.0191 0.43677-0.80075zm7.1652-8.2858 1.4246 0.49673 1.8927 0.43677 1.2375 1.6743 1.0191 2.3295 0.0728 1.4559-1.8199 0.87355-2.2567 0.94634-1.3831 0.36398-1.3831-1.8927-1.5287-0.80075-2.059-1.4352 1.1127-1.6222 0.94634-1.5287 2.475-0.80075zm9.7828-37.694 1.1052 2.0118 0.21838 1.9655 1.6015 0.87355 0.43678 0.50957-0.80075 0.87354 0.0728 1.5287-1.0919 1.0919-1.6015 1.2375-2.475 1.1647-1.6743 1.4559v1.1647l4.1493 3.4214 1.4559 0.72795 1.2701 0.22366 0.98652 1.7418 0.65516 2.1839-1.0919 1.3831-1.5287 0.07279-0.94634 1.4559-0.94634 2.1839-1.7471 1.5287-3.6398-0.21839-3.3954-0.44714 0.62914-3.7022-1.3103-1.8927-0.29118-2.4022-2.3295-3.3486-2.1111-0.65516-0.21839-1.1647-1.2375-3.567-3.0574-3.567-2.1839-3.2758-1.5287-2.475-0.21838-1.5287 0.94634-1.7471-3.203-2.7662-0.0728-1.1647 1.1647-0.80075-0.58236-1.0919 0.14559-1.3831-0.65516-2.1839-0.80075-1.0191 0.80075-0.72796h3.3486v-0.50957l0.29118-1.3103 0.87355-1.3103-1.0191-0.43677-0.58236-1.0191 1.8199-0.65516 1.0919 0.87355-0.0728 2.1111 1.3831-0.14559 0.21839-0.36398-0.29118-0.94634 0.54842-1.6053 2.8878 3.0312 1.1225 0.32741 0.18709 1.0758 2.0112 1.3096 1.3096 1.9644-0.46772 1.7306 0.65481 2.4322 1.5435 2.5257 3.1805 2.4789 1.4032 0.56127z" style="fill-rule:evenodd;fill:#fffecc;stroke-linecap:round;stroke-linejoin:round;stroke-width:.52917;stroke:#000000"/>
  <path d="m-219.97 56.409 0.58237 1.3103 1.9655 0.65516 2.2567 1.3103 1.8199 2.1111 1.6743 0.87354 1.4559-1.3103 1.0919-0.50957 1.1647 1.0191 0.14559 0.80075m-12.131-6.2261l-1.9554 0.82682-2.249 0.95912-1.3891 0.31419-1.4221-1.8686-1.5379-0.87643-1.9182-1.3229-2.5466 2.7285 0.13229 1.0914 0.94258 1.4552-0.47956 0.89297-3.5057 2.7781-2.0836 1.9182-2.9435 2.0836-2.1828 1.9844-3.6049 2.497-0.71107 2.5962-1.141 0.31419-1.3891-0.42995-1.2072-1.1741-1.7881 1.5693 1.7252 1.0648 1.0191 2.475-0.21839 1.6743-0.94634 2.0383 0.14559 2.475-1.6015 1.2375-0.94634 1.4559-1.3103 1.3831 0.36398 1.5287 1.7471 0.29118 1.2375-0.14559 4.3677 3.8582 4.0765-0.0728 1.6743 1.7471 0.50956 1.9655v2.839l-0.50956 1.3103 2.1038 1.8362 2.1932-1.4132 2.6293-2.249 4.5475-3.8695 2.282-1.819 1.8852-2.249 0.92604-1.819 0.92605-1.5875-0.52917-3.3404-1.0583-2.1828 1.8852-1.6536 0.19844-2.2159 1.1576-1.2898 0.95912-1.3891-0.69453-1.0583 1.3229-1.2568 2.0174-1.1906 0.26458-1.356 3.7372-2.3482 0.23151 0.7276 0.89297-0.23151 1.3229-2.0505 3.5719-1.0914-0.39687-1.356 1.3973-2.7864" style="fill-rule:evenodd;fill:#fffecc;stroke-linecap:round;stroke-linejoin:round;stroke-width:.52917;stroke:#000000"/>
  <path d="m128.06 193.67 5.5747-0.27043 1.6015-1.5287h3.4214l0.87355-1.4559 3.6398 0.21839 0.50959 3.0574 3.7126 3.7854 0.1456 1.8199-1.3103 1.2375-0.36399 8.1531-1.0919 0.43677-0.36396 1.6743-0.80076 1.6015-1.0919 0.94636-0.87353 0.50956 0.0728 3.203 0.94634 0.65516 8.0075-0.0728 0.80073 1.5287 5.0229 0.0728 1.3103 1.2375-0.14557 7.5707 0.50956 0.94634 2.7662 0.1456-0.0728 4.0037 1.0919 1.3103 0.21839 6.4788-2.7662 0.14557-0.72795 4.295-2.5478 0.0728-1.3103 1.4559-2.111 0.65516-1.7471 1.8199 0.58235 2.1839 2.9846 0.1456-1.3103 4.2221 0.94633 1.4559-1.3103 1.6743-0.72795 2.7662-1.0191 1.3831-1.6743 2.6934 0.0728 3.7853-0.0728 4.2949-1.1647 1.6743-0.29118 1.9655 0.14558 2.0383 1.0919 1.8199 0.21839 3.203s0.36399 1.0919 0.43677 1.3831c0.0728 0.29117 1.4559 1.6743 1.4559 1.6743l1.6015 1.4559-0.58237 1.9655-1.8199 0.36396 1.8927 2.3294 3.0574 2.3295 1.8927 0.29117-0.14558 15.141 2.6934 0.94633 1.0919 2.4023 3.1302 2.6206 3.203 0.80074 6.1148 5.7508 1.2375 1.0191 4.9501 0.1456 1.8199 1.6743 2.9846 0.1456 0.1456 2.7662 3.9309 1.8199 2.9846 0.94636 0.14557 1.0919 1.6015 1.1648 1.5287 0.58235 0.80076 0.50956 0.87355-0.29118 0.29117-1.7471 0.0728-9.9002 1.3831-2.1838 1.8927-1.0192-0.36399-0.80073 2.6206-2.5479-0.36399-0.94633 2.6934-3.7854-0.36399-9.5362 1.4559-1.4559 0.29117-2.2566 2.0383-1.7471 2.2567-0.43677 1.7471-1.3831v-5.0957l-1.3103-0.87355-0.0728-2.0383 1.6015-1.2375v-6.042l2.5478-1.9655 0.94634-1.4559-0.0728-3.931-1.8199-1.1647-0.0728-5.5324-0.2912-1.0919-2.4022-0.72794-0.43678-3.3486 1.8199-1.9655-0.0728-4.5861-1.4559-1.9655-0.29118-4.6589-1.5287-1.9655-0.58235-2.1839-0.87355-1.0191-0.21839-4.8773-1.3103-1.5287-0.43677-3.0574-2.0383-1.9655-0.94633-1.6015 1.0191-1.3103 0.80076-1.6015-0.1456-11.138-4.4405-3.0574-4.6589-5.4596-2.9846-1.8927-0.72798-0.43678 0.0728-4.6589-1.3103-1.4559-0.43678-1.9654 1.2375-1.8927 0.72798-3.1302-0.21839-2.839-1.3831-1.1647-0.87355-2.1111 0.80074-1.5287 4.1494-0.2912 3.1302-3.6398 0.36399-12.157 0.72794-2.0383 0.94637-1.3103-0.1456-12.739-1.6743-1.9655 0.1456-10.264 1.6015-1.3831-0.21838-1.8927 1.8199-1.3831-0.14557-1.9655 1.6743-0.80074 0.1456-1.9655-0.2912-12.011-1.5287-1.0191 0.0728-4.0038-1.8199-3.2758-9.3906-9.6818-6.042-4.9501-5.2413-7.2795-5.0957-4.5133-6.6972-3.0574-2.5478-2.6206-5.5325-0.14559-1.6015 1.5287-2.5322 2.0016 0.56671 0.98302 0.43677 1.0919-1.1647 1.6015s-3.1302 0.80075-3.4214 0.94634c-0.29117 0.14559-1.8927 1.6015-1.8927 1.6015l-1.0919 3.6398-0.21838 1.4559-3.203-0.0728-1.7471 1.3831-2.1111 1.8927-1.7098 1.3476-0.98362 1.637-2.5478 0.80075-2.6934-0.36398-2.1111 0.14559-1.2375 1.8927 0.0728 2.4022-0.65516 2.6934-2.2567 1.3831-2.1111 0.58236-0.36397 1.1647 0.65517 2.0383 1.6015 1.0191 2.2567 2.2567 0.58235 1.2375-1.2375 1.9655-0.72795 0.72796 1.8927 2.3294 2.1839 0.72796 2.1111-1.4559 2.9846 0.58236 2.475 1.8927 1.6015 1.0191-2.475 3.4942-1.8199 1.8927-1.8199 0.43677-1.6015 1.6015-2.0383 1.7471-3.567 0.0728-2.1111 2.7662-2.0383-0.58236-2.2567-0.65516-1.0192 0.21839-1.0919-0.80076-1.4559 0.72796 0.0728 1.2375-1.9655 0.58236-2.6934 0.1456-1.7471-0.43678-1.6743 0.21839-1.5287-1.5287-0.29117 0.29119 0.29117 1.6015 1.3103 1.6015 0.72795 2.1839-0.58237 2.0383 1.4559 2.6934 0.21839 2.1839-0.36399 1.7471 0.36399 2.6206 0.80073 2.2566-1.8927 2.839s-1.8927 1.1647-2.1839 1.1647c-0.29117 0-1.3103 1.0191-1.3103 1.0191l-0.65514 1.9655-2.1839 0.87355-1.2375 1.3831-0.58235 0.21839z" style="fill-rule:evenodd;fill:#fffecc;stroke-linecap:round;stroke-linejoin:round;stroke-width:.52917;stroke:#000000"/>
  <path d="m-92.673 12.469 0.61769 1.5442 2.1619 0.41179 3.2943-0.41179 2.8826-1.956 1.6472-1.1324-0.72064-0.92653-0.61769-0.61769l-3.8359 0.013996-1.4717-0.46302-0.7276 1.1576-2.1993 0.69453-0.34727 1.2402z" style="fill-rule:evenodd;fill:#fffecc;stroke-linecap:round;stroke-linejoin:round;stroke-width:.52917;stroke:#000000"/>
  <path d="m-67.183 6.6714 0.93657 0.72964v1.1324l-0.51475 0.72064h-1.5442l-1.2354 0.10295-2.5737-0.30885-2.059-0.2059-5.7651 0.41179-3.6325 0.14348-3.7798 0.062418-1.4413-0.51474-0.72064 1.2354-2.1619 0.72064-0.4118 1.2354-1.0295 0.72064-1.4772 0.59481-0.94602 0.34392-1.956-0.72064-1.1324 1.1324-1.4413 0.4118-0.30885-2.1619-1.4206-2.649 1.8024-0.17118 4.0765-0.36398 2.839-0.58236 3.1302-1.5287 2.5478-0.072797 2.1111-0.29118 3.567-0.36398 2.6934-0.072795 1.3103-0.29118h6.9156l2.3973 0.51513z" style="fill-rule:evenodd;fill:#fffecc;stroke-linecap:round;stroke-linejoin:round;stroke-width:.52917;stroke:#000000"/>
 </g>
</svg>
