<?xml version="1.0" encoding="UTF-8" standalone="no"?>
<!-- Created with Inkscape (http://www.inkscape.org/) -->

<svg
   xmlns:dc="http://purl.org/dc/elements/1.1/"
   xmlns:cc="http://creativecommons.org/ns#"
   xmlns:rdf="http://www.w3.org/1999/02/22-rdf-syntax-ns#"
   xmlns:svg="http://www.w3.org/2000/svg"
   xmlns="http://www.w3.org/2000/svg"
   xmlns:sodipodi="http://sodipodi.sourceforge.net/DTD/sodipodi-0.dtd"
   xmlns:inkscape="http://www.inkscape.org/namespaces/inkscape"
   width="5.8208408mm"
   height="6.0407801mm"
   viewBox="0 0 5.8208408 6.0407801"
   version="1.1"
   id="svg8"
   inkscape:version="0.92.1 r15371"
   sodipodi:docname="virus.svg">
  <defs
     id="defs2" />
  <sodipodi:namedview
     id="base"
     pagecolor="#ffffff"
     bordercolor="#666666"
     borderopacity="1.0"
     inkscape:pageopacity="0.0"
     inkscape:pageshadow="2"
     inkscape:zoom="22.26669"
     inkscape:cx="13.546875"
     inkscape:cy="5.078125"
     inkscape:document-units="mm"
     inkscape:current-layer="layer1"
     showgrid="false"
     inkscape:window-width="1920"
     inkscape:window-height="1027"
     inkscape:window-x="-8"
     inkscape:window-y="-8"
     inkscape:window-maximized="1"
     fit-margin-top="0"
     fit-margin-left="0"
     fit-margin-right="0"
     fit-margin-bottom="0"
     inkscape:lockguides="true" />
  <metadata
     id="metadata5">
    <rdf:RDF>
      <cc:Work
         rdf:about="">
        <dc:format>image/svg+xml</dc:format>
        <dc:type
           rdf:resource="http://purl.org/dc/dcmitype/StillImage" />
        <dc:title></dc:title>
      </cc:Work>
    </rdf:RDF>
  </metadata>
  <g
     inkscape:label="Capa 1"
     inkscape:groupmode="layer"
     id="layer1"
     transform="translate(-73.909171,-127.33733)">
    <path
       style="opacity:1;vector-effect:none;fill:#ff0000;fill-opacity:1;stroke:none;stroke-width:0.11658534;stroke-linecap:butt;stroke-linejoin:miter;stroke-miterlimit:4;stroke-dasharray:none;stroke-dashoffset:0;stroke-opacity:1;paint-order:stroke fill markers"
       d="M 10.964844 0 L 10.964844 0.001953125 C 9.8837741 0.0019153297 9.0078919 0.87792611 9.0078125 1.9589844 C 9.008901 2.8456615 9.6059092 3.6200531 10.462891 3.8476562 L 10.455078 4.3691406 A 6.9062499 6.9062499 0 0 0 7.6132812 5.2988281 L 7.4140625 5 C 7.6159649 4.759622 7.7265247 4.4545148 7.7265625 4.140625 C 7.726589 3.4039951 7.1291929 2.806754 6.3925781 2.8066406 C 5.6558726 2.8066028 5.0585673 3.4039195 5.0585938 4.140625 C 5.0585673 4.8773305 5.6558726 5.4746472 6.3925781 5.4746094 C 6.5129939 5.4746472 6.6319776 5.4609942 6.7480469 5.4277344 L 6.9570312 5.7382812 A 6.9062499 6.9062499 0 0 0 5.1347656 7.8125 L 3.8808594 7.2675781 C 3.9027806 7.1504128 3.9136845 7.0311645 3.9140625 6.9121094 C 3.9141268 5.8309377 3.0382067 4.9550403 1.9570312 4.9550781 C 0.87594653 4.9551537 -6.4251969e-005 5.8310133 0 6.9121094 C 7.9370079e-005 7.9930921 0.87604857 8.8710182 1.9570312 8.8710938 C 2.5624209 8.8701867 3.1338603 8.5883923 3.5039062 8.109375 L 4.7304688 8.640625 A 6.9062499 6.9062499 0 0 0 4.21875 11.238281 A 6.9062499 6.9062499 0 0 0 4.2207031 11.289062 L 4.15625 11.291016 C 4.0178815 10.684893 3.4791277 10.254624 2.8574219 10.253906 C 2.1208071 10.253868 1.5235358 10.851261 1.5234375 11.587891 C 1.523411 12.324596 2.1207164 12.921913 2.8574219 12.921875 C 3.4025658 12.921497 3.8933094 12.590025 4.0957031 12.083984 L 4.2792969 12.080078 A 6.9062499 6.9062499 0 0 0 4.6367188 13.583984 L 4.4375 13.685547 C 4.3195787 13.532476 4.1365915 13.443359 3.9433594 13.443359 C 3.5988932 13.443322 3.3202709 13.722016 3.3203125 14.066406 C 3.3203956 14.410721 3.5989802 14.689491 3.9433594 14.689453 C 4.2876365 14.689378 4.5663231 14.41057 4.5664062 14.066406 C 4.5662929 14.047509 4.5661728 14.028727 4.5644531 14.011719 L 4.7636719 13.910156 A 6.9062499 6.9062499 0 0 0 5.1816406 14.740234 L 4.2773438 15.472656 C 3.9105028 15.104908 3.4119948 14.8969 2.8925781 14.896484 C 1.8115803 14.89656 0.93560735 15.774486 0.93554688 16.855469 C 0.93550152 17.936527 1.8115047 18.812424 2.8925781 18.8125 C 3.9737384 18.812538 4.8496547 17.93664 4.8496094 16.855469 C 4.8488572 16.656666 4.8180582 16.458961 4.7578125 16.269531 L 5.6992188 15.507812 A 6.9062499 6.9062499 0 0 0 7.3515625 17.015625 L 7.1855469 17.341797 C 7.043928 17.282836 6.891749 17.253906 6.7382812 17.253906 C 6.0972961 17.253906 5.5781326 17.773092 5.578125 18.414062 C 5.5781326 19.055033 6.0972961 19.574219 6.7382812 19.574219 C 7.3792702 19.574219 7.8984299 19.055033 7.8984375 18.414062 C 7.8979008 18.135889 7.7974454 17.866656 7.6152344 17.65625 L 7.8007812 17.291016 A 6.9062499 6.9062499 0 0 0 9.6347656 17.974609 L 9.6054688 18.126953 C 9.177698 18.130733 8.8320766 18.478332 8.8320312 18.90625 C 8.8320728 19.3367 9.1808891 19.685509 9.6113281 19.685547 C 10.041782 19.685509 10.390583 19.336852 10.390625 18.90625 C 10.390217 18.606156 10.218303 18.332271 9.9472656 18.203125 L 9.9785156 18.039062 A 6.9062499 6.9062499 0 0 0 11.125 18.144531 A 6.9062499 6.9062499 0 0 0 12.035156 18.076172 L 12.275391 19.107422 C 11.592959 19.430949 11.157172 20.117746 11.15625 20.873047 C 11.156186 21.954219 12.032106 22.832069 13.113281 22.832031 C 14.194457 22.832069 15.070377 21.954219 15.070312 20.873047 C 15.069201 19.817538 14.232687 18.95424 13.177734 18.919922 L 12.939453 17.900391 A 6.9062499 6.9062499 0 0 0 15.011719 16.9375 L 15.074219 17.027344 C 14.879309 17.210651 14.769758 17.466898 14.769531 17.734375 C 14.769444 18.270161 15.20248 18.703087 15.738281 18.703125 C 16.274173 18.703238 16.709071 18.270274 16.708984 17.734375 C 16.708969 17.198551 16.274097 16.763558 15.738281 16.763672 C 15.671724 16.764428 15.606023 16.771991 15.541016 16.787109 L 15.435547 16.630859 A 6.9062499 6.9062499 0 0 0 16.560547 15.484375 L 17.400391 16.101562 C 17.349896 16.243673 17.32287 16.394345 17.322266 16.544922 C 17.322239 17.281627 17.919544 17.878944 18.65625 17.878906 C 19.392952 17.878906 19.990261 17.281627 19.990234 16.544922 C 19.990261 15.808216 19.392952 15.210938 18.65625 15.210938 C 18.373655 15.21158 18.098999 15.301695 17.871094 15.46875 L 17.009766 14.835938 A 6.9062499 6.9062499 0 0 0 17.583984 13.658203 L 17.84375 13.748047 C 17.86227 14.040204 18.105751 14.267616 18.398438 14.267578 C 18.704579 14.26754 18.95124 14.019032 18.951172 13.712891 C 18.951115 13.406749 18.704511 13.160194 18.398438 13.160156 C 18.212371 13.160232 18.038127 13.252865 17.935547 13.408203 L 17.705078 13.328125 A 6.9062499 6.9062499 0 0 0 18.009766 11.658203 L 18.230469 11.677734 C 18.353341 12.087964 18.72999 12.368725 19.158203 12.369141 C 19.694095 12.369254 20.128993 11.934337 20.128906 11.398438 C 20.128891 10.862614 19.694023 10.429574 19.158203 10.429688 C 18.7192 10.430217 18.33583 10.724375 18.222656 11.148438 L 18.027344 11.130859 A 6.9062499 6.9062499 0 0 0 17.40625 8.3886719 L 18.585938 7.8710938 C 18.956558 8.2855189 19.486993 8.5225304 20.042969 8.5234375 C 21.12414 8.5234753 22.000064 7.6475779 22 6.5664062 C 21.99994 5.4853102 21.124053 4.6093372 20.042969 4.609375 C 18.961967 4.6094506 18.085998 5.4854236 18.085938 6.5664062 C 18.086376 6.7319496 18.106636 6.8967288 18.148438 7.0566406 L 16.972656 7.5722656 A 6.9062499 6.9062499 0 0 0 16.115234 6.4648438 L 16.240234 6.3457031 C 16.329015 6.402396 16.433765 6.4335938 16.539062 6.4335938 C 16.845129 6.433556 17.09174 6.1848212 17.091797 5.8789062 C 17.091865 5.5727645 16.845212 5.3242565 16.539062 5.3242188 C 16.232807 5.3241432 15.984307 5.5727645 15.984375 5.8789062 C 15.984417 5.9461818 15.99572 6.0134317 16.019531 6.0761719 L 15.863281 6.2246094 A 6.9062499 6.9062499 0 0 0 14.974609 5.5058594 L 15.023438 5.4394531 C 15.106549 5.4621303 15.193161 5.4746094 15.279297 5.4746094 C 15.815204 5.4747228 16.248156 5.0398055 16.248047 4.5039062 C 16.248009 3.9681204 15.815098 3.5330897 15.279297 3.5332031 C 14.743583 3.5332409 14.308632 3.968196 14.308594 4.5039062 C 14.308798 4.7503314 14.401708 4.9863747 14.570312 5.1660156 L 14.523438 5.2304688 A 6.9062499 6.9062499 0 0 0 11.376953 4.34375 L 11.384766 3.8671875 C 12.282007 3.6702741 12.920696 2.8756076 12.921875 1.9570312 C 12.921796 0.87604857 12.045826 7.5590551e-005 10.964844 0 z "
       transform="matrix(0.26458333,0,0,0.26458333,73.909171,127.33733)"
       id="path4496" />
  </g>
</svg>
